<svg width="279" height="74" viewBox="0 0 279 74" fill="none" xmlns="http://www.w3.org/2000/svg">
<path d="M30.7097 14.0435C29.2775 14.488 28.6762 15.2253 27.6376 17.1335C21.6466 28.0841 16.3989 33.0931 10.2001 36.877C8.31971 38.0046 4.11066 40.4116 0.196787 41.1488L0 40.8019C10.8451 34.2207 19.9083 24.5387 25.0138 12.8509C23.8768 13.0027 19.9083 13.5339 17.7873 13.8809C17.5359 13.9351 16.7487 14.2278 16.3989 14.2278C15.9069 14.2278 15.0651 13.9351 14.1249 13.393C9.66442 18.749 7.5435 20.5705 0.896473 24.4411L0.54663 24.0942C7.28111 16.8733 9.11779 14.5206 11.84 9.84762C12.9333 7.98278 13.3706 6.8552 13.3706 6.25888C13.3706 5.71677 11.687 4.4374 10.6484 3.85193C11.4464 3.60256 12.2882 3.4074 13.1301 3.4074C14.8683 3.4074 19.1758 5.66256 19.1758 7.33225C19.1758 7.87436 19.0774 8.0153 17.7436 9.15373C17.0986 9.7392 16.9018 9.98857 15.9069 11.1704C17.1423 11.2679 23.2318 10.8776 24.3797 10.4873C24.9263 10.2921 27.0035 8.81762 27.5064 8.81762C27.9 8.81762 28.1515 9.01278 30.2833 10.8776C31.7155 12.157 31.9669 12.4497 31.9669 12.9376C31.9669 13.6207 31.6717 13.7291 30.7315 14.0218" fill="#2C766B"/>
<path d="M72.2645 14.3363C71.9146 14.8242 70.4825 21.362 70.1873 22.8799C70.0342 23.5195 68.6567 29.5586 68.6567 29.6562C68.6567 29.9489 68.7551 30.0031 69.7937 30.6862C70.8323 31.3259 71.3243 31.6728 71.3243 32.4534C71.3243 33.4401 70.5809 33.928 69.586 33.928C69.1378 33.928 68.941 33.8738 67.159 33.6786C66.0657 33.5377 65.1802 33.5377 62.1081 33.5377C57.8991 33.5377 53.69 33.5377 49.5247 34.1231C49.5247 34.611 49.481 36.9204 47.9941 36.9204C46.1137 36.9204 45.0205 33.1907 45.0205 31.4126C45.0205 31.1199 45.1735 29.6887 45.1735 29.6453C45.1735 26.2084 44.4848 15.5939 43.4899 12.2546C42.8995 10.3355 41.9047 9.84762 40.068 9.16457C40.6583 8.81762 41.5985 8.27551 42.7465 8.27551C44.1786 8.27551 44.8783 8.72004 47.5022 10.2921C48.0488 10.6391 48.3986 10.7367 48.7922 10.7367C49.142 10.7367 49.7324 10.6391 50.1806 10.5415C51.3723 10.2921 66.4812 9.51152 67.9571 8.87183C68.3069 8.72004 69.5423 7.64667 69.8921 7.64667C70.5371 7.64667 74.5931 11.333 74.5931 12.1136C74.5931 12.6557 72.5159 13.9351 72.2645 14.3254M66.4702 11.9835C64.5898 11.9835 58.4457 12.2763 52.6951 13.1653C52.4 13.2195 50.8147 13.5123 50.4212 13.5123C50.0276 13.5123 47.9941 12.8292 47.9941 12.8292C47.8411 12.8292 47.8411 13.0244 47.8411 13.1219C47.8411 13.805 48.4314 20.7331 48.4861 22.2076C48.5845 24.6146 48.7375 28.9406 49.1748 31.1524C50.0167 31.25 50.3118 31.25 51.4051 31.1524C56.0077 30.8054 60.6213 30.4693 65.2239 30.2633C65.377 29.2767 65.5191 28.4419 66.5577 21.221C66.9512 18.5647 67.3011 13.4038 67.3011 13.0135C67.3011 12.4714 66.9075 11.9835 66.4593 11.9835" fill="#2C766B"/>
<path d="M120.215 24.0616C119.417 24.0616 118.181 24.0074 117.197 23.9099C116.257 23.8556 104.166 23.7581 103.324 23.7581C100.449 23.7581 92.8725 23.9099 90.5985 24.5495C89.702 24.7989 89.3084 24.8965 88.9148 24.8965C87.0782 24.8965 84.3122 21.015 84.3122 19.0526C84.3122 18.4129 84.509 17.5781 85.1103 16.2987C86.8486 19.7356 88.0293 20.332 93.922 20.332C96.7973 20.332 113.983 20.2777 115.667 19.6923C116.41 19.4429 117.001 19.2044 117.646 19.2044C117.744 19.2044 123.538 19.6489 123.538 22.251C123.538 23.0859 122.598 24.0725 120.215 24.0725" fill="#2C766B"/>
<path d="M153.002 27.7913C151.908 27.7913 151.613 27.4444 149.875 25.135C147.197 21.6981 143.239 19.096 140.615 17.9684C140.615 19.096 140.67 24.8423 140.67 25.7747C140.714 27.6938 141.02 36.1398 141.02 37.8637C141.02 38.6009 141.02 41.9945 138.789 41.9945C136.559 41.9945 136.067 38.0154 136.067 37.3324C136.067 36.6493 136.22 35.6627 136.264 35.3158C136.953 31.3367 136.953 20.8307 136.953 16.2553C136.953 9.3272 136.953 5.69509 135.663 4.46993C134.624 3.4833 133.279 3.19056 132.492 2.9954C133.039 2.64845 134.329 1.81361 135.958 1.81361C138.778 1.81361 142.102 3.38572 142.102 4.26393C142.102 4.65425 141.457 6.32393 141.315 6.67088C140.823 8.34057 140.67 14.7266 140.67 16.8408C143.447 17.3287 154.981 19.4429 154.981 25.2868C154.981 26.4144 154.292 27.7913 153.002 27.7913ZM156.522 13.7508C155.779 13.7508 155.527 13.5014 153.253 11.4414C153.199 11.4414 150.728 9.27299 148.946 8.19962C152.958 7.95025 157.768 9.47899 157.768 12.2763C157.768 13.4038 157.025 13.7508 156.533 13.7508M160.928 10.0645C160.283 10.0645 159.791 9.67415 157.408 7.51657C157.058 7.22383 155.921 6.2372 153.341 4.86025C154.029 4.76267 154.237 4.7193 154.674 4.7193C154.871 4.7193 162.054 4.7193 162.054 8.5032C162.054 9.24046 161.66 10.0753 160.917 10.0753" fill="#2C766B"/>
<path d="M178.311 26.1216C175.884 26.1216 173.949 24.2026 173.949 21.7956C173.949 19.3887 175.927 17.4696 178.311 17.4696C180.694 17.4696 182.673 19.3887 182.673 21.7956C182.673 24.2026 180.738 26.1216 178.311 26.1216Z" fill="#2C766B"/>
<path d="M233.783 21.7523C233.389 21.7523 233.138 21.7089 230.962 21.5029C228.382 21.2535 226.108 21.156 224.129 21.156C221.505 21.156 218.882 21.3511 216.258 21.6005C216.006 25.4277 216.006 27.3034 216.006 29.2117C216.006 32.3559 216.203 33.8304 220.073 33.8304C222.949 33.8304 223.441 33.7328 225.868 33.0931C226.556 32.898 227.3 32.8004 227.846 32.8004C228.24 32.8004 232.012 33.3425 232.012 35.4567C232.012 37.4191 229.388 37.5167 224.381 37.5167C216.356 37.5167 212.497 37.4733 212.497 29.808C212.497 27.748 212.595 24.1592 212.639 22.0992C206.353 23.1292 204.363 24.1592 202.931 24.9507C202.034 25.4386 201.696 25.4928 201.444 25.4928C200.602 25.4928 198.328 24.1701 197.18 22.6413C196.043 21.1234 196.142 19.6489 196.186 18.4671C198.416 20.4837 199.061 21.0692 201.193 21.0692C202.034 21.0692 203.368 20.8741 204.013 20.7765C208.671 20.0934 211.59 19.7465 212.727 19.5947C212.781 18.8032 212.88 15.5181 212.574 12.8617C212.475 11.7775 212.18 11.1378 211.283 10.6066C210.092 10.8559 208.66 11.192 208.058 11.3438C207.118 11.5932 206.867 11.5932 206.528 11.5932C205.238 11.5932 202.669 8.74173 202.669 6.7793C202.669 6.52993 202.712 6.2372 202.767 5.98783C205.489 7.71173 205.839 7.90688 207.665 7.90688C208.758 7.90688 220.39 7.07204 223.025 5.89025C224.26 5.34814 224.752 5.10962 225.354 5.10962C225.955 5.10962 227.934 5.49993 229.169 6.43235C229.617 6.72509 229.858 7.32141 229.858 7.90688C229.858 9.22962 228.819 9.22962 227.923 9.22962C220.15 9.22962 218.215 9.47899 215.001 9.91267C215.995 10.303 218.018 11.192 218.018 12.0269C218.018 12.4714 217.766 12.8617 217.176 13.6966C216.979 14.0435 216.586 16.1035 216.389 19.1935C222.73 18.5538 227.387 18.1093 229.519 17.5672C230.306 17.3721 230.612 17.2745 231.148 17.2745C232.679 17.2745 235.805 18.3045 235.805 20.1693C235.805 21.1017 234.81 21.7414 233.772 21.7414" fill="#2C766B"/>
<path d="M268.658 14.0435C268.166 14.2387 267.718 14.6832 266.974 15.6156C265.039 18.0226 263.607 19.6381 262.317 21.1126C263.159 21.5571 264.197 22.1426 264.197 22.5329C264.197 22.7823 263.804 23.9099 263.749 24.1592C263.651 24.5062 263.301 26.5662 263.301 30.0573C263.301 31.3801 263.552 37.083 263.552 38.2648C263.552 40.3248 263.552 42.3957 261.77 42.3957C260.338 42.3957 259.19 40.379 259.19 38.8611C259.19 38.319 259.54 36.0097 259.584 35.5218C259.835 32.8221 259.835 28.3551 259.835 26.7288C259.835 26.0457 259.835 24.3761 259.638 23.8773C253.352 30.3609 247.755 32.8221 243.688 34.1882L243.491 33.6461C250.127 29.5152 255.331 23.4328 258.403 19.8441C259.343 18.7165 263.257 14.0977 263.257 13.4147C263.257 13.2195 263.06 13.1653 262.962 13.1653C262.765 13.1653 255.331 15.3229 253.451 16.6998C252.805 17.1444 252.554 17.3395 251.964 17.3395C250.182 17.3395 248.104 13.7074 248.104 11.4956C248.104 10.5632 248.258 10.2163 248.454 9.72836C250.094 12.0377 251.034 12.5798 252.467 12.5798C254.642 12.5798 263.607 11.1053 265.542 9.63078C266.635 8.79594 266.734 8.69836 267.127 8.69836C267.969 8.69836 271.686 11.0077 271.686 12.0377C271.686 12.775 271.489 12.8292 268.669 14.0544M264.394 7.6033C263.651 7.6033 263.301 7.35393 262.12 6.32393C258.501 3.33151 257.015 1.99793 253.997 1.02214C255.779 0.534241 256.971 0.534241 257.66 0.534241C260.633 0.534241 263.847 1.46666 265.094 2.4533C266.089 3.28814 266.329 4.95783 266.329 5.44572C266.329 6.76846 265.542 7.6033 264.394 7.6033ZM277.273 31.8246C275.786 31.8246 275.097 30.7946 274.496 29.8622C273.654 28.637 270.833 24.4628 263.749 20.3753C272.32 21.0692 279 25.2434 279 29.7104C279 30.0573 278.945 31.8246 277.262 31.8246" fill="#2C766B"/>
<path d="M28.0093 62.3777H0.371708V63.6137H28.0093V62.3777Z" fill="#2C766B"/>
<path d="M44.2224 66.6929C46.8025 67.7879 48.18 68.471 48.18 70.39C48.18 71.0297 47.8301 71.4634 47.1851 71.4634C46.3761 71.4634 46.223 70.8888 46.0809 70.4551C45.9935 70.1081 45.7311 69.36 45.5999 69.0131C43.9163 69.7937 41.1066 70.7044 38.7342 71.3224C38.5484 71.7128 38.4172 71.8537 38.2532 71.8537C38.0673 71.8537 37.9033 71.561 37.8815 71.5068L36.6351 69.1323C37.1162 69.1974 37.7612 69.3167 38.5046 69.3167C39.1278 69.3167 41.1066 69.1107 41.8937 69.0456V65.3268H40.068C40.068 65.4894 40.0898 66.1291 40.0898 66.2592C40.068 66.8338 39.3027 66.9856 38.9638 66.9856C38.3188 66.9856 38.2969 66.6712 38.2969 66.3676C38.2969 66.1833 38.4172 63.6679 38.4172 63.3752C38.439 62.5729 38.439 59.9924 38.439 59.7431C38.439 59.266 38.4172 59.0817 38.3953 58.8323L40.2538 59.884H41.8937V57.8457C40.6474 58.03 39.5651 58.0734 38.6249 58.0734C38.3953 58.0734 37.477 58.0517 37.2911 58.0517C37.3348 62.6162 37.4114 68.8504 32.2512 73.4041L32.1418 73.3066C34.8641 68.7637 35.367 64.0365 35.367 59.6238C35.367 58.2252 35.3014 54.6906 34.9078 52.6306L37.3239 53.8449H48.3768L49.2732 53.2053C49.5028 53.0426 49.5247 53.0426 49.6449 53.0426C49.7652 53.0426 49.8308 53.1077 49.9839 53.2486L51.2302 54.322C51.3176 54.3871 51.3723 54.5063 51.3723 54.6147C51.3723 54.8424 51.2848 54.8858 50.4321 55.2978C50.3665 56.0025 50.2462 57.1735 50.2462 59.0492C50.2462 66.1508 51.4926 69.6961 52.1376 69.6961C52.4328 69.6961 53.5916 67.4843 53.7993 67.0723L53.8868 67.1157C53.5807 69.7829 53.537 70.7695 53.537 71.0731C53.537 71.3044 53.6208 71.5718 53.7884 71.8754C53.8759 72.038 53.9305 72.2657 53.9305 72.4717C53.9305 73.068 53.5151 73.1981 53.1215 73.1981C52.3344 73.1981 50.8913 72.4934 49.8527 69.8588C48.4752 66.411 48.4752 60.3285 48.4752 58.1818C48.4752 56.6314 48.5189 55.9158 48.6173 54.3871H37.2583C37.2583 54.8424 37.2802 57.1301 37.302 57.8348C41.6313 56.8807 44.5831 55.5472 45.25 55.1135L47.0211 56.2519C47.1086 56.317 47.207 56.3928 47.207 56.5013C47.207 56.7723 46.9555 56.8157 46.3542 56.8916C45.8951 56.935 43.9381 57.4662 43.5227 57.553V59.8623H45.2282L45.8732 59.0817C46.0153 58.9191 46.0809 58.8757 46.1684 58.8757C46.2777 58.8757 46.3761 58.9191 46.562 59.0817L47.535 59.884C47.6224 59.9491 47.7864 60.09 47.7864 60.1767C47.7864 60.3611 47.6989 60.4044 47.0211 60.8381C47.043 61.5862 47.1851 65.4569 47.1851 65.5653C47.1851 66.27 46.6057 66.5953 45.9716 66.5953C45.4468 66.5953 45.425 66.1833 45.425 65.9556V65.2942H43.5336V68.8396C44.1568 68.7529 44.8455 68.6553 45.425 68.5686C45.1954 68.0915 44.9439 67.7012 44.1568 66.7688L44.2442 66.682L44.2224 66.6929ZM41.9047 60.437H40.0789V64.7738H41.9047V60.437ZM43.5118 64.7738H45.4031V60.437H43.5118V64.7738Z" fill="#2C766B"/>
<path d="M44.2224 66.6929C46.8025 67.7879 48.18 68.471 48.18 70.39C48.18 71.0297 47.8301 71.4634 47.1851 71.4634C46.3761 71.4634 46.223 70.8888 46.0809 70.4551C45.9935 70.1081 45.7311 69.36 45.5999 69.0131C43.9163 69.7937 41.1066 70.7044 38.7342 71.3224C38.5484 71.7128 38.4172 71.8537 38.2532 71.8537C38.0673 71.8537 37.9033 71.561 37.8815 71.5068L36.6351 69.1323C37.1162 69.1974 37.7612 69.3167 38.5046 69.3167C39.1278 69.3167 41.1066 69.1107 41.8937 69.0456V65.3268H40.068C40.068 65.4894 40.0898 66.1291 40.0898 66.2592C40.068 66.8338 39.3027 66.9856 38.9638 66.9856C38.3188 66.9856 38.2969 66.6712 38.2969 66.3676C38.2969 66.1833 38.4172 63.6679 38.4172 63.3752C38.439 62.5729 38.439 59.9924 38.439 59.7431C38.439 59.266 38.4172 59.0817 38.3953 58.8323L40.2538 59.884H41.8937V57.8457C40.6474 58.03 39.5651 58.0734 38.6249 58.0734C38.3953 58.0734 37.477 58.0517 37.2911 58.0517C37.3348 62.6162 37.4114 68.8504 32.2512 73.4041L32.1418 73.3066C34.8641 68.7637 35.367 64.0365 35.367 59.6238C35.367 58.2252 35.3014 54.6906 34.9078 52.6306L37.3239 53.8449H48.3768L49.2732 53.2053C49.5028 53.0426 49.5247 53.0426 49.6449 53.0426C49.7652 53.0426 49.8308 53.1077 49.9839 53.2486L51.2302 54.322C51.3176 54.3871 51.3723 54.5063 51.3723 54.6147C51.3723 54.8424 51.2848 54.8858 50.4321 55.2978C50.3665 56.0025 50.2462 57.1735 50.2462 59.0492C50.2462 66.1508 51.4926 69.6961 52.1376 69.6961C52.4328 69.6961 53.5916 67.4843 53.7993 67.0723L53.8868 67.1157C53.5807 69.7829 53.537 70.7695 53.537 71.0731C53.537 71.3044 53.6208 71.5718 53.7884 71.8754C53.8759 72.038 53.9305 72.2657 53.9305 72.4717C53.9305 73.068 53.5151 73.1981 53.1215 73.1981C52.3344 73.1981 50.8913 72.4934 49.8527 69.8588C48.4752 66.411 48.4752 60.3285 48.4752 58.1818C48.4752 56.6314 48.5189 55.9158 48.6173 54.3871H37.2583C37.2583 54.8424 37.2802 57.1301 37.302 57.8348C41.6313 56.8807 44.5831 55.5472 45.25 55.1135L47.0211 56.2519C47.1086 56.317 47.207 56.3928 47.207 56.5013C47.207 56.7723 46.9555 56.8157 46.3542 56.8916C45.8951 56.935 43.9381 57.4662 43.5227 57.553V59.8623H45.2282L45.8732 59.0817C46.0153 58.9191 46.0809 58.8757 46.1684 58.8757C46.2777 58.8757 46.3761 58.9191 46.562 59.0817L47.535 59.884C47.6224 59.9491 47.7864 60.09 47.7864 60.1767C47.7864 60.3611 47.6989 60.4044 47.0211 60.8381C47.043 61.5862 47.1851 65.4569 47.1851 65.5653C47.1851 66.27 46.6057 66.5953 45.9716 66.5953C45.4468 66.5953 45.425 66.1833 45.425 65.9556V65.2942H43.5336V68.8396C44.1568 68.7529 44.8455 68.6553 45.425 68.5686C45.1954 68.0915 44.9439 67.7012 44.1568 66.7688L44.2442 66.682L44.2224 66.6929ZM41.9047 60.437H40.0789V64.7738H41.9047V60.437ZM43.5118 64.7738H45.4031V60.437H43.5118V64.7738Z" fill="#2C766B"/>
<path d="M79.1192 61.0007H61.802C60.3917 61.0007 59.8888 61.0658 59.3094 61.1634L58.9377 60.3177C60.348 60.4586 61.9551 60.4586 62.2065 60.4586H68.0992C68.0992 59.3419 68.0992 59.2443 68.0117 58.583H64.6007C64.6007 58.9299 64.6226 59.9274 63.3544 59.9274C62.6001 59.9274 62.6001 59.4286 62.6001 59.0817C62.6001 58.4637 62.6875 55.7532 62.6875 55.2002C62.6875 53.6064 62.6001 53.1944 62.458 52.4572L64.6663 53.5305H73.6201L74.0574 53.0101C74.2433 52.8041 74.3745 52.7391 74.4948 52.7391C74.6587 52.7391 74.7681 52.8366 74.9539 53.0101L75.8067 53.8124C75.9488 53.9534 76.0581 54.0618 76.0581 54.2461C76.0581 54.3545 75.8504 54.5388 75.5333 54.8424V56.8048C75.5333 57.0759 75.5989 58.2902 75.5989 58.5396C75.5989 59.4286 74.7243 59.678 74.3526 59.678C73.5436 59.678 73.5655 58.995 73.5873 58.583H69.0503L70.3622 58.854C70.5918 58.8974 70.6902 58.995 70.6902 59.1034C70.6902 59.3744 70.2966 59.5804 70.0233 59.7431V60.4478H76.1784L76.9874 59.2769C77.053 59.1901 77.1951 59.0058 77.3263 59.0058C77.4466 59.0058 77.5121 59.0492 77.7636 59.2335L79.2176 60.3827C79.2176 60.3827 79.4472 60.5887 79.4472 60.7405C79.4472 60.9682 79.2395 60.9899 79.0974 60.9899M75.3912 63.7221C75.3694 64.5028 75.4131 65.7388 75.3912 66.5085C75.3694 67.2133 74.7899 67.5819 74.287 67.5819C73.3905 67.5819 73.4124 66.9205 73.4343 66.4435H70.2529C70.231 67.1049 70.3185 69.978 70.3185 70.5743C70.3185 72.45 69.8593 72.9705 67.7165 73.5017C67.5525 72.591 67.3667 72.1356 65.5956 70.8562V70.7695C66.2188 70.8346 67.3448 70.9321 67.968 70.9321C68.3834 70.9321 68.3834 70.7044 68.3834 69.6311V66.4543H64.8194C64.8194 66.7688 64.8194 66.8663 64.7757 67.029L66.7326 68.33C66.8201 68.3951 66.9841 68.5577 66.9841 68.6987C66.9841 68.9914 66.7545 69.0456 66.1313 69.1757C64.9615 70.2491 62.6985 72.1464 59.4515 72.8295L59.364 72.7428C61.7801 71.3224 64.4805 68.059 64.6882 67.1916C64.3821 67.5819 63.748 67.5819 63.6277 67.5819C62.939 67.5819 62.8625 67.1699 62.8625 66.7579C62.8625 66.4869 62.9062 65.2725 62.9062 65.0232C62.9062 64.0149 62.8843 62.7572 62.7641 61.7814L65.0162 62.8331H73.3359L73.8716 62.2151C74.0793 61.9874 74.1668 61.9657 74.2652 61.9657C74.4073 61.9657 74.5166 62.0308 74.6806 62.15L75.6973 62.8548C75.7848 62.9198 75.9269 63.0824 75.9269 63.2234C75.9269 63.4511 75.5552 63.6788 75.3912 63.7546M73.642 54.0835H64.5898V55.7315H73.642V54.0835ZM73.642 56.2736H64.5898V58.03H73.642V56.2736ZM73.4562 63.3535H64.7975V65.8905H73.4562V63.3535ZM77.2279 72.8837C76.6266 72.8837 76.5173 72.7211 75.5005 71.355C74.6259 70.184 73.7076 69.0239 72.4832 68.1999L72.5815 68.0915C76.7469 68.8938 78.343 70.531 78.343 71.7453C78.343 72.4067 77.8073 72.8837 77.2388 72.8837" fill="#2C766B"/>
<path d="M79.1192 61.0007H61.802C60.3917 61.0007 59.8888 61.0658 59.3094 61.1634L58.9377 60.3177C60.348 60.4586 61.9551 60.4586 62.2065 60.4586H68.0992C68.0992 59.3419 68.0992 59.2443 68.0117 58.583H64.6007C64.6007 58.9299 64.6226 59.9274 63.3544 59.9274C62.6001 59.9274 62.6001 59.4286 62.6001 59.0817C62.6001 58.4637 62.6875 55.7532 62.6875 55.2002C62.6875 53.6064 62.6001 53.1944 62.458 52.4572L64.6663 53.5305H73.6201L74.0574 53.0101C74.2433 52.8041 74.3745 52.7391 74.4948 52.7391C74.6587 52.7391 74.7681 52.8366 74.9539 53.0101L75.8067 53.8124C75.9488 53.9534 76.0581 54.0618 76.0581 54.2461C76.0581 54.3545 75.8504 54.5388 75.5333 54.8424V56.8048C75.5333 57.0759 75.5989 58.2902 75.5989 58.5396C75.5989 59.4286 74.7243 59.678 74.3526 59.678C73.5436 59.678 73.5655 58.995 73.5873 58.583H69.0503L70.3622 58.854C70.5918 58.8974 70.6902 58.995 70.6902 59.1034C70.6902 59.3744 70.2966 59.5804 70.0233 59.7431V60.4478H76.1784L76.9874 59.2769C77.053 59.1901 77.1951 59.0058 77.3263 59.0058C77.4466 59.0058 77.5121 59.0492 77.7636 59.2335L79.2176 60.3827C79.2176 60.3827 79.4472 60.5887 79.4472 60.7405C79.4472 60.9682 79.2395 60.9899 79.0974 60.9899L79.1192 61.0007ZM75.3912 63.7221C75.3694 64.5028 75.4131 65.7388 75.3912 66.5085C75.3694 67.2133 74.7899 67.5819 74.287 67.5819C73.3905 67.5819 73.4124 66.9205 73.4343 66.4435H70.2529C70.231 67.1049 70.3185 69.978 70.3185 70.5743C70.3185 72.45 69.8593 72.9705 67.7165 73.5017C67.5525 72.591 67.3667 72.1356 65.5956 70.8562V70.7695C66.2188 70.8346 67.3448 70.9321 67.968 70.9321C68.3834 70.9321 68.3834 70.7044 68.3834 69.6311V66.4543H64.8194C64.8194 66.7688 64.8194 66.8663 64.7757 67.029L66.7326 68.33C66.8201 68.3951 66.9841 68.5577 66.9841 68.6987C66.9841 68.9914 66.7545 69.0456 66.1313 69.1757C64.9615 70.2491 62.6985 72.1464 59.4515 72.8295L59.364 72.7428C61.7801 71.3224 64.4805 68.059 64.6882 67.1916C64.3821 67.5819 63.748 67.5819 63.6277 67.5819C62.939 67.5819 62.8625 67.1699 62.8625 66.7579C62.8625 66.4869 62.9062 65.2725 62.9062 65.0232C62.9062 64.0149 62.8843 62.7572 62.7641 61.7814L65.0162 62.8331H73.3359L73.8716 62.2151C74.0793 61.9874 74.1668 61.9657 74.2652 61.9657C74.4073 61.9657 74.5166 62.0308 74.6806 62.15L75.6973 62.8548C75.7848 62.9198 75.9269 63.0824 75.9269 63.2234C75.9269 63.4511 75.5552 63.6788 75.3912 63.7546V63.7221ZM73.642 54.0835H64.5898V55.7315H73.642V54.0835ZM73.642 56.2736H64.5898V58.03H73.642V56.2736ZM73.4562 63.3535H64.7975V65.8905H73.4562V63.3535ZM77.2279 72.8837C76.6266 72.8837 76.5173 72.7211 75.5005 71.355C74.6259 70.184 73.7076 69.0239 72.4832 68.1999L72.5815 68.0915C76.7469 68.8938 78.343 70.531 78.343 71.7453C78.343 72.4067 77.8073 72.8837 77.2388 72.8837H77.2279Z" fill="#2C766B"/>
<path d="M106.068 68.5035C105.193 68.5035 101.258 66.064 99.3664 64.2968C98.6995 63.6788 95.1246 60.3719 94.4577 59.7322C94.3593 59.6346 94.0204 59.3636 93.5612 59.3636C92.621 59.3636 90.9155 61.4886 90.0628 62.562C88.6306 64.3618 88.4775 64.5461 87.92 64.5461C87.5045 64.5461 85.6132 64.0257 85.6132 62.4427C85.6132 62.2367 85.6569 62.1175 85.7772 61.8898C86.0068 62.0524 86.4222 62.3235 87.0672 62.3235C88.0402 62.3235 90.0628 60.3827 90.9592 59.5154C92.2712 58.236 92.9599 57.9107 93.6268 57.9107C94.5014 57.9107 95.059 58.3661 95.8571 59.1684C99.6397 62.8439 101.684 63.8739 104.975 65.5002C106.035 66.0315 106.888 66.5953 106.888 67.5819C106.888 67.853 106.888 68.4927 106.057 68.4927" fill="#2C766B"/>
<path d="M106.068 68.5035C105.193 68.5035 101.258 66.064 99.3664 64.2968C98.6995 63.6788 95.1246 60.3719 94.4577 59.7322C94.3593 59.6346 94.0204 59.3636 93.5612 59.3636C92.621 59.3636 90.9155 61.4886 90.0628 62.562C88.6306 64.3618 88.4775 64.5461 87.92 64.5461C87.5045 64.5461 85.6132 64.0257 85.6132 62.4427C85.6132 62.2367 85.6569 62.1175 85.7772 61.8898C86.0068 62.0524 86.4222 62.3235 87.0672 62.3235C88.0402 62.3235 90.0628 60.3827 90.9592 59.5154C92.2712 58.236 92.9599 57.9107 93.6268 57.9107C94.5014 57.9107 95.059 58.3661 95.8571 59.1684C99.6397 62.8439 101.684 63.8739 104.975 65.5002C106.035 66.0315 106.888 66.5953 106.888 67.5819C106.888 67.853 106.888 68.4927 106.057 68.4927L106.068 68.5035Z" fill="#2C766B"/>
<path d="M122.073 70.943C123.757 70.3033 129.3 68.1349 129.3 62.5403C129.3 59.3636 127.223 56.4145 122.664 56.4145C121.975 56.4145 121.516 56.4796 121.21 56.5338C122.751 57.1952 123.189 58.1601 123.189 58.4962C123.189 58.8215 121.483 62.5403 120.215 64.8931C117.821 69.3709 117.034 69.5335 116.388 69.5335C115.886 69.5335 115.634 69.1865 114.913 68.1891C114.596 67.7337 114.497 67.6687 113.994 67.235C113.305 66.6603 112.956 65.4569 112.956 64.5895C112.956 59.678 117.241 55.6773 122.839 55.6773C127.562 55.6773 131.432 58.377 131.432 62.8981C131.432 67.647 127.288 70.6611 122.062 71.1164V70.9538L122.073 70.943ZM114.683 64.1558C114.683 65.6195 115.372 67.5819 116.224 67.5819C116.957 67.5819 117.864 65.8905 118.345 65.0015C119.078 63.6029 121.133 59.472 121.133 58.1059C121.133 57.9433 121.111 57.3253 120.357 56.6639C117.219 57.3686 114.694 61.2067 114.694 64.1558" fill="#2C766B"/>
<path d="M122.073 70.943C123.757 70.3033 129.3 68.1349 129.3 62.5403C129.3 59.3636 127.223 56.4145 122.664 56.4145C121.975 56.4145 121.516 56.4796 121.21 56.5338C122.751 57.1952 123.189 58.1601 123.189 58.4962C123.189 58.8215 121.483 62.5403 120.215 64.8931C117.821 69.3709 117.034 69.5335 116.388 69.5335C115.886 69.5335 115.634 69.1865 114.913 68.1891C114.596 67.7337 114.497 67.6687 113.994 67.235C113.305 66.6603 112.956 65.4569 112.956 64.5895C112.956 59.678 117.241 55.6773 122.839 55.6773C127.562 55.6773 131.432 58.377 131.432 62.8981C131.432 67.647 127.288 70.6611 122.062 71.1164V70.9538L122.073 70.943ZM114.683 64.1558C114.683 65.6195 115.372 67.5819 116.224 67.5819C116.957 67.5819 117.864 65.8905 118.345 65.0015C119.078 63.6029 121.133 59.472 121.133 58.1059C121.133 57.9433 121.111 57.3253 120.357 56.6639C117.219 57.3686 114.694 61.2067 114.694 64.1558H114.683Z" fill="#2C766B"/>
<path d="M144.376 53.9967L144.999 53.3137C145.141 53.1511 145.272 53.0426 145.436 53.0426C145.524 53.0426 145.644 53.1077 145.71 53.1836L146.934 54.4196C147 54.4846 147.098 54.6039 147.098 54.734C147.098 54.94 147.033 54.9617 146.409 55.4387C146.409 56.3495 146.475 60.3502 146.475 61.1742C146.475 61.9549 145.557 62.2042 145.076 62.2042C144.496 62.2042 144.518 61.7489 144.54 61.0333H140.692C140.692 62.8656 140.714 70.8779 140.714 72.5259C140.714 73.3499 139.751 73.5342 139.423 73.5342C139.052 73.5342 138.636 73.3933 138.636 72.7753C138.636 72.45 138.822 68.3734 138.844 67.8855C138.942 64.8497 138.942 62.4536 138.942 61.3043C138.942 59.2226 138.942 54.5388 138.527 52.8583L141.009 53.9967H144.376ZM140.692 57.0976H144.54V54.5388H140.692V57.0976ZM140.692 60.4803H144.54V57.6397H140.692V60.4803ZM149.099 63.7763L149.678 63.18C149.908 62.9306 149.995 62.8331 150.137 62.8331C150.247 62.8331 150.345 62.9198 150.487 63.0174L151.57 63.8414C151.679 63.9281 151.799 64.004 151.799 64.1341C151.799 64.2642 151.362 64.6329 151.11 64.8389C151.11 65.5436 151.198 68.677 151.198 69.3167C151.198 70.0214 150.673 70.325 150.006 70.325C149.777 70.325 149.296 70.2816 149.296 69.772C149.296 69.6636 149.339 69.1323 149.339 69.0239H145.196C145.196 69.1649 145.218 69.7503 145.218 69.8696C145.174 70.4226 144.365 70.6502 143.971 70.6502C143.326 70.6502 143.326 70.1732 143.326 69.9889C143.326 69.5985 143.469 66.5411 143.469 65.9014C143.469 63.9823 143.381 63.3643 143.261 62.6813L145.611 63.7763H149.121H149.099ZM145.174 68.4818H149.317V64.3184H145.174V68.4818ZM154.237 53.9967L155.046 53.2378C155.21 53.0752 155.276 52.9884 155.462 52.9884C155.571 52.9884 155.669 53.0752 155.779 53.1727L157.025 54.3328C157.112 54.4196 157.211 54.5605 157.211 54.7015C157.211 54.8858 156.631 55.4387 156.456 55.5905C156.456 57.0108 156.478 71.2574 156.456 71.4417C156.314 72.7211 154.915 73.2957 153.745 73.48C153.603 72.45 152.685 71.5827 151.69 70.9863V70.802C152.291 70.8454 153.188 70.8888 153.767 70.8888C154.685 70.8888 154.685 70.6177 154.685 69.8804V61.0116H150.837C150.936 61.7922 150.236 62.085 149.547 62.085C149.132 62.085 148.946 61.8139 148.946 61.4453C148.946 60.6972 149.055 57.4012 149.055 56.7181C149.055 55.4387 149.055 53.9967 148.826 52.9017L151.132 53.9751H154.248L154.237 53.9967ZM150.793 57.0976H154.664V54.5388H150.793V57.0976ZM150.793 60.4803H154.664V57.6397H150.793V60.4803Z" fill="#2C766B"/>
<path d="M144.376 53.9967L144.999 53.3137C145.141 53.1511 145.272 53.0426 145.436 53.0426C145.524 53.0426 145.644 53.1077 145.71 53.1836L146.934 54.4196C147 54.4846 147.098 54.6039 147.098 54.734C147.098 54.94 147.033 54.9617 146.409 55.4387C146.409 56.3495 146.475 60.3502 146.475 61.1742C146.475 61.9549 145.557 62.2042 145.076 62.2042C144.496 62.2042 144.518 61.7489 144.54 61.0333H140.692C140.692 62.8656 140.714 70.8779 140.714 72.5259C140.714 73.3499 139.751 73.5342 139.423 73.5342C139.052 73.5342 138.636 73.3933 138.636 72.7753C138.636 72.45 138.822 68.3734 138.844 67.8855C138.942 64.8497 138.942 62.4536 138.942 61.3043C138.942 59.2226 138.942 54.5388 138.527 52.8583L141.009 53.9967H144.376ZM140.692 57.0976H144.54V54.5388H140.692V57.0976ZM140.692 60.4803H144.54V57.6397H140.692V60.4803ZM149.099 63.7763L149.678 63.18C149.908 62.9306 149.995 62.8331 150.137 62.8331C150.247 62.8331 150.345 62.9198 150.487 63.0174L151.57 63.8414C151.679 63.9281 151.799 64.004 151.799 64.1341C151.799 64.2642 151.362 64.6329 151.11 64.8389C151.11 65.5436 151.198 68.677 151.198 69.3167C151.198 70.0214 150.673 70.325 150.006 70.325C149.777 70.325 149.296 70.2816 149.296 69.772C149.296 69.6636 149.339 69.1323 149.339 69.0239H145.196C145.196 69.1649 145.218 69.7503 145.218 69.8696C145.174 70.4226 144.365 70.6502 143.971 70.6502C143.326 70.6502 143.326 70.1732 143.326 69.9889C143.326 69.5985 143.469 66.5411 143.469 65.9014C143.469 63.9823 143.381 63.3643 143.261 62.6813L145.611 63.7763H149.121H149.099ZM145.174 68.4818H149.317V64.3184H145.174V68.4818ZM154.237 53.9967L155.046 53.2378C155.21 53.0752 155.276 52.9884 155.462 52.9884C155.571 52.9884 155.669 53.0752 155.779 53.1727L157.025 54.3328C157.112 54.4196 157.211 54.5605 157.211 54.7015C157.211 54.8858 156.631 55.4387 156.456 55.5905C156.456 57.0108 156.478 71.2574 156.456 71.4417C156.314 72.7211 154.915 73.2957 153.745 73.48C153.603 72.45 152.685 71.5827 151.69 70.9863V70.802C152.291 70.8454 153.188 70.8888 153.767 70.8888C154.685 70.8888 154.685 70.6177 154.685 69.8804V61.0116H150.837C150.936 61.7922 150.236 62.085 149.547 62.085C149.132 62.085 148.946 61.8139 148.946 61.4453C148.946 60.6972 149.055 57.4012 149.055 56.7181C149.055 55.4387 149.055 53.9967 148.826 52.9017L151.132 53.9751H154.248L154.237 53.9967ZM150.793 57.0976H154.664V54.5388H150.793V57.0976ZM150.793 60.4803H154.664V57.6397H150.793V60.4803Z" fill="#2C766B"/>
<path d="M171.412 64.8172C171.205 65.3159 170.1 67.647 170.1 68.0373C170.1 68.2433 170.33 69.2299 170.33 69.4359C170.33 70.119 169.893 70.4442 169.455 70.4442C168.832 70.4442 165.268 69.3058 164.896 62.4536C164.875 61.9549 164.809 59.7539 164.732 59.3202C164.568 58.1059 164.295 57.5638 163.792 56.5555C164.94 56.6205 167.017 57.3795 167.017 59.2985C167.017 59.4395 166.995 59.5696 166.952 59.819C166.908 60.1334 166.493 62.4644 166.493 63.5161C166.493 65.8905 167.848 67.3542 168.329 67.3542C168.537 67.3542 168.745 67.0615 168.887 66.8772C170.133 65.0991 171.401 63.3101 172.571 61.4453L172.735 61.5103C172.615 61.7814 172.506 62.1066 171.423 64.8172M181.131 66.6929C180.738 66.6929 180.399 66.3242 179.754 65.5761C179.612 65.4352 178.978 64.9148 177.403 64.5895V64.4702C177.545 64.4485 179.338 64.3618 179.404 64.3293C179.612 64.2859 179.819 64.0799 179.819 63.733C179.819 63.3426 179.448 62.0199 178.573 60.7405C177.655 59.4178 176.496 58.5504 175.949 58.1601C178.3 57.9107 182.148 61.1092 182.148 64.8063C182.148 65.858 181.645 66.682 181.131 66.682" fill="#2C766B"/>
<path d="M171.412 64.8172C171.205 65.3159 170.1 67.647 170.1 68.0373C170.1 68.2433 170.33 69.2299 170.33 69.4359C170.33 70.119 169.893 70.4442 169.455 70.4442C168.832 70.4442 165.268 69.3058 164.896 62.4536C164.875 61.9549 164.809 59.7539 164.732 59.3202C164.568 58.1059 164.295 57.5638 163.792 56.5555C164.94 56.6205 167.017 57.3795 167.017 59.2985C167.017 59.4395 166.995 59.5696 166.952 59.819C166.908 60.1334 166.493 62.4644 166.493 63.5161C166.493 65.8905 167.848 67.3542 168.329 67.3542C168.537 67.3542 168.745 67.0615 168.887 66.8772C170.133 65.0991 171.401 63.3101 172.571 61.4453L172.735 61.5103C172.615 61.7814 172.506 62.1066 171.423 64.8172H171.412ZM181.131 66.6929C180.738 66.6929 180.399 66.3242 179.754 65.5761C179.612 65.4352 178.978 64.9148 177.403 64.5895V64.4702C177.545 64.4485 179.338 64.3618 179.404 64.3293C179.612 64.2859 179.819 64.0799 179.819 63.733C179.819 63.3426 179.448 62.0199 178.573 60.7405C177.655 59.4178 176.496 58.5504 175.949 58.1601C178.3 57.9107 182.148 61.1092 182.148 64.8063C182.148 65.858 181.645 66.682 181.131 66.682V66.6929Z" fill="#2C766B"/>
<path d="M197.487 71.0839C196.776 71.8429 195.945 72.244 195.344 72.244C194.611 72.244 194.589 71.767 194.589 71.0514C194.568 70.8237 194.568 70.5527 194.13 69.772C193.671 68.9263 193.441 68.536 193.113 68.0156V67.9505C193.299 68.0698 195.398 69.3925 195.814 69.3925C196.109 69.3925 196.371 69.2516 196.546 68.9589C197.902 66.7904 198.339 63.2668 198.339 62.291C198.339 59.9165 197.465 59.8732 196.699 59.8732C196.284 59.8732 195.912 59.9165 195.683 59.9599C194.305 63.0933 192.37 67.2241 190.938 69.8262C190.315 70.9213 189.954 71.5827 189.276 71.5827C188.861 71.5827 188.402 71.1923 188.402 70.4225C188.402 69.7612 188.544 69.5985 189.44 68.4601C190.271 67.4084 192.162 64.6871 193.933 60.4153C192.873 60.8273 191.812 61.4019 190.916 61.9006C190.205 62.3126 189.998 62.3777 189.746 62.3777C189.079 62.3777 187.811 61.2826 187.811 60.2526C187.811 59.7539 188.019 59.4286 188.227 59.1359C188.73 60.1442 189.211 60.2093 189.681 60.2093C190.216 60.2093 190.676 60.1225 191.113 60.025C191.648 59.9057 193.944 59.3636 194.425 59.2443C194.611 58.789 195.3 57.0325 195.3 56.0242C195.3 55.0159 194.699 54.7448 193.715 54.2244C194.524 53.8341 195.005 53.7907 195.191 53.7907C195.879 53.7907 197.705 54.9508 197.705 55.5688C197.705 55.9592 197.64 56.1001 196.874 57.347C196.667 57.7156 196.35 58.4203 196.142 58.9191C196.306 58.9191 196.645 58.8757 197.016 58.8757C198.809 58.8757 199.892 59.7864 199.892 62.7789C199.892 64.6112 199.181 69.3167 197.497 71.0731M206.91 65.6629C206.637 65.6629 206.539 65.5978 205.762 65.0232C204.822 64.3184 202.789 64.0908 202.494 64.0365V63.8739C202.909 63.7655 204.91 63.321 205.03 63.2559C205.172 63.1909 205.216 63.0065 205.216 62.8439C205.216 62.5945 204.385 60.6972 201.138 58.5721C201.991 58.7564 203.051 58.9624 204.341 59.6021C206.233 60.5345 207.676 62.5078 207.676 64.5136C207.676 65.2725 207.304 65.652 206.91 65.652" fill="#2C766B"/>
<path d="M197.487 71.0839C196.776 71.8429 195.945 72.244 195.344 72.244C194.611 72.244 194.589 71.767 194.589 71.0514C194.568 70.8237 194.568 70.5527 194.13 69.772C193.671 68.9263 193.441 68.536 193.113 68.0156V67.9505C193.299 68.0698 195.398 69.3925 195.814 69.3925C196.109 69.3925 196.371 69.2516 196.546 68.9589C197.902 66.7904 198.339 63.2668 198.339 62.291C198.339 59.9165 197.465 59.8732 196.699 59.8732C196.284 59.8732 195.912 59.9165 195.683 59.9599C194.305 63.0933 192.37 67.2241 190.938 69.8262C190.315 70.9213 189.954 71.5827 189.276 71.5827C188.861 71.5827 188.402 71.1923 188.402 70.4225C188.402 69.7612 188.544 69.5985 189.44 68.4601C190.271 67.4084 192.162 64.6871 193.933 60.4153C192.873 60.8273 191.812 61.4019 190.916 61.9006C190.205 62.3126 189.998 62.3777 189.746 62.3777C189.079 62.3777 187.811 61.2826 187.811 60.2526C187.811 59.7539 188.019 59.4286 188.227 59.1359C188.73 60.1442 189.211 60.2093 189.681 60.2093C190.216 60.2093 190.676 60.1225 191.113 60.025C191.648 59.9057 193.944 59.3636 194.425 59.2443C194.611 58.789 195.3 57.0325 195.3 56.0242C195.3 55.0159 194.699 54.7448 193.715 54.2244C194.524 53.8341 195.005 53.7907 195.191 53.7907C195.879 53.7907 197.705 54.9508 197.705 55.5688C197.705 55.9592 197.64 56.1001 196.874 57.347C196.667 57.7156 196.35 58.4203 196.142 58.9191C196.306 58.9191 196.645 58.8757 197.016 58.8757C198.809 58.8757 199.892 59.7864 199.892 62.7789C199.892 64.6112 199.181 69.3167 197.497 71.0731L197.487 71.0839ZM206.91 65.6629C206.637 65.6629 206.539 65.5978 205.762 65.0232C204.822 64.3184 202.789 64.0908 202.494 64.0365V63.8739C202.909 63.7655 204.91 63.321 205.03 63.2559C205.172 63.1909 205.216 63.0065 205.216 62.8439C205.216 62.5945 204.385 60.6972 201.138 58.5721C201.991 58.7564 203.051 58.9624 204.341 59.6021C206.233 60.5345 207.676 62.5078 207.676 64.5136C207.676 65.2725 207.304 65.652 206.91 65.652V65.6629Z" fill="#2C766B"/>
<path d="M216.772 68.5252C216.772 68.6661 216.815 69.3058 216.815 69.4359C216.815 70.0322 216.542 70.5093 215.897 70.5093C215.132 70.5093 213.732 69.4793 213.732 65.2292C213.732 64.5244 213.798 62.562 214.104 60.6646C214.585 57.6939 214.662 57.3795 214.662 56.7832C214.662 55.7098 214.432 55.3412 213.951 54.5714C216.006 54.4629 216.783 56.4254 216.783 57.0434C216.783 57.6614 215.744 60.1225 215.58 60.6321C215.022 62.3018 215.001 63.6462 215.001 64.2425C215.001 64.7738 215.099 66.7579 215.503 66.7579C215.711 66.7579 216.127 65.8255 216.291 65.4785C216.837 64.2642 217.253 63.3969 217.974 61.6621H218.084C217.832 62.8222 216.772 67.7879 216.772 68.536M230.798 59.6346C230.295 59.7431 228.087 60.1117 227.617 60.2093C227.759 62.5837 227.803 63.7546 227.803 64.6437C227.803 67.7988 226.994 71.2466 221.746 73.4367L221.604 73.274C225.102 70.6936 225.999 67.9722 225.999 62.497C225.999 61.532 225.977 60.9249 225.955 60.4912C225.31 60.5779 224.435 60.6972 223.648 60.6972C222.774 60.6972 221.09 60.5345 220.194 59.0058C220.817 59.1684 221.232 59.2335 221.713 59.2335C221.855 59.2335 223.648 59.2335 225.878 58.8648C225.813 57.8782 225.693 55.6664 225.19 55.0484C224.916 54.7232 224.129 54.322 223.441 54.2895C223.736 53.8558 224.359 53.3354 225.026 53.3354C225.583 53.3354 226.524 53.5631 227.19 54.0835C227.518 54.3545 227.562 54.6364 227.562 55.0701C227.562 55.3412 227.497 56.5772 227.497 56.8265C227.497 57.1735 227.497 57.7156 227.54 58.5396C228.535 58.3336 228.666 58.2902 230.077 57.8132C230.284 57.7481 230.426 57.7481 230.514 57.7481C230.995 57.7481 231.99 58.1384 231.99 58.7998C231.99 59.4612 231.017 59.6238 230.787 59.6455" fill="#2C766B"/>
<path d="M216.772 68.5252C216.772 68.6661 216.815 69.3058 216.815 69.4359C216.815 70.0322 216.542 70.5093 215.897 70.5093C215.132 70.5093 213.732 69.4793 213.732 65.2292C213.732 64.5244 213.798 62.562 214.104 60.6646C214.585 57.6939 214.662 57.3795 214.662 56.7832C214.662 55.7098 214.432 55.3412 213.951 54.5714C216.006 54.4629 216.783 56.4254 216.783 57.0434C216.783 57.6614 215.744 60.1225 215.58 60.6321C215.022 62.3018 215.001 63.6462 215.001 64.2425C215.001 64.7738 215.099 66.7579 215.503 66.7579C215.711 66.7579 216.127 65.8255 216.291 65.4785C216.837 64.2642 217.253 63.3969 217.974 61.6621H218.084C217.832 62.8222 216.772 67.7879 216.772 68.536V68.5252ZM230.798 59.6346C230.295 59.7431 228.087 60.1117 227.617 60.2093C227.759 62.5837 227.803 63.7546 227.803 64.6437C227.803 67.7988 226.994 71.2466 221.746 73.4367L221.604 73.274C225.102 70.6936 225.999 67.9722 225.999 62.497C225.999 61.532 225.977 60.9249 225.955 60.4912C225.31 60.5779 224.435 60.6972 223.648 60.6972C222.774 60.6972 221.09 60.5345 220.194 59.0058C220.817 59.1684 221.232 59.2335 221.713 59.2335C221.855 59.2335 223.648 59.2335 225.878 58.8648C225.813 57.8782 225.693 55.6664 225.19 55.0484C224.916 54.7232 224.129 54.322 223.441 54.2895C223.736 53.8558 224.359 53.3354 225.026 53.3354C225.583 53.3354 226.524 53.5631 227.19 54.0835C227.518 54.3545 227.562 54.6364 227.562 55.0701C227.562 55.3412 227.497 56.5772 227.497 56.8265C227.497 57.1735 227.497 57.7156 227.54 58.5396C228.535 58.3336 228.666 58.2902 230.077 57.8132C230.284 57.7481 230.426 57.7481 230.514 57.7481C230.995 57.7481 231.99 58.1384 231.99 58.7998C231.99 59.4612 231.017 59.6238 230.787 59.6455L230.798 59.6346Z" fill="#2C766B"/>
</svg>
