<svg width="331" height="76" viewBox="0 0 331 76" fill="none" xmlns="http://www.w3.org/2000/svg">
<path d="M15.901 68.417C18.4303 68.417 20.0772 68.0837 21.0576 67.221C22.0967 66.2799 22.4889 65.574 22.8026 64.9662C23.1947 64.8094 23.7829 64.9662 24.0182 65.2996C23.3123 68.0445 22.3124 70.8875 21.4889 71.9854C19.2342 71.8678 16.9402 71.8286 14.4109 71.8286H6.47022C3.39197 71.8286 1.58814 71.8874 0.392135 72.005C0.274495 71.9462 0 71.7305 0 71.2992C0 71.1423 0.274509 70.9071 0.607822 70.6914C3.13708 69.0444 4.94089 67.1818 8.99948 62.7703C12.6071 58.8882 16.8421 53.5748 16.8421 47.7124C16.8421 42.7323 14.4305 39.7128 9.9798 39.7128C6.68588 39.7128 4.33309 41.9676 2.86259 45.1831C2.37243 45.4576 1.54892 45.1831 1.54892 44.4773C3.31352 39.654 7.627 36.7718 12.5679 36.7718C18.0578 36.7718 21.6066 40.4383 21.6066 45.6929C21.6066 49.0848 20.0184 52.8101 15.7442 57.7314L12.3914 61.5743C7.90148 66.7112 7.41133 67.5935 7.41133 67.9268C7.41133 68.319 7.68582 68.417 9.1171 68.417H15.9206H15.901Z" fill="#2C766B"/>
<path d="M33.7627 72.4168C33.0569 72.4168 32.4491 72.1619 31.9197 71.6717C31.4099 71.1619 31.155 70.5737 31.155 69.8483C31.155 69.1228 31.4099 68.5543 31.9393 68.0053C32.4687 67.4563 33.0765 67.2014 33.7627 67.2014C34.4489 67.2014 35.0567 67.4563 35.5861 67.9857C36.1155 68.515 36.3704 69.1228 36.3704 69.8483C36.3704 70.5737 36.1155 71.1619 35.6057 71.6717C35.096 72.1619 34.4882 72.4168 33.7627 72.4168Z" fill="#2C766B"/>
<path d="M51.9773 40.9088C48.9187 40.9088 47.7031 41.0657 46.1149 43.693C45.7228 43.8498 45.1934 43.7518 44.9581 43.2616C45.5071 41.7911 46.3306 39.4187 46.8208 37.3404C47.7031 37.4581 49.6049 37.4973 52.6243 37.4973H61.8787C64.8981 37.4973 68.5646 37.4973 69.2116 37.3208C69.4273 37.3796 69.6037 37.5953 69.6037 37.811C68.0744 40.1638 66.4863 43.0656 64.4472 47.2026L50.4872 75.3186C49.6049 75.4362 48.7814 74.9853 48.6246 74.2794L64.1139 42.9479C64.9373 41.301 64.6628 40.9284 62.8982 40.9284H51.9381L51.9773 40.9088Z" fill="#2C766B"/>
<path d="M77.0347 71.3776L76.5641 67.9268H77.1131C77.3287 68.8876 77.7601 69.6915 78.3679 70.3385C79.0541 71.0639 79.8776 71.4168 80.7991 71.4168C81.7206 71.4168 82.5049 71.1227 83.1127 70.5345C83.7205 69.9463 84.0342 69.2013 84.0342 68.2602C84.0342 67.0642 83.4264 66.0838 82.2108 65.2996C81.0932 64.6329 79.9756 63.9859 78.858 63.3389C77.6424 62.4174 77.0347 61.1625 77.0347 59.5744C77.0347 58.1039 77.5052 56.9471 78.4659 56.1236C79.3874 55.3394 80.5835 54.9472 82.0736 54.9472C82.4265 54.9472 83.3872 55.0649 84.9557 55.3001L85.3283 58.3196H84.7793C84.5048 56.5746 83.5048 55.6923 81.7402 55.6923C80.8579 55.6923 80.1717 55.9668 79.6619 56.5354C79.1522 57.104 78.8973 57.8294 78.8973 58.7117C78.8973 59.9077 79.5247 60.9076 80.7991 61.6919C81.9559 62.3585 83.1323 63.0056 84.3087 63.6526C85.5635 64.5741 86.191 65.8093 86.191 67.3386C86.191 68.868 85.6224 69.9855 84.4656 70.8875C83.3872 71.7305 82.1128 72.1423 80.6423 72.1423C79.3874 72.1423 78.1718 71.8678 77.015 71.3384L77.0347 71.3776Z" fill="#2C766B"/>
<path d="M99.6215 70.4953L99.8372 70.9071C98.9157 71.7501 98.151 72.1815 97.504 72.1815C97.053 72.1815 96.6805 71.9854 96.4256 71.6129C96.21 71.2992 96.0727 70.9071 96.0531 70.4365C94.7787 71.6129 93.5631 72.1815 92.4063 72.1815C91.6612 72.1815 91.0534 71.9658 90.5632 71.5149C90.0731 71.0639 89.8378 70.5345 89.8574 69.8875C89.8966 68.9856 90.2887 68.2994 91.0338 67.8288C91.6416 67.4759 93.3082 66.8289 96.0139 65.8877V64.3388C96.0139 62.986 95.2492 62.2997 93.7199 62.2997C92.5631 62.2997 91.9553 62.8487 91.9357 63.9467C91.9357 64.2408 91.7788 64.4957 91.5043 64.6721C91.2299 64.8486 90.9358 64.9466 90.6221 64.9466C90.328 64.9466 90.1907 64.7898 90.1907 64.4761C90.1907 63.9075 90.426 63.4173 90.9162 62.986C91.2691 62.6919 91.9161 62.2801 92.8964 61.7703C93.2494 61.5939 93.5827 61.4174 93.9356 61.2214C94.2689 61.0841 94.6218 61.0057 95.014 61.0057C95.6414 61.0057 96.2492 61.1625 96.857 61.4958C97.5432 61.888 97.8961 62.3782 97.8961 62.986V69.5346C97.8961 70.4365 98.1706 70.8875 98.7392 70.8875C99.0921 70.8875 99.3862 70.7502 99.6215 70.4953ZM96.0139 69.6915V66.574C95.1512 66.8681 94.2885 67.1818 93.4062 67.4759C92.2886 68.0053 91.7397 68.6327 91.7397 69.3777C91.7397 69.8287 91.8965 70.2404 92.2298 70.5737C92.5631 70.9071 92.9553 71.0835 93.4062 71.0835C93.8964 71.0835 94.3669 70.9463 94.8179 70.6522C95.0532 70.5149 95.4453 70.2012 95.9943 69.7111L96.0139 69.6915Z" fill="#2C766B"/>
<path d="M105.798 62.6526V68.9072C105.798 70.2208 106.288 70.8875 107.288 70.8875C107.876 70.8875 108.425 70.6522 108.935 70.2012L109.288 70.5541C108.248 71.6325 107.19 72.1619 106.151 72.1619C104.66 72.1619 103.896 71.4364 103.896 69.9659V62.6526H102.347V62.2605C103.17 61.6135 103.7 61.1821 103.935 60.9665C104.445 60.4763 104.974 59.8097 105.523 58.9666H105.798V61.3782H109.327V62.6526H105.798Z" fill="#2C766B"/>
<path d="M117.366 72.4168C116.66 72.4168 116.052 72.1619 115.523 71.6717C115.013 71.1619 114.758 70.5737 114.758 69.8483C114.758 69.1228 115.013 68.5543 115.542 68.0053C116.072 67.4563 116.679 67.2014 117.366 67.2014C118.052 67.2014 118.66 67.4563 119.189 67.9857C119.718 68.515 119.973 69.1228 119.973 69.8483C119.973 70.5737 119.718 71.1619 119.209 71.6717C118.699 72.1619 118.091 72.4168 117.366 72.4168Z" fill="#2C766B"/>
<path d="M158.618 56.8687H127.914V54.4767H158.618V56.8687Z" fill="#2C766B"/>
<path d="M177.44 39.3207C177.715 38.4384 177.989 37.9482 178.872 37.8502L192.087 35.9876C192.42 35.9287 192.577 36.2621 192.577 36.4777C192.185 37.6933 191.361 39.0462 190.597 39.8697L180.244 41.3402C178.989 41.497 178.715 41.7715 178.382 42.8107L177.401 46.1046C177.186 46.7712 177.401 47.0457 178.166 47.0849L179.323 47.2026C186.165 47.8496 193.851 50.869 193.851 59.2019C193.851 68.6915 182.93 75.2598 174.225 75.5342C173.617 75.3186 173.578 74.2402 174.068 73.8481C182.577 73.3579 189.812 68.1425 189.812 60.6135C189.812 53.0846 181.538 50.8494 175.068 50.7318C174.245 50.7318 174.186 50.3004 174.578 49.0456L177.499 39.3011L177.44 39.3207Z" fill="#2C766B"/>
<path d="M201.968 72.4168C201.263 72.4168 200.655 72.1619 200.125 71.6717C199.616 71.1619 199.361 70.5737 199.361 69.8483C199.361 69.1228 199.616 68.5543 200.145 68.0053C200.674 67.4563 201.282 67.2014 201.968 67.2014C202.655 67.2014 203.262 67.4563 203.792 67.9857C204.321 68.515 204.576 69.1228 204.576 69.8483C204.576 70.5737 204.321 71.1619 203.811 71.6717C203.302 72.1619 202.694 72.4168 201.968 72.4168Z" fill="#2C766B"/>
<path d="M231.359 68.417C233.888 68.417 235.535 68.0837 236.515 67.221C237.555 66.2799 237.947 65.574 238.26 64.9662C238.652 64.8094 239.241 64.9662 239.476 65.2996C238.77 68.0445 237.77 70.8875 236.947 71.9854C234.692 71.8678 232.398 71.8286 229.869 71.8286H221.928C218.85 71.8286 217.046 71.8874 215.85 72.005C215.732 71.9462 215.458 71.7305 215.458 71.2992C215.458 71.1423 215.732 70.9071 216.066 70.6914C218.595 69.0444 220.399 67.1818 224.457 62.7703C228.065 58.8882 232.3 53.5748 232.3 47.7124C232.3 42.7323 229.888 39.7128 225.438 39.7128C222.144 39.7128 219.791 41.9676 218.32 45.1831C217.83 45.4576 217.007 45.1831 217.007 44.4773C218.771 39.654 223.085 36.7718 228.026 36.7718C233.516 36.7718 237.064 40.4383 237.064 45.6929C237.064 49.0848 235.476 52.8101 231.202 57.7314L227.849 61.5743C223.359 66.7112 222.869 67.5935 222.869 67.9268C222.869 68.319 223.144 68.417 224.575 68.417H231.378H231.359Z" fill="#2C766B"/>
<path d="M244.025 61.4566C243.535 61.4566 243.26 61.0645 243.26 60.5351C243.26 59.8881 243.476 59.5548 244.24 58.4568L261.808 33.8896C262.2 33.3995 262.514 33.125 263.063 33.125H264.004C264.553 33.125 264.827 33.2818 264.827 33.5563C264.827 33.7132 264.71 33.9485 264.553 34.1641L247.123 58.2804C246.476 59.1627 247.24 59.1627 248.652 59.1627H257.142C258.455 59.1627 258.671 59.0058 258.671 57.7314V47.6535C258.671 47.2614 258.73 46.8301 259.161 46.5556C259.828 46.1242 261.083 45.6733 261.965 45.6144C262.729 45.5556 262.729 46.2222 262.729 47.3202V57.9078C262.729 58.947 262.886 59.1627 263.827 59.1627H267.337C267.827 59.5352 267.827 60.9665 267.337 61.4566H264.376C263.004 61.4566 262.729 61.5155 262.729 62.6723V65.1427C262.729 69.4758 262.847 70.2012 265.082 70.4757L266.514 70.6326C266.847 70.9659 266.788 71.8286 266.396 72.005C264.416 71.8874 262.396 71.8286 260.69 71.8286C258.71 71.8286 256.259 71.907 253.848 72.005C253.456 71.8482 253.416 70.9659 253.73 70.6326L256.2 70.4757C258.494 70.3189 258.671 69.3777 258.671 65.1427V62.8291C258.671 61.5155 258.514 61.4566 257.083 61.4566H244.005H244.025Z" fill="#2C766B"/>
<path d="M283.042 71.3776L282.571 67.9268H283.12C283.336 68.8876 283.767 69.6915 284.375 70.3385C285.062 71.0639 285.885 71.4168 286.806 71.4168C287.728 71.4168 288.512 71.1227 289.12 70.5345C289.728 69.9463 290.042 69.2013 290.042 68.2602C290.042 67.0642 289.434 66.0838 288.218 65.2996C287.101 64.6329 285.983 63.9859 284.865 63.3389C283.65 62.4174 283.042 61.1625 283.042 59.5744C283.042 58.1039 283.513 56.9471 284.473 56.1236C285.395 55.3394 286.591 54.9472 288.081 54.9472C288.434 54.9472 289.395 55.0649 290.963 55.3001L291.336 58.3196H290.787C290.512 56.5746 289.512 55.6923 287.748 55.6923C286.865 55.6923 286.179 55.9668 285.669 56.5354C285.16 57.104 284.905 57.8294 284.905 58.7117C284.905 59.9077 285.532 60.9076 286.806 61.6919C287.963 62.3585 289.14 63.0056 290.316 63.6526C291.571 64.5741 292.198 65.8093 292.198 67.3386C292.198 68.868 291.63 69.9855 290.473 70.8875C289.395 71.7305 288.12 72.1423 286.65 72.1423C285.395 72.1423 284.179 71.8678 283.022 71.3384L283.042 71.3776Z" fill="#2C766B"/>
<path d="M304.825 61.8096V70.5149C304.825 70.809 305.041 70.9659 305.492 70.9659C305.59 70.9659 305.747 70.9463 305.962 70.8875H306.433V71.3972C305.413 71.4953 304.276 71.7501 303.041 72.1619L302.923 72.0835V70.162C302.08 70.8482 301.414 71.3384 300.943 71.5737C300.237 71.9462 299.492 72.1423 298.747 72.1423C298.041 72.1423 297.453 71.9266 296.963 71.4757C296.414 70.9659 296.139 70.26 296.139 69.3189V63.2605C296.139 62.4566 295.669 62.0252 294.728 61.9272V61.4762C295.041 61.4762 295.61 61.437 296.453 61.3782C297.237 61.339 297.688 61.2998 297.767 61.2998C297.943 61.2998 298.022 61.5351 298.022 61.986V68.0837C298.022 69.9071 298.708 70.8286 300.08 70.8286C300.825 70.8286 301.786 70.3385 302.943 69.3777V63.0252C302.943 62.7507 302.276 62.4174 300.963 62.0644V61.6331C301.786 61.5743 302.649 61.4959 303.511 61.437C304.237 61.3586 304.609 61.3194 304.649 61.3194C304.766 61.3194 304.845 61.4566 304.845 61.7507L304.825 61.8096Z" fill="#2C766B"/>
<path d="M309.962 70.4169V64.1428C309.962 63.7114 309.884 63.4173 309.707 63.2212C309.531 63.0252 309.158 62.8095 308.609 62.5742V62.1233C309.276 61.9076 310.315 61.5155 311.727 60.9861C311.825 60.9861 311.864 61.0645 311.864 61.2214V62.7507C312.707 62.1429 313.374 61.7115 313.825 61.4958C314.53 61.1429 315.236 60.9665 315.962 60.9665C317.785 60.9665 318.687 62.0644 318.687 64.28V70.3777C318.687 70.7306 318.805 70.9463 319.04 71.0639C319.177 71.1227 319.452 71.1619 319.863 71.1619H320.295V71.7697H315.236V71.1619H315.668C316.079 71.1619 316.354 71.1227 316.491 71.0639C316.687 70.9463 316.805 70.7306 316.805 70.3777V64.2604C316.805 62.9271 316.079 62.2605 314.628 62.2605C313.942 62.2605 313.021 62.633 311.883 63.3977V70.3973C311.883 70.7502 312.001 70.9659 312.236 71.0835C312.374 71.1423 312.648 71.1815 313.06 71.1815H313.491V71.7894H308.433V71.1815H308.864C309.276 71.1815 309.55 71.1423 309.687 71.0835C309.884 70.9659 310.001 70.7502 310.001 70.3973L309.962 70.4169Z" fill="#2C766B"/>
<path d="M328.392 72.4168C327.686 72.4168 327.079 72.1619 326.549 71.6717C326.039 71.1619 325.785 70.5737 325.785 69.8483C325.785 69.1228 326.04 68.5543 326.569 68.0053C327.098 67.4563 327.706 67.2014 328.392 67.2014C329.079 67.2014 329.686 67.4563 330.216 67.9857C330.745 68.515 331 69.1228 331 69.8483C331 70.5737 330.745 71.1619 330.235 71.6717C329.726 72.1619 329.118 72.4168 328.392 72.4168Z" fill="#2C766B"/>
<path d="M9.79648 21.3969C11.3495 21.3969 12.3652 21.1954 12.978 20.6497C13.616 20.0789 13.8595 19.634 14.0609 19.2646C14.296 19.1639 14.6737 19.2646 14.808 19.4661C14.3715 21.1534 13.7587 22.9163 13.255 23.5878C11.8699 23.5207 10.4513 23.4871 8.88986 23.4871H3.98743C2.09865 23.4871 0.982166 23.5207 0.235048 23.5878C0.167892 23.5543 0 23.42 0 23.1513C0 23.0506 0.167892 22.9163 0.369362 22.782C1.92236 21.7662 3.03884 20.6162 5.54043 17.9131C7.77339 15.5123 10.3757 12.23 10.3757 8.61191C10.3757 5.5311 8.88986 3.67589 6.14484 3.67589C4.11335 3.67589 2.66108 5.061 1.74607 7.05891C1.44387 7.2268 0.931799 7.05891 0.931799 6.62239C2.0147 3.65071 4.68418 1.85427 7.73141 1.85427C11.1144 1.85427 13.3138 4.12081 13.3138 7.36951C13.3138 9.46816 12.3316 11.7683 9.69574 14.8071L7.63068 17.1744C4.86046 20.3559 4.54986 20.8932 4.54986 21.0947C4.54986 21.3297 4.71776 21.3969 5.59919 21.3969H9.79648Z" fill="#2C766B"/>
<path d="M31.9078 12.9015C31.9078 18.2069 29.8427 23.9572 24.9067 23.9572C19.9707 23.9572 17.9056 18.2069 17.9056 12.9015C17.9056 7.59616 19.9707 1.84587 24.9067 1.84587C29.8427 1.84587 31.9078 7.79763 31.9078 12.9015ZM20.9109 12.9015C20.9109 16.0831 21.1795 22.9415 24.8983 22.9415C28.6171 22.9415 28.8858 16.0747 28.8858 12.9015C28.8858 9.72839 28.6171 2.86162 24.8983 2.86162C21.1795 2.86162 20.9109 9.72839 20.9109 12.9015Z" fill="#2C766B"/>
<path d="M44.4745 21.3969C46.0275 21.3969 47.0433 21.1954 47.6561 20.6497C48.294 20.0789 48.5375 19.634 48.739 19.2646C48.974 19.1639 49.3518 19.2646 49.4861 19.4661C49.0496 21.1534 48.4367 22.9163 47.9331 23.5878C46.548 23.5207 45.1293 23.4871 43.5679 23.4871H38.6655C36.7767 23.4871 35.6602 23.5207 34.9131 23.5878C34.8459 23.5543 34.678 23.42 34.678 23.1513C34.678 23.0506 34.8459 22.9163 35.0474 22.782C36.6004 21.7662 37.7169 20.6162 40.2185 17.9131C42.4514 15.5123 45.0537 12.23 45.0537 8.61191C45.0537 5.5311 43.5679 3.67589 40.8229 3.67589C38.7914 3.67589 37.3391 5.061 36.4241 7.05891C36.1219 7.2268 35.6098 7.05891 35.6098 6.62239C36.6927 3.65071 39.3622 1.85427 42.4094 1.85427C45.7925 1.85427 47.9918 4.12081 47.9918 7.36951C47.9918 9.46816 47.0097 11.7683 44.3738 14.8071L42.3087 17.1744C39.5385 20.3559 39.2279 20.8932 39.2279 21.0947C39.2279 21.3297 39.3958 21.3969 40.2772 21.3969H44.4745Z" fill="#2C766B"/>
<path d="M56.2941 4.92669C59.8114 1.47651 63.9332 0.393611 65.9982 0.124985C66.2333 0.22572 66.3004 0.662238 66.1325 0.838524C63.9667 1.58564 61.0622 2.55941 58.6278 5.17013C55.7568 8.20897 54.7747 11.9362 54.7747 15.4115C54.7747 19.3318 56.1262 22.9499 59.4756 22.9499C62.0108 22.9499 63.2952 20.6497 63.2952 17.7788C63.2952 14.9078 62.0108 12.1292 59.1398 12.1292C58.4599 12.1292 57.9226 12.2971 57.5869 12.3979C57.3854 12.2971 57.3518 12.0621 57.4861 11.8606C58.4683 11.2478 59.484 10.8449 60.802 10.8449C64.0507 10.8449 66.1745 13.4472 66.1745 16.8974C66.1745 20.8512 63.27 23.9656 59.0391 23.9656C54.1031 23.9656 51.7694 20.1125 51.7694 15.5123C51.7694 12.6413 52.718 8.44402 56.3025 4.92669H56.2941Z" fill="#2C766B"/>
<path d="M69.5072 23.7473C69.2049 23.7473 68.9447 23.6382 68.7181 23.4284C68.4998 23.2101 68.3907 22.9583 68.3907 22.6477C68.3907 22.3371 68.4998 22.0936 68.7265 21.8586C68.9531 21.6235 69.2133 21.5144 69.5072 21.5144C69.801 21.5144 70.0612 21.6235 70.2879 21.8502C70.5145 22.0768 70.6236 22.3371 70.6236 22.6477C70.6236 22.9583 70.5145 23.2101 70.2962 23.4284C70.078 23.6382 69.8178 23.7473 69.5072 23.7473Z" fill="#2C766B"/>
</svg>
