<svg width="256" height="51" viewBox="0 0 256 51" fill="none" xmlns="http://www.w3.org/2000/svg">
<g clip-path="url(#clip0_7023_562)">
<path d="M187.638 25.4385H184.958V27.7939H174.123V25.4385H171.442V27.7939H166.959V29.9382H178.233V32.2124H167.869V34.3566H178.233V36.6308H166.959V38.7751H178.233V41.0493H166.959V43.1935H176.332C174.009 45.7439 170.809 47.4333 166.959 48.4404V50.6334C171.978 49.6263 176.121 47.2708 179.548 43.4859C182.976 47.2546 187.118 49.6263 192.138 50.6334V48.4404C188.288 47.4333 185.104 45.7439 182.765 43.1935H192.219V41.0493H180.929V38.7751H192.219V36.6308H180.929V34.3566H191.293V32.2124H180.929V29.9382H192.219V27.7939H187.654V25.4385H187.638Z" fill="black"/>
<path d="M217.316 32.521V30.3767H212.492V25.4385H209.812V30.3767H204.987V32.521H209.812V50.6659H212.492V32.521H217.316Z" fill="black"/>
<path d="M204.987 35.1364V32.9922H198.018V35.1364H200.162V50.666H202.843V35.1364H204.987Z" fill="black"/>
<path d="M204.987 26.998H198.018V29.1423H204.987V26.998Z" fill="black"/>
<path d="M207.667 35.5098H204.987V50.682H207.667V35.5098Z" fill="black"/>
<path d="M217.317 35.1364H219.461V48.5218H217.317V35.5101H214.636V50.6822H216.472H217.317H222.141V50.666V48.5218V35.1364H224.285V32.9922H217.317V35.1364Z" fill="black"/>
<path d="M217.317 25.4385H214.636V29.1422H217.317V29.1584H224.285V26.9979H217.317V25.4385Z" fill="black"/>
<path d="M249.496 27.1929V25.4385H246.816V27.1929H240.984V29.1259L237.459 25.471L234.405 25.4547L229.061 31.0103H232.31L235.932 27.2254L239.555 31.0103H243.681V29.3534H252.891V32.2611H243.908H242.934V50.6984H245.614L252.144 50.6821H254.825V42.0077H245.614V39.9934H253.574V32.2611H255.572V27.1929H249.513H249.496ZM252.112 44.1519V48.5379H245.582V44.1519H252.112ZM245.582 37.8491V34.4053H250.861V37.8491H245.582Z" fill="black"/>
<path d="M237.264 30.0841H234.584V32.2609H230.929V41.0003V43.1445V48.5214V50.6657H240.692V44.8827H238.012V48.5052H233.626V43.1283H240.692V32.2446H237.264V30.0679V30.0841ZM233.61 41.0003V38.7748H237.995V41.0003H233.61ZM237.995 36.6306H233.61V34.4051H237.995V36.6306Z" fill="black"/>
<path d="M20.9876 26.1207H0.0324707V28.6548H21.1501C20.3054 32.7159 16.959 36.0623 13.2066 36.9232C13.2391 36.176 13.2553 35.4287 13.2553 34.714V31.7738H9.89277V35.2176C9.89277 39.1324 9.64911 45.7114 1.78686 48.343V50.6497C9.68159 48.4242 12.167 43.9408 12.9305 39.5548C19.7043 38.3689 24.269 33.2033 25.2761 26.2994L25.3086 26.1045H21.0039L20.9876 26.1207Z" fill="black"/>
<path d="M76.2183 26.1045H53.7849V28.6386H76.2183V26.1045Z" fill="black"/>
<path d="M48.0669 36.9067H26.6082V39.4409H48.0669V36.9067Z" fill="black"/>
<path d="M52.3717 35.8349H64.5874C64.5549 39.7985 63.9539 45.8414 56.4815 48.3593V50.666C66.6505 47.7907 67.8525 41.1955 67.95 35.8349H77.5991V33.3008H52.3717V35.8349Z" fill="black"/>
<path d="M150.829 26.1045H137.703V28.6386H150.829V26.1045Z" fill="black"/>
<path d="M137.703 47.6119V50.6658C150.894 48.9927 157.814 44.0219 161.55 32.6509H158.886C155.133 42.0563 149.123 46.1499 137.703 47.6119Z" fill="black"/>
<path d="M80.783 41.1464V43.4206C84.178 43.047 87.102 42.251 89.6848 40.9677V50.6493H92.755V39.0996C95.2404 37.2803 97.3846 34.8599 99.3177 31.7734H95.7927C91.9428 37.3777 87.4431 40.1068 80.783 41.1302V41.1464Z" fill="black"/>
<path d="M112.671 36.5007L107.602 26.1206H103.915L108.999 36.517L112.671 36.5007Z" fill="black"/>
<path d="M127.94 28.0211H125.471C123.246 38.2062 117.073 45.0613 108.999 48.0828V50.6656C118.811 47.7904 126.283 40.1881 128.72 28.5409H130.231V24.1387H127.924V28.0373L127.94 28.0211Z" fill="black"/>
<path d="M134.357 24.1226H132.05V28.5248H134.357V24.1226Z" fill="black"/>
<path d="M8.05714 8.18707C8.8856 9.29168 9.81153 10.7537 10.5588 12.0857L3.68742 12.6055L7.00126 5.21436H5.52303L2.14421 12.7192L0.730957 12.8329V13.97L11.1111 13.1903C11.241 13.4665 11.371 13.7264 11.4684 13.97H13.1254C12.2319 12.0532 10.8999 9.8115 9.71406 8.20331H8.05714V8.18707Z" fill="black"/>
<path d="M98.5543 2.20875H103.005C101.787 5.29517 100.585 6.78965 98.002 8.98263V10.5421C99.1715 9.71362 100.227 8.75521 101.17 7.69933V13.9534H101.868H108.333H110.981V6.13987H109.568H102.583H102.404C103.265 4.93779 103.98 3.622 104.532 2.20875H111.793V1.08789H98.5543V2.20875ZM109.568 7.27697V12.8325H102.583V7.27697H109.568Z" fill="black"/>
<path d="M127.843 3.60597V2.59883H123.116C123.294 2.30643 123.457 2.01403 123.619 1.68915H127.112V0.714487H119.704V1.68915H122.336C122.174 2.01403 122.011 2.30643 121.816 2.59883H117.609V0.698242H116.342V2.59883H114.587V3.60597H116.342C116.098 5.84769 115.448 7.43963 114.311 8.85289V10.3799C115.156 9.53515 115.854 8.57673 116.358 7.52085V13.9374H117.625V6.41624H118.973C119.509 6.1076 120.013 5.78271 120.468 5.44158V7.06601H126.332V5.44158C126.884 5.84769 127.469 6.22131 128.086 6.5462V5.36036C127.209 4.87303 126.462 4.32072 125.796 3.58973H127.843V3.60597ZM117.625 3.60597H121.02C120.338 4.33697 119.542 4.93801 118.649 5.40909H117.625V3.60597ZM121.556 6.22131V5.27914H125.276V6.22131H121.556ZM125.146 4.43443H121.67C121.93 4.17453 122.174 3.89837 122.401 3.60597H124.399C124.626 3.89837 124.87 4.17453 125.13 4.43443H125.146Z" fill="black"/>
<path d="M5.78298 0.714355H4.25601C3.18389 2.97232 1.94932 4.49928 0 6.02625V7.52072C2.74529 5.58765 4.49967 3.47589 5.78298 0.714355Z" fill="black"/>
<path d="M9.34044 0.714355H7.81348C9.08053 3.47589 10.8512 5.58765 13.5965 7.52072V6.02625C11.6309 4.49928 10.3963 2.97232 9.34044 0.714355Z" fill="black"/>
<path d="M90.026 2.77738C90.026 2.77738 90.026 2.72865 90.026 2.69616V0.714355H88.6128V2.69616C88.6128 2.69616 88.6128 2.74489 88.6128 2.77738C88.6128 8.52787 86.5497 10.9158 82.6998 12.6214V13.9372C86.0299 12.7514 88.2554 10.8508 89.3113 7.68317C90.3671 10.8508 92.5926 12.7351 95.9227 13.9372V12.6214C92.0728 10.932 90.026 8.52787 90.0098 2.77738H90.026Z" fill="black"/>
<path d="M66.4392 12.1667V13.9048C68.2911 12.719 69.3794 11.0783 69.9967 8.26807H68.6322C68.2423 10.0874 67.7063 11.0458 66.4555 12.1667H66.4392Z" fill="black"/>
<path d="M126.641 7.86182H118.973V13.9697H120.175V8.88521H126.641V12.9625H125.731V12.9463V9.71367H121.069V12.9463L125.406 12.9625V13.9697H127.843V7.86182H126.641ZM122.19 12.0691V10.6071H124.61V12.0691H122.19Z" fill="black"/>
<path d="M75.9097 9.34022C76.6894 10.3636 77.2742 11.3058 77.7778 12.2804L72.8557 12.6378L75.1137 7.63456H80.1007V6.51371H76.0559V4.0933H79.6783V2.97245H76.0559V0.698242H74.6426V2.97245H71.0201V4.0933H74.6426V6.51371H70.5978V7.63456H73.6355L71.3288 12.7515L70.5978 12.8003V13.9374L78.2976 13.3688C78.3788 13.5637 78.4763 13.7424 78.5575 13.9374H80.2144C79.321 12.0205 78.5575 10.7047 77.5666 9.32397H75.9097V9.34022Z" fill="black"/>
<path d="M69.7043 2.37138L66.6017 1.18555V2.51758L69.7043 3.68717V2.37138Z" fill="black"/>
<path d="M69.7043 5.71757L66.6017 4.53174V5.84753L69.7043 7.03336V5.71757Z" fill="black"/>
<path d="M136.468 11.1106H137.735V1.08789H131.79V11.1106H136.452H136.468ZM133.073 2.12753H136.468V4.07684H133.073V2.14377V2.12753ZM133.073 5.11648H136.468V7.0658H133.073V5.11648ZM133.073 8.10543H136.468V10.0548H133.073V8.10543Z" fill="black"/>
<path d="M143.681 0.698242H142.268V3.37855H138.45V4.49941H142.268C141.585 7.42339 140.432 8.93411 138.45 10.4936V11.8094C140.529 10.3799 141.195 9.77881 142.268 7.94321V12.8165H140.481V13.9374H143.681V4.49941H145.435V3.37855H143.681V0.698242Z" fill="black"/>
<path d="M148.067 13.9534H161.306V1.08789H148.067V13.9534ZM149.48 2.20875H159.909V12.8325H149.48V2.20875Z" fill="black"/>
<path d="M157.342 2.92383H156.059V4.51577H150.422V5.55541H156.059V10.9485H154.613V12.0044H156.059H156.855H157.342V5.55541H158.999V4.51577H157.342V2.92383Z" fill="black"/>
<path d="M152.794 6.75732H151.365L152.908 9.69755H154.353L152.794 6.75732Z" fill="black"/>
<path d="M135.673 11.7441L136.826 13.9534H138.255L137.102 11.7441H135.673Z" fill="black"/>
<path d="M131.303 13.9534H132.732L133.886 11.7441H132.456L131.303 13.9534Z" fill="black"/>
<path d="M38.2879 11.1106H39.5549V1.08789H33.6095V11.1106H38.2716H38.2879ZM34.8928 2.14377H38.2879V4.09309H34.8928V2.14377ZM34.8928 5.13273H38.2879V7.08204H34.8928V5.13273ZM34.8928 8.12168H38.2879V10.071H34.8928V8.12168Z" fill="black"/>
<path d="M45.5003 0.698242H44.0871V3.37855H40.2697V4.49941H44.0871C43.4048 7.42339 42.2515 8.93411 40.2697 10.4936V11.8094C42.3489 10.3799 43.0149 9.77881 44.0871 7.94321V12.8165H42.3002V13.9374H45.5003V4.49941H47.2547V3.37855H45.5003V0.698242Z" fill="black"/>
<path d="M49.8862 13.9534H63.1253V1.08789H49.8862V13.9534ZM51.2995 2.20875H61.7283V12.8325H51.2995V2.20875Z" fill="black"/>
<path d="M59.1455 2.92383H57.8785V4.51577H52.2417V5.55541H57.8785V10.9485H56.4165V12.0044H57.8785H58.6744H59.1455V5.55541H60.8187V4.51577H59.1455V2.92383Z" fill="black"/>
<path d="M54.6133 6.75732H53.1838L54.727 9.69755H56.1565L54.6133 6.75732Z" fill="black"/>
<path d="M37.4918 11.7441L38.6452 13.9534H40.0747L38.9213 11.7441H37.4918Z" fill="black"/>
<path d="M26.2345 4.40181H29.8245V3.28096H26.5757L27.9077 0.714355H26.4782L25.1462 3.26471H21.28L19.9318 0.714355H18.5023L19.8343 3.26471H16.5854V4.38557H20.1754C19.1683 6.07498 17.9499 7.26081 16.4067 8.31669V9.66497C16.9753 9.37257 17.5601 8.98271 18.1449 8.52787V12.8001H16.5854V13.921H29.8245V12.8001H28.2651V8.52787C28.8499 8.98271 29.4347 9.37257 30.0032 9.66497V8.31669C28.4763 7.26081 27.2417 6.09122 26.2345 4.38557V4.40181ZM21.7024 4.40181H24.6913C25.2599 5.49018 26.1208 6.56231 27.0793 7.48823H19.3307C20.2891 6.56231 21.1338 5.49018 21.7186 4.40181H21.7024ZM24.0416 8.62534V12.8326H22.3684V8.62534H24.0416ZM19.4119 8.62534H21.0851V12.8326H19.4119V8.62534ZM26.998 12.8326H25.3249V8.62534H26.998V12.8326Z" fill="black"/>
<path d="M33.106 13.9534H34.5355L35.705 11.7441H34.2593L33.106 13.9534Z" fill="black"/>
</g>
<defs>
<clipPath id="clip0_7023_562">
<rect width="255.556" height="50" fill="white" transform="translate(0 0.698242)"/>
</clipPath>
</defs>
</svg>
