<svg width="30" height="31" viewBox="0 0 30 31" fill="none" xmlns="http://www.w3.org/2000/svg">
<g clip-path="url(#clip0_7023_617)">
<path d="M15 0.698242C10.9259 0.698242 10.4115 0.698242 8.80658 0.780547C7.22222 0.862851 6.11111 1.10976 5.16461 1.48014C4.17695 1.87108 3.33333 2.38549 2.51029 3.20853C1.68724 4.03158 1.17284 4.8752 0.781893 5.86285C0.411523 6.80935 0.164609 7.89989 0.0823045 9.50483C0.0205761 11.1098 0 11.6242 0 15.6982C0 19.7723 0 20.2867 0.0823045 21.8711C0.164609 23.476 0.411523 24.5666 0.781893 25.5131C1.17284 26.5007 1.68724 27.3443 2.51029 28.1674C3.35391 28.9904 4.17695 29.5048 5.16461 29.8958C6.11111 30.2661 7.20165 30.5131 8.80658 30.5954C10.4115 30.6571 10.9259 30.6777 15 30.6777C19.0741 30.6777 19.5885 30.6777 21.1934 30.5954C22.7778 30.5131 23.8889 30.2661 24.8354 29.8958C25.823 29.5048 26.6667 28.9904 27.4897 28.1674C28.3128 27.3238 28.8272 26.5007 29.2181 25.5131C29.5885 24.5666 29.8354 23.476 29.9177 21.8711C30 20.2661 30 19.7723 30 15.6982C30 11.6242 30 11.1098 29.9177 9.50483C29.856 7.89989 29.5885 6.80935 29.2181 5.86285C28.8272 4.8752 28.3128 4.03158 27.4897 3.20853C26.6461 2.36491 25.823 1.87108 24.8354 1.48014C23.8889 1.10976 22.7984 0.862851 21.1934 0.780547C19.5885 0.698242 19.0741 0.698242 15 0.698242ZM15 3.39372C19.0123 3.39372 19.4856 3.39372 21.0494 3.47602C22.5103 3.53775 23.3128 3.78466 23.8272 3.99042C24.5267 4.25791 25.0206 4.58713 25.5556 5.10153C26.0905 5.63651 26.3992 6.13034 26.6667 6.82993C26.8724 7.36491 27.1193 8.1468 27.1811 9.60771C27.2634 11.1921 27.2634 11.6653 27.2634 15.6777C27.2634 19.69 27.2634 20.1633 27.1811 21.727C27.1193 23.188 26.8724 23.9904 26.6667 24.5048C26.3992 25.2044 26.07 25.6982 25.5556 26.2332C25.0206 26.7682 24.5267 27.0768 23.8272 27.3443C23.2922 27.5501 22.5103 27.797 21.0494 27.8587C19.465 27.941 18.9918 27.941 15 27.941C11.0082 27.941 10.5144 27.941 8.95062 27.8587C7.48971 27.797 6.68724 27.5501 6.17284 27.3443C5.47325 27.0768 4.97942 26.7476 4.44444 26.2332C3.90947 25.6982 3.60082 25.2044 3.33333 24.5048C3.12757 23.9698 2.88066 23.188 2.81893 21.727C2.73663 20.1427 2.73663 19.6694 2.73663 15.6777C2.73663 11.6859 2.73663 11.1921 2.81893 9.60771C2.88066 8.1468 3.12757 7.34433 3.33333 6.82993C3.60082 6.13034 3.93004 5.63651 4.44444 5.10153C4.97942 4.56656 5.47325 4.25791 6.17284 3.99042C6.70782 3.78466 7.48971 3.53775 8.95062 3.47602C10.535 3.39372 11.0082 3.39372 15 3.39372Z" fill="black"/>
<path d="M14.9999 20.6984C12.2427 20.6984 9.99992 18.4556 9.99992 15.6984C9.99992 12.9412 12.2427 10.6984 14.9999 10.6984C17.7571 10.6984 19.9999 12.9412 19.9999 15.6984C19.9999 18.4556 17.7571 20.6984 14.9999 20.6984ZM14.9999 8.00293C10.7407 8.00293 7.30444 11.4597 7.30444 15.6984C7.30444 19.9371 10.7612 23.3939 14.9999 23.3939C19.2386 23.3939 22.6954 19.9371 22.6954 15.6984C22.6954 11.4597 19.2386 8.00293 14.9999 8.00293Z" fill="black"/>
<path d="M24.7942 7.69393C24.7942 8.68159 23.9917 9.48406 23.0041 9.48406C22.0164 9.48406 21.1934 8.68159 21.1934 7.69393C21.1934 6.70628 21.9958 5.90381 23.0041 5.90381C24.0123 5.90381 24.7942 6.70628 24.7942 7.69393Z" fill="black"/>
</g>
<defs>
<clipPath id="clip0_7023_617">
<rect width="30" height="30" fill="white" transform="translate(0 0.698242)"/>
</clipPath>
</defs>
</svg>
