<svg width="16" height="16" viewBox="0 0 16 16" fill="none" xmlns="http://www.w3.org/2000/svg">
<path d="M8 11.5444L3.73075 7.27511L4.78475 6.19061L7.25 8.65586V0.255859H8.75V8.65586L11.2153 6.19061L12.2693 7.27511L8 11.5444ZM2.30775 15.2559C1.80258 15.2559 1.375 15.0809 1.025 14.7309C0.675 14.3809 0.5 13.9533 0.5 13.4481V10.7366H2V13.4481C2 13.5251 2.03208 13.5956 2.09625 13.6596C2.16025 13.7238 2.23075 13.7559 2.30775 13.7559H13.6923C13.7692 13.7559 13.8398 13.7238 13.9038 13.6596C13.9679 13.5956 14 13.5251 14 13.4481V10.7366H15.5V13.4481C15.5 13.9533 15.325 14.3809 14.975 14.7309C14.625 15.0809 14.1974 15.2559 13.6923 15.2559H2.30775Z" fill="white"/>
</svg>
