<svg width="15" height="15" viewBox="0 0 15 15" fill="none" xmlns="http://www.w3.org/2000/svg">
<g clip-path="url(#clip0_7023_544)">
<path d="M11 8.39824V12.5982C11 12.7882 10.93 12.9582 10.79 13.0982C10.73 13.1682 10.65 13.2182 10.56 13.2482C10.48 13.2782 10.38 13.2982 10.29 13.2982H2.6C2.41 13.2982 2.24 13.2282 2.11 13.0882C2.04 13.0182 1.99 12.9482 1.96 12.8582C1.92 12.7782 1.91 12.6782 1.91 12.5882V4.88824C1.91 4.69824 1.98 4.52824 2.12 4.38824C2.19 4.32824 2.26 4.26824 2.35 4.23824C2.43 4.19824 2.53 4.18824 2.62 4.18824H6.82C7.21 4.18824 7.52 3.86824 7.51 3.47824C7.51 3.09824 7.2 2.78824 6.82 2.78824H2.6C1.44 2.78824 0.5 3.73824 0.5 4.89824V12.5982C0.5 13.7582 1.44 14.6982 2.6 14.6982H10.3C11.46 14.6982 12.4 13.7582 12.4 12.5982V8.39824C12.4 8.00824 12.09 7.69824 11.7 7.69824C11.31 7.69824 11 8.00824 11 8.39824ZM6.6 9.58824L13.1 3.08824V5.59824C13.1 5.98824 13.41 6.29824 13.8 6.29824C14.19 6.29824 14.5 5.98824 14.5 5.59824V1.38824C14.5 1.10824 14.33 0.858242 14.07 0.748242C13.99 0.718242 13.9 0.698242 13.81 0.698242H9.6C9.21 0.698242 8.9 1.01824 8.91 1.40824C8.91 1.78824 9.22 2.09824 9.6 2.09824H12.11L5.61 8.59824C5.34 8.86824 5.34 9.31824 5.61 9.58824C5.88 9.85824 6.33 9.85824 6.6 9.58824Z" fill="white"/>
</g>
<defs>
<clipPath id="clip0_7023_544">
<rect width="14" height="14" fill="white" transform="translate(0.5 0.698242)"/>
</clipPath>
</defs>
</svg>
