<svg width="30" height="31" viewBox="0 0 30 31" fill="none" xmlns="http://www.w3.org/2000/svg">
<g clip-path="url(#clip0_7023_614)">
<path d="M30 15.6982C30 7.41195 23.2863 0.698242 15 0.698242C6.71371 0.698242 0 7.41195 0 15.6982C0 23.1781 5.48387 29.3878 12.6613 30.5168V20.0329H8.85081V15.6982H12.6613V12.3918C12.6613 8.64179 14.8992 6.56518 18.3266 6.56518C19.9597 6.56518 21.6935 6.84744 21.6935 6.84744V10.537H19.7984C17.9234 10.537 17.3589 11.6861 17.3589 12.8757V15.6982H21.5121L20.8468 20.0329H17.3589V30.5168C24.5363 29.3878 30.0202 23.1781 30.0202 15.6982" fill="black"/>
<path d="M20.8468 20.0328L21.5121 15.6981H17.3589V12.8756C17.3589 11.6861 17.9436 10.5369 19.7984 10.5369H21.6936V6.84734C21.6936 6.84734 19.9799 6.54492 18.3266 6.54492C14.8992 6.54492 12.6613 8.62153 12.6613 12.3715V15.678H8.85083V20.0127H12.6613V30.4965C13.4274 30.6175 14.2137 30.678 15 30.678C15.7863 30.678 16.5726 30.6175 17.3387 30.4965V20.0127H20.8266L20.8468 20.0328Z" fill="white"/>
</g>
<defs>
<clipPath id="clip0_7023_614">
<rect width="30" height="30" fill="white" transform="translate(0 0.698242)"/>
</clipPath>
</defs>
</svg>
