<svg width="40" height="40" viewBox="0 0 40 40" fill="none" xmlns="http://www.w3.org/2000/svg">
<path d="M39.98 20.1207C39.98 9.00955 31.0378 0 19.995 0C8.95224 0 0 9.00955 0 20.1207C0 30.1559 7.31183 38.4816 16.8742 40V25.9326H11.7929V20.0905H16.8742V15.6561C16.8742 10.6285 19.855 7.84314 24.4261 7.84314C26.6267 7.84314 28.9172 8.24535 28.9172 8.24535V13.1926H26.3866C23.916 13.1926 23.1358 14.731 23.1358 16.3298V20.1207H28.6672L27.7769 25.9326H23.1258V40C32.6882 38.4816 40 30.1559 40 20.1207H39.97H39.98Z" fill="#2C766B"/>
</svg>
