<svg width="14" height="15" viewBox="0 0 14 15" fill="none" xmlns="http://www.w3.org/2000/svg">
<g clip-path="url(#clip0_11067_48)">
<path d="M10.5 8.39824V12.5982C10.5 12.7882 10.43 12.9582 10.29 13.0982C10.23 13.1682 10.15 13.2182 10.06 13.2482C9.98 13.2782 9.88 13.2982 9.79 13.2982H2.1C1.91 13.2982 1.74 13.2282 1.61 13.0882C1.54 13.0182 1.49 12.9482 1.46 12.8582C1.42 12.7782 1.41 12.6782 1.41 12.5882V4.88824C1.41 4.69824 1.48 4.52824 1.62 4.38824C1.69 4.32824 1.76 4.26824 1.85 4.23824C1.93 4.19824 2.03 4.18824 2.12 4.18824H6.32C6.71 4.18824 7.02 3.86824 7.01 3.47824C7.01 3.09824 6.7 2.78824 6.32 2.78824H2.1C0.94 2.78824 0 3.73824 0 4.89824V12.5982C0 13.7582 0.94 14.6982 2.1 14.6982H9.8C10.96 14.6982 11.9 13.7582 11.9 12.5982V8.39824C11.9 8.00824 11.59 7.69824 11.2 7.69824C10.81 7.69824 10.5 8.00824 10.5 8.39824ZM6.1 9.58824L12.6 3.08824V5.59824C12.6 5.98824 12.91 6.29824 13.3 6.29824C13.69 6.29824 14 5.98824 14 5.59824V1.38824C14 1.10824 13.83 0.858242 13.57 0.748242C13.49 0.718242 13.4 0.698242 13.31 0.698242H9.1C8.71 0.698242 8.4 1.01824 8.41 1.40824C8.41 1.78824 8.72 2.09824 9.1 2.09824H11.61L5.11 8.59824C4.84 8.86824 4.84 9.31824 5.11 9.58824C5.38 9.85824 5.83 9.85824 6.1 9.58824Z" fill="#999999"/>
</g>
<defs>
<clipPath id="clip0_11067_48">
<rect width="14" height="14" fill="white" transform="translate(0 0.698242)"/>
</clipPath>
</defs>
</svg>
