<svg width="391" height="141" viewBox="0 0 391 141" fill="none" xmlns="http://www.w3.org/2000/svg">
<g opacity="0.15">
<path d="M154.391 133.839C153.925 133.891 153.427 133.911 152.896 133.911C149.667 133.911 147.034 132.953 144.996 131.032C142.957 129.111 141.935 126.556 141.935 123.373C141.935 120.191 142.97 117.798 145.034 115.922C147.105 114.039 149.693 113.101 152.799 113.101C154.715 113.101 156.565 113.515 158.351 114.35C160.137 115.184 161.489 116.42 162.408 118.05C163.327 119.686 163.786 121.491 163.786 123.477C163.786 125.786 163.185 127.83 161.988 129.603C160.791 131.375 159.05 132.623 156.785 133.335L152.359 135.78C152.663 135.748 152.929 135.735 153.162 135.735C155.355 135.735 157.879 136.226 160.732 137.216C162.926 137.973 164.66 138.354 165.948 138.354C167.727 138.354 168.782 137.682 169.118 136.343H169.74C169.571 137.708 169.002 138.807 168.038 139.661C167.074 140.515 165.818 140.935 164.291 140.935C163.282 140.935 162.369 140.774 161.541 140.444C160.719 140.12 159.645 139.538 158.319 138.697C155.95 137.19 153.977 136.433 152.398 136.433C151.453 136.433 150.534 136.808 149.642 137.559C149.046 138.05 148.639 138.296 148.412 138.296C148.056 138.296 147.881 138.134 147.881 137.811C147.881 137.565 148.095 137.306 148.516 137.048C148.943 136.783 149.739 136.369 150.916 135.799C151.162 135.683 151.408 135.554 151.654 135.418L154.391 133.846V133.839ZM145.332 123.477C145.332 126.705 145.979 129.124 147.267 130.747C148.554 132.365 150.489 133.173 153.065 133.173C155.323 133.173 157.115 132.365 158.429 130.747C159.742 129.13 160.396 126.718 160.396 123.509C160.396 120.301 159.749 117.998 158.455 116.336C157.16 114.673 155.284 113.839 152.825 113.839C150.366 113.839 148.554 114.647 147.267 116.271C145.979 117.895 145.332 120.294 145.332 123.47V123.477Z" fill="white"/>
<path d="M179.581 129.37C179.581 130.689 179.601 131.524 179.64 131.854C179.679 132.19 179.827 132.442 180.073 132.61C180.326 132.779 180.779 132.863 181.426 132.863V133.542C179.924 133.561 178.831 133.716 178.138 134.014H177.964C177.647 133.471 177.478 132.533 177.459 131.2C176.857 132.138 176.165 132.843 175.395 133.315C174.618 133.788 173.764 134.027 172.826 134.027C172.017 134.027 171.299 133.839 170.678 133.471C170.057 133.102 169.63 132.649 169.397 132.119C169.164 131.588 169.047 130.78 169.047 129.706V125.573C169.047 124.169 169.021 123.315 168.976 123.005C168.931 122.694 168.769 122.468 168.51 122.319C168.245 122.17 167.766 122.099 167.067 122.099V121.42H171.182V129.829C171.182 130.657 171.234 131.258 171.331 131.634C171.428 132.009 171.681 132.339 172.088 132.617C172.496 132.901 172.962 133.037 173.493 133.037C174.25 133.037 174.981 132.791 175.667 132.287C176.359 131.789 176.831 131.258 177.084 130.702C177.336 130.146 177.459 129.35 177.459 128.309V125.573C177.459 124.253 177.446 123.445 177.414 123.16C177.388 122.875 177.258 122.623 177.038 122.41C176.818 122.196 176.353 122.093 175.654 122.093H175.343V121.413H179.581V129.37Z" fill="white"/>
<path d="M194.011 125.521H185.554C185.515 126.103 185.496 126.536 185.496 126.821C185.496 128.956 185.826 130.553 186.492 131.627C187.159 132.701 188.155 133.231 189.475 133.231C191.274 133.231 192.549 132.429 193.299 130.819H194.011C193.694 131.828 193.066 132.61 192.128 133.18C191.19 133.749 190.168 134.033 189.061 134.033C188.032 134.033 187.062 133.775 186.149 133.257C185.237 132.74 184.486 132.009 183.904 131.058C183.322 130.107 183.03 128.962 183.03 127.61C183.03 125.696 183.593 124.104 184.719 122.837C185.845 121.569 187.249 120.935 188.938 120.935C190.53 120.935 191.759 121.42 192.626 122.384C193.493 123.354 193.953 124.395 194.005 125.521H194.011ZM191.416 124.932C191.449 124.706 191.462 124.505 191.462 124.324C191.462 123.457 191.209 122.785 190.698 122.306C190.187 121.827 189.566 121.588 188.822 121.588C187.023 121.588 185.955 122.701 185.606 124.932H191.416Z" fill="white"/>
<path d="M197.001 133.93V129.945H197.576C198.249 132.248 199.447 133.393 201.174 133.393C201.925 133.393 202.488 133.167 202.857 132.714C203.225 132.261 203.413 131.763 203.413 131.22C203.413 130.586 203.212 130.068 202.818 129.667C202.41 129.26 201.627 128.775 200.462 128.199C199.239 127.597 198.359 127.002 197.829 126.42C197.298 125.851 197.026 125.139 197.026 124.305C197.026 123.47 197.311 122.739 197.887 122.015C198.463 121.291 199.265 120.928 200.301 120.928C201.336 120.928 202.229 121.355 202.921 122.216C203.07 122.067 203.264 121.705 203.497 121.135H204.047V124.881H203.497C203.297 123.981 202.915 123.212 202.352 122.565C201.782 121.918 201.116 121.595 200.346 121.595C199.751 121.595 199.272 121.776 198.909 122.144C198.547 122.513 198.359 122.934 198.359 123.419C198.359 123.949 198.56 124.408 198.968 124.796C199.362 125.191 200.119 125.637 201.232 126.142C202.908 126.899 203.937 127.643 204.312 128.361C204.688 129.092 204.875 129.79 204.875 130.463C204.875 131.517 204.526 132.378 203.834 133.037C203.135 133.697 202.261 134.027 201.207 134.027C200.094 134.027 199.097 133.568 198.23 132.649C197.965 132.947 197.745 133.367 197.576 133.923H197.001V133.93Z" fill="white"/>
<path d="M214.814 122.099H211.158V129.428C211.158 130.553 211.21 131.31 211.307 131.698C211.404 132.086 211.618 132.403 211.935 132.636C212.259 132.876 212.601 132.992 212.964 132.992C213.676 132.992 214.29 132.585 214.814 131.776L215.287 132.054C214.983 132.707 214.53 133.199 213.934 133.529C213.339 133.859 212.731 134.027 212.123 134.027C211.411 134.027 210.79 133.82 210.246 133.4C209.709 132.979 209.373 132.487 209.237 131.925C209.101 131.362 209.036 130.379 209.036 128.962V122.093H207.276V121.413C208.085 121.394 208.81 121.051 209.45 120.391C210.091 119.732 210.498 118.8 210.68 117.61H211.152V121.413H214.808V122.093L214.814 122.099Z" fill="white"/>
<path d="M221.893 120.935V129.389C221.893 130.683 221.913 131.498 221.952 131.834C221.99 132.171 222.133 132.429 222.379 132.604C222.625 132.779 223.065 132.869 223.699 132.869H224.009V133.548H217.48V132.869H217.985C218.684 132.869 219.143 132.766 219.357 132.565C219.57 132.365 219.693 132.119 219.726 131.841C219.758 131.562 219.777 130.741 219.777 129.389V125.715C219.777 124.292 219.713 123.425 219.577 123.108C219.441 122.791 219.266 122.597 219.046 122.513C218.826 122.435 218.438 122.397 217.882 122.397H217.48V121.717C219.24 121.536 220.599 121.278 221.57 120.935H221.893ZM219.033 114.744C219.033 114.318 219.182 113.955 219.486 113.651C219.784 113.347 220.153 113.192 220.573 113.192C220.994 113.192 221.356 113.347 221.654 113.651C221.952 113.955 222.1 114.324 222.1 114.744C222.1 115.165 221.952 115.547 221.654 115.857C221.356 116.167 221 116.316 220.573 116.316C220.146 116.316 219.784 116.161 219.486 115.857C219.182 115.553 219.033 115.184 219.033 114.744Z" fill="white"/>
<path d="M225.769 127.461C225.769 125.605 226.391 124.053 227.633 122.804C228.875 121.556 230.409 120.935 232.221 120.935C234.032 120.935 235.585 121.562 236.828 122.817C238.07 124.072 238.691 125.618 238.691 127.468C238.691 129.512 238.057 131.116 236.795 132.287C235.534 133.458 234.007 134.04 232.221 134.04C230.435 134.04 228.908 133.445 227.652 132.255C226.391 131.064 225.763 129.467 225.763 127.468L225.769 127.461ZM228.228 127.533C228.228 129.687 228.578 131.194 229.276 132.054C229.975 132.914 230.959 133.348 232.221 133.348C233.482 133.348 234.505 132.914 235.191 132.054C235.877 131.194 236.22 129.68 236.22 127.533C236.22 125.385 235.877 123.878 235.197 122.972C234.518 122.067 233.521 121.607 232.221 121.607C230.92 121.607 229.936 122.06 229.251 122.959C228.565 123.859 228.222 125.385 228.222 127.526L228.228 127.533Z" fill="white"/>
<path d="M243.984 120.935H244.386C244.612 121.549 244.741 122.384 244.767 123.438C245.479 122.597 246.223 121.97 247.006 121.556C247.789 121.142 248.598 120.935 249.452 120.935C250.423 120.935 251.212 121.135 251.827 121.543C252.442 121.95 252.843 122.442 253.017 123.031C253.192 123.619 253.283 124.473 253.283 125.599V129.389C253.283 130.793 253.309 131.647 253.354 131.951C253.399 132.255 253.561 132.487 253.82 132.636C254.079 132.785 254.564 132.863 255.263 132.863V133.542H249.057V132.863H249.336C250.047 132.863 250.513 132.759 250.727 132.552C250.94 132.345 251.07 132.106 251.096 131.828C251.128 131.55 251.141 130.735 251.141 129.383V125.476C251.141 124.518 251.096 123.833 250.999 123.425C250.908 123.018 250.656 122.655 250.242 122.338C249.827 122.021 249.31 121.866 248.682 121.866C247.964 121.866 247.272 122.08 246.618 122.513C245.964 122.94 245.343 123.587 244.761 124.447V129.389C244.761 130.793 244.787 131.647 244.845 131.951C244.903 132.255 245.058 132.487 245.317 132.636C245.576 132.785 246.068 132.863 246.773 132.863V133.542H240.645V132.863C241.325 132.863 241.804 132.791 242.069 132.656C242.334 132.52 242.503 132.306 242.567 132.028C242.632 131.75 242.664 130.864 242.664 129.383V125.773C242.664 124.363 242.638 123.509 242.58 123.205C242.528 122.908 242.367 122.675 242.108 122.526C241.849 122.377 241.357 122.3 240.652 122.3V121.62C241.739 121.504 242.846 121.278 243.984 120.941V120.935Z" fill="white"/>
<path d="M261.112 120.935V129.389C261.112 130.683 261.132 131.498 261.171 131.834C261.209 132.171 261.352 132.429 261.598 132.604C261.844 132.779 262.284 132.869 262.918 132.869H263.228V133.548H256.699V132.869H257.204C257.903 132.869 258.362 132.766 258.576 132.565C258.789 132.365 258.912 132.119 258.945 131.841C258.977 131.562 258.996 130.741 258.996 129.389V125.715C258.996 124.292 258.932 123.425 258.796 123.108C258.66 122.791 258.485 122.597 258.265 122.513C258.045 122.435 257.657 122.397 257.1 122.397H256.699V121.717C258.459 121.536 259.818 121.278 260.789 120.935H261.112ZM258.252 114.744C258.252 114.318 258.401 113.955 258.705 113.651C259.003 113.347 259.372 113.192 259.792 113.192C260.213 113.192 260.575 113.347 260.873 113.651C261.171 113.955 261.319 114.324 261.319 114.744C261.319 115.165 261.171 115.547 260.873 115.857C260.575 116.167 260.219 116.316 259.792 116.316C259.365 116.316 259.003 116.161 258.705 115.857C258.401 115.553 258.252 115.184 258.252 114.744Z" fill="white"/>
<path d="M268.133 120.935H268.534C268.761 121.549 268.89 122.384 268.916 123.438C269.628 122.597 270.372 121.97 271.155 121.556C271.938 121.142 272.747 120.935 273.601 120.935C274.571 120.935 275.361 121.135 275.976 121.543C276.59 121.95 276.991 122.442 277.166 123.031C277.341 123.619 277.431 124.473 277.431 125.599V129.389C277.431 130.793 277.457 131.647 277.503 131.951C277.548 132.255 277.71 132.487 277.969 132.636C278.227 132.785 278.713 132.863 279.411 132.863V133.542H273.206V132.863H273.484C274.196 132.863 274.662 132.759 274.876 132.552C275.089 132.345 275.218 132.106 275.244 131.828C275.277 131.55 275.29 130.735 275.29 129.383V125.476C275.29 124.518 275.244 123.833 275.147 123.425C275.057 123.018 274.804 122.655 274.39 122.338C273.976 122.021 273.458 121.866 272.831 121.866C272.113 121.866 271.42 122.08 270.767 122.513C270.113 122.94 269.492 123.587 268.91 124.447V129.389C268.91 130.793 268.935 131.647 268.994 131.951C269.052 132.255 269.207 132.487 269.466 132.636C269.725 132.785 270.217 132.863 270.922 132.863V133.542H264.794V132.863C265.474 132.863 265.952 132.791 266.218 132.656C266.483 132.52 266.651 132.306 266.716 132.028C266.781 131.75 266.813 130.864 266.813 129.383V125.773C266.813 124.363 266.787 123.509 266.729 123.205C266.677 122.908 266.515 122.675 266.257 122.526C265.998 122.377 265.506 122.3 264.801 122.3V121.62C265.888 121.504 266.994 121.278 268.133 120.941V120.935Z" fill="white"/>
<path d="M290.315 122.487C291.156 121.543 292.003 121.064 292.864 121.064C293.336 121.064 293.705 121.194 293.971 121.452C294.236 121.711 294.365 121.989 294.365 122.293C294.365 122.946 294.068 123.27 293.479 123.27C293.155 123.27 292.871 123.069 292.638 122.662C292.418 122.287 292.191 122.099 291.958 122.099C291.583 122.099 291.169 122.358 290.716 122.869C291.227 123.677 291.486 124.538 291.486 125.443C291.486 126.627 291.059 127.675 290.211 128.581C289.363 129.499 287.927 129.991 285.915 130.062C283.824 130.133 282.776 130.553 282.776 131.336C282.776 131.698 283.016 131.957 283.488 132.106C283.954 132.261 284.931 132.384 286.419 132.462C288.05 132.539 289.305 132.688 290.179 132.914C291.059 133.134 291.758 133.581 292.282 134.253C292.806 134.926 293.065 135.722 293.065 136.653C293.065 137.953 292.534 139.008 291.466 139.803C290.399 140.605 288.865 141 286.859 141C285.022 141 283.553 140.644 282.446 139.933C281.34 139.221 280.79 138.322 280.79 137.235C280.79 136.634 280.945 136.142 281.262 135.754C281.579 135.372 282.026 135.178 282.608 135.178C282.763 135.178 282.906 135.204 283.035 135.256C282.42 135.929 282.116 136.64 282.116 137.384C282.116 138.251 282.524 138.969 283.339 139.538C284.155 140.107 285.371 140.392 286.989 140.392C288.432 140.392 289.551 140.101 290.36 139.525C291.162 138.949 291.57 138.212 291.57 137.313C291.57 136.323 291.208 135.631 290.489 135.224C289.771 134.829 288.483 134.59 286.639 134.512C284.517 134.422 283.139 134.163 282.504 133.729C281.87 133.303 281.56 132.759 281.56 132.086C281.56 130.793 282.466 129.978 284.271 129.641C283.333 129.092 282.627 128.458 282.155 127.746C281.683 127.035 281.443 126.239 281.443 125.359C281.443 124.124 281.929 123.076 282.899 122.216C283.87 121.355 285.022 120.922 286.355 120.922C288.005 120.922 289.325 121.439 290.321 122.474L290.315 122.487ZM283.65 125.715C283.65 126.989 283.909 127.921 284.433 128.516C284.957 129.111 285.623 129.402 286.432 129.402C287.183 129.402 287.823 129.111 288.367 128.522C288.904 127.934 289.176 126.918 289.176 125.463C289.176 124.007 288.891 122.998 288.315 122.442C287.739 121.886 287.099 121.614 286.374 121.614C285.468 121.614 284.782 121.957 284.329 122.636C283.876 123.315 283.65 124.344 283.65 125.715Z" fill="white"/>
<path d="M320.999 134.008L306.796 115.191V129.124C306.796 130.282 306.854 131.039 306.964 131.401C307.074 131.763 307.404 132.099 307.934 132.41C308.465 132.714 309.267 132.869 310.335 132.869V133.548H302.842V132.869C303.8 132.798 304.531 132.623 305.035 132.345C305.54 132.067 305.838 131.763 305.928 131.433C306.019 131.11 306.071 130.34 306.071 129.124V118.477C306.071 116.937 306 115.909 305.857 115.385C305.715 114.861 305.488 114.524 305.178 114.376C304.867 114.227 304.175 114.156 303.101 114.156V113.477H309.021L320.915 129.182V117.177C320.915 116.29 320.824 115.669 320.643 115.314C320.462 114.958 320.086 114.68 319.523 114.473C318.96 114.266 318.281 114.162 317.492 114.162V113.483H324.778V114.162C323.93 114.233 323.257 114.395 322.772 114.647C322.286 114.906 321.969 115.21 321.84 115.572C321.71 115.935 321.639 116.543 321.639 117.403V134.014H321.005L320.999 134.008Z" fill="white"/>
<path d="M337.674 131.323H338.224C338.133 133.011 337.305 133.852 335.739 133.852C335.066 133.852 334.535 133.678 334.147 133.322C333.759 132.966 333.5 132.436 333.384 131.737C332.394 132.436 331.494 132.966 330.679 133.322C329.864 133.678 329.139 133.852 328.492 133.852C327.67 133.852 326.965 133.613 326.376 133.141C325.781 132.669 325.489 132.041 325.489 131.258C325.489 130.243 325.988 129.357 326.978 128.593C327.968 127.837 329.339 127.093 331.087 126.375L333.384 125.443V124.848C333.384 124.007 333.332 123.399 333.222 123.024C333.112 122.649 332.834 122.313 332.381 122.015C331.928 121.717 331.332 121.569 330.588 121.569C329.106 121.569 328.285 122.06 328.116 123.05C327.961 124.059 327.541 124.557 326.874 124.557C326.272 124.557 325.968 124.273 325.968 123.697C325.968 123.121 326.369 122.532 327.165 121.886C327.968 121.239 329.21 120.915 330.899 120.915C332.154 120.915 333.125 121.109 333.817 121.51C334.51 121.905 334.962 122.351 335.189 122.856C335.409 123.36 335.525 124.13 335.525 125.165V130.068C335.525 131.213 335.584 131.951 335.7 132.274C335.817 132.597 336.075 132.759 336.47 132.759C337.124 132.759 337.525 132.274 337.687 131.31L337.674 131.323ZM333.377 126.142L331.759 126.795C329.21 127.83 327.942 129.137 327.942 130.702C327.942 131.323 328.103 131.828 328.427 132.203C328.751 132.585 329.178 132.772 329.702 132.772C330.168 132.772 330.705 132.617 331.313 132.313C331.921 132.009 332.614 131.55 333.371 130.935V126.135L333.377 126.142Z" fill="white"/>
<path d="M347.004 122.099H343.349V129.428C343.349 130.553 343.4 131.31 343.497 131.698C343.594 132.086 343.808 132.403 344.125 132.636C344.449 132.876 344.791 132.992 345.154 132.992C345.866 132.992 346.48 132.585 347.004 131.776L347.477 132.054C347.173 132.707 346.72 133.199 346.124 133.529C345.529 133.859 344.921 134.027 344.313 134.027C343.601 134.027 342.98 133.82 342.436 133.4C341.899 132.979 341.563 132.487 341.427 131.925C341.291 131.362 341.226 130.379 341.226 128.962V122.093H339.466V121.413C340.275 121.394 341 121.051 341.64 120.391C342.281 119.732 342.688 118.8 342.87 117.61H343.342V121.413H346.998V122.093L347.004 122.099Z" fill="white"/>
<path d="M362.068 129.37C362.068 130.689 362.088 131.524 362.127 131.854C362.165 132.19 362.314 132.442 362.56 132.61C362.812 132.779 363.265 132.863 363.912 132.863V133.542C362.411 133.561 361.318 133.716 360.625 134.014H360.451C360.133 133.471 359.965 132.533 359.946 131.2C359.344 132.138 358.652 132.843 357.882 133.315C357.105 133.788 356.251 134.027 355.313 134.027C354.504 134.027 353.786 133.839 353.165 133.471C352.543 133.102 352.116 132.649 351.883 132.119C351.65 131.588 351.534 130.78 351.534 129.706V125.573C351.534 124.169 351.508 123.315 351.463 123.005C351.417 122.694 351.256 122.468 350.997 122.319C350.732 122.17 350.253 122.099 349.554 122.099V121.42H353.669V129.829C353.669 130.657 353.721 131.258 353.818 131.634C353.915 132.009 354.167 132.339 354.575 132.617C354.983 132.901 355.449 133.037 355.979 133.037C356.736 133.037 357.468 132.791 358.153 132.287C358.846 131.789 359.318 131.258 359.571 130.702C359.823 130.146 359.946 129.35 359.946 128.309V125.573C359.946 124.253 359.933 123.445 359.901 123.16C359.875 122.875 359.745 122.623 359.525 122.41C359.305 122.196 358.839 122.093 358.141 122.093H357.83V121.413H362.068V129.37Z" fill="white"/>
<path d="M370.047 124.027C370.383 123.147 370.927 122.41 371.684 121.821C372.441 121.226 373.178 120.935 373.897 120.935C374.55 120.935 375.061 121.135 375.437 121.543C375.812 121.95 376 122.364 376 122.785C376 123.069 375.903 123.315 375.708 123.522C375.514 123.729 375.281 123.833 375.003 123.833C374.511 123.833 374.136 123.47 373.877 122.739C373.696 122.248 373.431 122.002 373.075 122.002C372.648 122.002 372.143 122.293 371.548 122.869C370.953 123.445 370.577 124.046 370.409 124.667C370.241 125.288 370.157 126.142 370.157 127.229V129.389C370.157 130.683 370.176 131.498 370.208 131.834C370.241 132.171 370.383 132.429 370.629 132.604C370.875 132.779 371.315 132.869 371.949 132.869H372.363V133.548H365.918V132.869H366.229C366.824 132.869 367.245 132.785 367.497 132.623C367.75 132.462 367.898 132.229 367.95 131.938C368.002 131.64 368.021 130.793 368.021 129.389V125.967C368.021 124.667 368.002 123.846 367.97 123.516C367.937 123.186 367.795 122.927 367.549 122.746C367.303 122.565 366.863 122.474 366.229 122.474H365.918V121.808C366.844 121.698 368.06 121.407 369.561 120.935C369.846 121.717 370.008 122.746 370.034 124.027H370.047Z" fill="white"/>
<path d="M388.624 125.521H380.167C380.128 126.103 380.109 126.536 380.109 126.821C380.109 128.956 380.439 130.553 381.105 131.627C381.772 132.701 382.768 133.231 384.088 133.231C385.887 133.231 387.162 132.429 387.912 130.819H388.624C388.307 131.828 387.679 132.61 386.741 133.18C385.803 133.749 384.78 134.033 383.674 134.033C382.645 134.033 381.674 133.775 380.762 133.257C379.85 132.74 379.099 132.009 378.517 131.058C377.934 130.107 377.643 128.962 377.643 127.61C377.643 125.696 378.206 124.104 379.332 122.837C380.458 121.569 381.862 120.935 383.551 120.935C385.143 120.935 386.372 121.42 387.239 122.384C388.106 123.354 388.566 124.395 388.618 125.521H388.624ZM386.036 124.932C386.068 124.706 386.081 124.505 386.081 124.324C386.081 123.457 385.829 122.785 385.317 122.306C384.806 121.827 384.185 121.588 383.441 121.588C381.642 121.588 380.574 122.701 380.225 124.932H386.036Z" fill="white"/>
<path d="M86.0539 97.3313V96.154H88.4804C92.9517 96.154 96.0188 95.5654 97.8565 94.3558C99.7394 93.1203 100.962 91.1927 101.487 88.6312C101.972 86.2637 102.205 80.9919 102.205 72.5182V9.17878L100.095 8.73245L60.954 97.3313H58.9352L19.5092 8.72598L17.4062 9.17231V67.4533C17.4062 75.5648 17.6521 80.9595 18.1568 83.935C18.6874 87.0723 20.3439 89.8472 23.081 92.1824C25.6046 94.3364 29.0729 95.643 33.4147 96.0699V97.3313H0V96.0764C4.00537 95.6947 7.35072 94.4722 9.96488 92.4346C12.8379 90.1965 14.6173 87.3957 15.2514 84.1032C15.8597 80.9725 16.1509 75.3837 16.1509 67.0135V23.707C16.1509 15.6343 15.9179 10.5436 15.4326 8.15029C14.902 5.54349 13.7438 3.6935 11.9773 2.65208C10.2949 1.65593 6.90424 1.17726 1.61768 1.17726H0V0H28.5099L65.7229 83.9803L102.709 0H131.439V1.17726H128.871C123.746 1.17726 120.426 1.61712 118.731 2.51624C116.926 3.47358 115.716 5.23947 115.127 7.74924C114.59 10.0585 114.324 15.2786 114.324 23.707V72.5182C114.324 80.4873 114.519 85.5716 114.926 88.0684C115.36 90.7722 116.511 92.8292 118.33 94.1747C120.129 95.5072 123.332 96.154 128.126 96.154H131.433V97.3313H86.0539Z" fill="white"/>
<path d="M166.647 99.757C158.118 99.757 150.748 96.8849 144.75 91.2121C138.764 85.5586 135.729 77.8417 135.729 68.2684C135.729 59.413 138.732 51.9096 144.659 45.9586C150.586 40.014 157.982 36.9997 166.64 36.9997C175.298 36.9997 182.772 40.027 188.692 45.9974C194.619 51.9678 197.622 59.4648 197.622 68.2684C197.622 78.0293 194.581 85.798 188.576 91.3544C182.551 96.9302 175.168 99.757 166.634 99.757H166.647ZM166.647 38.1705C159.904 38.1705 154.65 40.5768 151.046 45.3182C147.513 49.969 145.72 57.8088 145.72 68.6306C145.72 79.4524 147.506 87.221 151.182 91.749C154.857 96.2769 160.066 98.5797 166.647 98.5797C173.227 98.5797 178.624 96.2769 182.228 91.7425C185.819 87.2146 187.573 79.6594 187.573 68.6371C187.573 57.6148 185.793 50.0467 182.286 45.3699C178.708 40.5962 173.441 38.177 166.647 38.177V38.1705Z" fill="white"/>
<path d="M250.753 97.3313V96.154H251.044C254.9 96.154 257.405 95.5524 258.705 94.3105C259.973 93.1009 260.698 91.6649 260.873 90.0348C261.028 88.6118 261.099 84.6078 261.099 77.8094V58.4298C261.099 53.559 260.86 50.1502 260.375 48.0156C259.851 45.7386 258.459 43.714 256.227 41.9934C254.008 40.2792 251.173 39.4125 247.809 39.4125C244.036 39.4125 240.387 40.5445 236.964 42.7825C233.599 44.9818 230.396 48.3066 227.439 52.6664L227.251 52.9445V77.7964C227.251 84.8794 227.387 89.0969 227.672 90.6881C227.995 92.5317 228.966 93.9353 230.551 94.8603C231.884 95.6365 234.078 96.057 237.235 96.1346V97.3248H209.036V96.1346C212.038 96.0634 214.154 95.6883 215.494 94.9961C217.105 94.1617 218.127 92.8615 218.522 91.1474C218.859 89.6596 219.027 85.2934 219.027 77.8029V59.8917C219.027 52.7699 218.891 48.5395 218.606 46.9612C218.276 45.1435 217.312 43.7528 215.727 42.8278C214.394 42.0451 212.2 41.6312 209.036 41.5535V40.2469C214.109 39.6324 219.344 38.5392 224.618 36.9868H225.659C226.585 39.8329 227.122 43.6364 227.251 48.3196L227.329 51.1916L229.186 48.9988C232.602 44.9624 236.226 41.9158 239.947 39.9364C243.635 37.9765 247.537 36.9803 251.549 36.9803C256.104 36.9803 259.863 37.9312 262.73 39.807C265.551 41.657 267.389 43.9404 268.191 46.5796C269.039 49.3739 269.466 53.5526 269.466 58.999V77.79C269.466 84.8665 269.589 89.0775 269.848 90.6623C270.145 92.5122 271.103 93.9224 272.695 94.8474C274.021 95.6236 276.196 96.044 279.308 96.1217V97.3119H250.746L250.753 97.3313Z" fill="white"/>
<path d="M316.825 99.757C311.953 99.757 307.281 98.5085 302.939 96.044C298.597 93.5796 294.986 90.0413 292.211 85.5263C289.441 81.0242 288.043 75.4678 288.043 68.9993C288.043 59.827 290.768 52.1101 296.138 46.0556C301.477 40.0399 308.238 36.9933 316.243 36.9933C323.762 36.9933 329.637 39.2896 333.707 43.824C337.518 48.0673 339.693 52.6858 340.171 57.5501H298.397L298.325 58.5786C298.131 61.4765 298.028 63.6758 298.028 65.1118C298.028 75.843 299.749 84.0515 303.152 89.5109C306.653 95.1385 311.946 97.9975 318.883 97.9975C327.974 97.9975 334.581 93.9741 338.521 86.0308H339.796C338.198 90.0672 335.396 93.3143 331.455 95.6947C326.997 98.3921 322.079 99.757 316.825 99.757ZM315.654 38.0217C306.161 38.0217 300.435 43.9145 298.636 55.5449L298.442 56.8127H329.475L329.598 55.8554C329.754 54.6846 329.831 53.6237 329.831 52.7052C329.831 48.1061 328.44 44.4644 325.703 41.8834C322.979 39.3219 319.601 38.0217 315.66 38.0217H315.654Z" fill="white"/>
<path d="M376.381 99.757C373.127 99.757 370.228 98.7867 367.769 96.872C365.317 94.9573 363.77 92.7128 363.168 90.1836C362.528 87.4927 362.204 82.6349 362.204 75.7589V40.6027H353.469V39.3607C357.338 39.005 360.858 37.2132 363.951 34.0242C367.109 30.7706 369.205 26.2426 370.195 20.5568H370.506V39.4189H388.643V40.5962H370.506V78.0293C370.506 83.7539 370.758 87.5315 371.276 89.5691C371.826 91.7425 373.017 93.5213 374.809 94.8474C376.588 96.1605 378.523 96.8267 380.568 96.8267C384.198 96.8267 387.395 94.9315 390.073 91.1797L390.649 91.5226C389.258 94.0906 387.304 96.0764 384.845 97.4412C382.063 98.9807 379.216 99.7634 376.381 99.7634V99.757Z" fill="white"/>
</g>
</svg>
