<svg width="190" height="142" viewBox="0 0 190 142" fill="none" xmlns="http://www.w3.org/2000/svg">
<path opacity="0.15" d="M124.394 141.5V139.795H127.901C134.365 139.795 138.798 138.942 141.455 137.19C144.177 135.4 145.944 132.607 146.702 128.897C147.404 125.467 147.74 117.83 147.74 105.554V13.7969L144.691 13.1504L88.1111 141.5H85.1927L28.2012 13.141L25.1612 13.7876V98.217C25.1612 109.968 25.5167 117.783 26.2462 122.093C27.0132 126.638 29.4078 130.658 33.3643 134.041C37.0123 137.161 42.0258 139.054 48.3021 139.673V141.5H0V139.682C5.78989 139.129 10.6257 137.358 14.4046 134.406C18.5576 131.164 21.1298 127.107 22.0465 122.337C22.9257 117.802 23.3466 109.705 23.3466 97.5798V34.8434C23.3466 23.1488 23.0099 15.7741 22.3084 12.307C21.5414 8.53064 19.8671 5.85063 17.3135 4.34196C14.8816 2.89888 9.98031 2.20546 2.3384 2.20546H0V0.5H41.212L95.0047 122.159L148.47 0.5H190V2.20546H186.287C178.879 2.20546 174.08 2.84266 171.629 4.14518C169.02 5.53203 167.271 8.09022 166.42 11.726C165.643 15.0713 165.26 22.6334 165.26 34.8434V105.554C165.26 117.099 165.54 124.464 166.13 128.081C166.756 131.998 168.421 134.978 171.05 136.927C173.65 138.857 178.28 139.795 185.211 139.795H189.991V141.5H124.394Z" fill="white"/>
</svg>
