<svg width="14" height="14" viewBox="0 0 14 14" fill="none" xmlns="http://www.w3.org/2000/svg">
<path d="M10.5 7.7V11.9C10.5 12.09 10.43 12.26 10.29 12.4C10.23 12.47 10.15 12.52 10.06 12.55C9.98 12.58 9.88 12.6 9.79 12.6H2.1C1.91 12.6 1.74 12.53 1.61 12.39C1.54 12.32 1.49 12.25 1.46 12.16C1.42 12.08 1.41 11.98 1.41 11.89V4.19C1.41 4 1.48 3.83 1.62 3.69C1.69 3.63 1.76 3.57 1.85 3.54C1.93 3.5 2.03 3.49 2.12 3.49H6.32C6.71 3.49 7.02 3.17 7.01 2.78C7.01 2.4 6.7 2.09 6.32 2.09H2.1C0.94 2.09 0 3.04 0 4.2V11.9C0 13.06 0.94 14 2.1 14H9.8C10.96 14 11.9 13.06 11.9 11.9V7.7C11.9 7.31 11.59 7 11.2 7C10.81 7 10.5 7.31 10.5 7.7ZM6.1 8.89L12.6 2.39V4.9C12.6 5.29 12.91 5.6 13.3 5.6C13.69 5.6 14 5.29 14 4.9V0.69C14 0.41 13.83 0.16 13.57 0.05C13.49 0.02 13.4 0 13.31 0H9.1C8.71 0 8.4 0.32 8.41 0.71C8.41 1.09 8.72 1.4 9.1 1.4H11.61L5.11 7.9C4.84 8.17 4.84 8.62 5.11 8.89C5.38 9.16 5.83 9.16 6.1 8.89Z" fill="#2C766B"/>
</svg>
