<svg width="40" height="40" viewBox="0 0 40 40" fill="none" xmlns="http://www.w3.org/2000/svg">
<path d="M20 0C14.5679 0 13.882 0 11.7421 0.109815C9.62963 0.219629 8.14815 0.549073 6.88615 1.04324C5.56927 1.56486 4.44444 2.2512 3.34705 3.34935C2.24966 4.44749 1.56379 5.5731 1.04252 6.89087C0.548697 8.15374 0.219479 9.60879 0.109739 11.7502C0.0274348 13.8916 0 14.5779 0 20.0137C0 25.4496 0 26.1359 0.109739 28.2498C0.219479 30.3912 0.548697 31.8463 1.04252 33.1091C1.56379 34.4269 2.24966 35.5525 3.34705 36.6507C4.47188 37.7488 5.56927 38.4351 6.88615 38.9568C8.14815 39.4509 9.6022 39.7804 11.7421 39.8902C13.882 39.9725 14.5679 40 20 40C25.4321 40 26.118 40 28.2579 39.8902C30.3704 39.7804 31.8519 39.4509 33.1139 38.9568C34.4307 38.4351 35.5556 37.7488 36.6529 36.6507C37.7503 35.5251 38.4362 34.4269 38.9575 33.1091C39.4513 31.8463 39.7805 30.3912 39.8903 28.2498C40 26.1084 40 25.4496 40 20.0137C40 14.5779 40 13.8916 39.8903 11.7502C39.808 9.60879 39.4513 8.15374 38.9575 6.89087C38.4362 5.5731 37.7503 4.44749 36.6529 3.34935C35.5281 2.22375 34.4307 1.56486 33.1139 1.04324C31.8519 0.549073 30.3978 0.219629 28.2579 0.109815C26.118 0 25.4321 0 20 0ZM20 3.59643C25.3498 3.59643 25.9808 3.59643 28.0658 3.70625C30.0137 3.78861 31.0837 4.11805 31.7695 4.39259C32.7023 4.74949 33.3608 5.18874 34.0741 5.87509C34.7874 6.58888 35.1989 7.24777 35.5556 8.18119C35.8299 8.89499 36.1591 9.93823 36.2414 11.8874C36.3512 14.0014 36.3512 14.6328 36.3512 19.9863C36.3512 25.3397 36.3512 25.9712 36.2414 28.0577C36.1591 30.0069 35.8299 31.0776 35.5556 31.7639C35.1989 32.6973 34.7599 33.3562 34.0741 34.07C33.3608 34.7838 32.7023 35.1956 31.7695 35.5525C31.0562 35.827 30.0137 36.1565 28.0658 36.2388C25.9534 36.3487 25.3224 36.3487 20 36.3487C14.6776 36.3487 14.0192 36.3487 11.9342 36.2388C9.98628 36.1565 8.91632 35.827 8.23045 35.5525C7.29767 35.1956 6.63923 34.7563 5.92593 34.07C5.21262 33.3562 4.8011 32.6973 4.44444 31.7639C4.1701 31.0501 3.84088 30.0069 3.75857 28.0577C3.64883 25.9437 3.64883 25.3123 3.64883 19.9863C3.64883 14.6603 3.64883 14.0014 3.75857 11.8874C3.84088 9.93823 4.1701 8.86754 4.44444 8.18119C4.8011 7.24777 5.24006 6.58888 5.92593 5.87509C6.63923 5.16129 7.29767 4.74949 8.23045 4.39259C8.94376 4.11805 9.98628 3.78861 11.9342 3.70625C14.0466 3.59643 14.6776 3.59643 20 3.59643Z" fill="#2C766B"/>
<path d="M20 26.685C16.3237 26.685 13.3333 23.6925 13.3333 20.0137C13.3333 16.3349 16.3237 13.3425 20 13.3425C23.6763 13.3425 26.6667 16.3349 26.6667 20.0137C26.6667 23.6925 23.6763 26.685 20 26.685ZM20 9.74605C14.321 9.74605 9.73937 14.3583 9.73937 20.0137C9.73937 25.6692 14.3484 30.2814 20 30.2814C25.6516 30.2814 30.2606 25.6692 30.2606 20.0137C30.2606 14.3583 25.6516 9.74605 20 9.74605Z" fill="#2C766B"/>
<path d="M33.059 9.33425C33.059 10.652 31.989 11.7227 30.6722 11.7227C29.3553 11.7227 28.2579 10.652 28.2579 9.33425C28.2579 8.01647 29.3278 6.94578 30.6722 6.94578C32.0165 6.94578 33.059 8.01647 33.059 9.33425Z" fill="#2C766B"/>
</svg>
