<svg width="40" height="40" viewBox="0 0 40 40" fill="none" xmlns="http://www.w3.org/2000/svg">
<mask id="mask0_7023_551" style="mask-type:alpha" maskUnits="userSpaceOnUse" x="0" y="0" width="40" height="40">
<rect width="40" height="40" fill="#D9D9D9"/>
</mask>
<g mask="url(#mask0_7023_551)">
<path d="M20.0003 27.7563C20.3547 27.7563 20.6515 27.6365 20.8908 27.3968C21.1301 27.1571 21.2498 26.8601 21.2498 26.5058C21.2498 26.1515 21.1299 25.8547 20.8903 25.6153C20.6506 25.376 20.3536 25.2564 19.9993 25.2564C19.6449 25.2564 19.3481 25.3762 19.1088 25.6159C18.8695 25.8556 18.7498 26.1526 18.7498 26.5069C18.7498 26.8612 18.8697 27.158 19.1093 27.3974C19.349 27.6367 19.646 27.7563 20.0003 27.7563ZM20.0003 21.2499C20.3547 21.2499 20.6515 21.1301 20.8908 20.8904C21.1301 20.6507 21.2498 20.3537 21.2498 19.9994C21.2498 19.6451 21.1299 19.3483 20.8903 19.109C20.6506 18.8697 20.3536 18.75 19.9993 18.75C19.6449 18.75 19.3481 18.8698 19.1088 19.1095C18.8695 19.3492 18.7498 19.6462 18.7498 20.0005C18.7498 20.3548 18.8697 20.6517 19.1093 20.891C19.349 21.1303 19.646 21.2499 20.0003 21.2499ZM20.0003 14.7435C20.3547 14.7435 20.6515 14.6237 20.8908 14.384C21.1301 14.1443 21.2498 13.8473 21.2498 13.493C21.2498 13.1387 21.1299 12.8419 20.8903 12.6025C20.6506 12.3632 20.3536 12.2436 19.9993 12.2436C19.6449 12.2436 19.3481 12.3634 19.1088 12.6031C18.8695 12.8428 18.7498 13.1398 18.7498 13.4941C18.7498 13.8484 18.8697 14.1453 19.1093 14.3846C19.349 14.6239 19.646 14.7435 20.0003 14.7435ZM32.8203 32.4999H7.17934C6.35081 32.4999 5.64155 32.2049 5.05155 31.6149C4.46152 31.0249 4.1665 30.3156 4.1665 29.4871V24.0064C5.11523 23.8248 5.90796 23.3595 6.54471 22.6105C7.18146 21.8616 7.49984 20.9914 7.49984 20C7.49984 19.0085 7.18146 18.1383 6.54471 17.3894C5.90796 16.6404 5.11523 16.1751 4.1665 15.9935V10.5128C4.1665 9.68431 4.46152 8.97504 5.05155 8.38504C5.64155 7.79502 6.35081 7.5 7.17934 7.5H32.8203C33.6488 7.5 34.3581 7.79502 34.9481 8.38504C35.5381 8.97504 35.8331 9.68431 35.8331 10.5128V15.9935C34.8844 16.1751 34.0916 16.6404 33.4549 17.3894C32.8181 18.1383 32.4998 19.0085 32.4998 20C32.4998 20.9914 32.8181 21.8616 33.4549 22.6105C34.0916 23.3595 34.8844 23.8248 35.8331 24.0064V29.4871C35.8331 30.3156 35.5381 31.0249 34.9481 31.6149C34.3581 32.2049 33.6488 32.4999 32.8203 32.4999ZM32.8203 30C32.9698 30 33.0927 29.9519 33.1889 29.8557C33.2851 29.7595 33.3331 29.6367 33.3331 29.4871V25.75C32.3054 25.1388 31.4929 24.3263 30.8956 23.3125C30.2984 22.2986 29.9998 21.1944 29.9998 20C29.9998 18.8055 30.2984 17.7013 30.8956 16.6875C31.4929 15.6736 32.3054 14.8611 33.3331 14.25V10.5128C33.3331 10.3633 33.2851 10.2404 33.1889 10.1442C33.0927 10.048 32.9698 9.99996 32.8203 9.99996H7.17934C7.02975 9.99996 6.90688 10.048 6.81071 10.1442C6.71455 10.2404 6.66646 10.3633 6.66646 10.5128V14.25C7.69424 14.8611 8.50674 15.6736 9.10396 16.6875C9.70119 17.7013 9.9998 18.8055 9.9998 20C9.9998 21.1944 9.70119 22.2986 9.10396 23.3125C8.50674 24.3263 7.69424 25.1388 6.66646 25.75V29.4871C6.66646 29.6367 6.71455 29.7595 6.81071 29.8557C6.90688 29.9519 7.02975 30 7.17934 30H32.8203Z" fill="white"/>
</g>
</svg>
