<svg width="1280" height="462" viewBox="0 0 1280 462" fill="none" xmlns="http://www.w3.org/2000/svg">
<g opacity="0.05">
<path d="M505.877 438.538C504.35 438.707 502.718 438.771 500.979 438.771C490.4 438.771 481.77 435.634 475.092 429.339C468.413 423.044 465.063 414.672 465.063 404.245C465.063 393.817 468.456 385.975 475.219 379.829C482.004 373.661 490.484 370.588 500.661 370.588C506.937 370.588 513.001 371.944 518.852 374.678C524.704 377.412 529.135 381.461 532.146 386.802C535.157 392.164 536.662 398.077 536.662 404.584C536.662 412.15 534.69 418.848 530.768 424.655C526.846 430.462 521.142 434.553 513.722 436.884L499.22 444.896C500.216 444.79 501.085 444.748 501.849 444.748C509.036 444.748 517.305 446.358 526.655 449.601C533.842 452.081 539.524 453.331 543.743 453.331C549.574 453.331 553.03 451.127 554.132 446.74H556.168C555.617 451.212 553.751 454.815 550.592 457.613C547.433 460.41 543.319 461.788 538.316 461.788C535.008 461.788 532.019 461.258 529.305 460.177C526.612 459.118 523.093 457.21 518.746 454.455C510.987 449.516 504.52 447.037 499.347 447.037C496.251 447.037 493.241 448.266 490.315 450.724C488.364 452.335 487.028 453.141 486.286 453.141C485.12 453.141 484.548 452.611 484.548 451.551C484.548 450.746 485.247 449.898 486.626 449.05C488.025 448.181 490.633 446.825 494.491 444.96C495.297 444.578 496.103 444.154 496.909 443.709L505.877 438.559V438.538ZM476.194 404.584C476.194 415.16 478.314 423.087 482.534 428.407C486.753 433.705 493.092 436.355 501.531 436.355C508.93 436.355 514.803 433.705 519.107 428.407C523.411 423.108 525.552 415.202 525.552 404.69C525.552 394.177 523.432 386.632 519.192 381.185C514.951 375.738 508.803 373.004 500.746 373.004C492.689 373.004 486.753 375.653 482.534 380.973C478.314 386.293 476.194 394.156 476.194 404.563V404.584Z" fill="#2C766B"/>
<path d="M588.416 423.892C588.416 428.216 588.479 430.95 588.607 432.031C588.734 433.133 589.222 433.96 590.027 434.511C590.854 435.062 592.338 435.337 594.458 435.337V437.563C589.54 437.626 585.956 438.135 583.688 439.11H583.115C582.076 437.329 581.525 434.256 581.462 429.89C579.49 432.963 577.221 435.274 574.698 436.821C572.154 438.368 569.355 439.152 566.281 439.152C563.631 439.152 561.277 438.538 559.242 437.329C557.207 436.121 555.807 434.638 555.044 432.9C554.281 431.162 553.899 428.513 553.899 424.994V411.451C553.899 406.852 553.814 404.054 553.666 403.037C553.518 402.019 552.988 401.277 552.139 400.79C551.27 400.303 549.701 400.069 547.411 400.069V397.844H560.896V425.397C560.896 428.11 561.065 430.081 561.383 431.31C561.701 432.54 562.528 433.62 563.864 434.532C565.2 435.464 566.726 435.909 568.465 435.909C570.945 435.909 573.341 435.104 575.589 433.451C577.857 431.819 579.405 430.081 580.232 428.258C581.059 426.435 581.462 423.829 581.462 420.416V411.451C581.462 407.127 581.419 404.478 581.313 403.545C581.228 402.613 580.804 401.786 580.083 401.087C579.363 400.387 577.836 400.048 575.546 400.048H574.529V397.823H588.416V423.892Z" fill="#2C766B"/>
<path d="M635.696 411.281H607.985C607.858 413.189 607.794 414.609 607.794 415.541C607.794 422.536 608.876 427.771 611.059 431.289C613.243 434.807 616.508 436.545 620.834 436.545C626.728 436.545 630.904 433.917 633.364 428.64H635.696C634.657 431.946 632.601 434.511 629.526 436.376C626.452 438.241 623.102 439.173 619.477 439.173C616.105 439.173 612.925 438.326 609.936 436.63C606.946 434.935 604.487 432.54 602.579 429.424C600.671 426.308 599.716 422.557 599.716 418.127C599.716 411.854 601.561 406.64 605.25 402.486C608.939 398.331 613.54 396.254 619.074 396.254C624.289 396.254 628.318 397.844 631.159 401.002C634 404.181 635.505 407.593 635.675 411.281H635.696ZM627.194 409.353C627.3 408.611 627.343 407.954 627.343 407.36C627.343 404.52 626.516 402.316 624.841 400.748C623.166 399.179 621.13 398.395 618.692 398.395C612.798 398.395 609.3 402.04 608.155 409.353H627.194Z" fill="#2C766B"/>
<path d="M645.491 438.834V425.778H647.378C649.583 433.324 653.506 437.075 659.167 437.075C661.626 437.075 663.471 436.333 664.679 434.85C665.888 433.366 666.502 431.734 666.502 429.954C666.502 427.877 665.845 426.181 664.552 424.867C663.216 423.532 660.651 421.942 656.834 420.056C652.827 418.085 649.944 416.135 648.205 414.227C646.467 412.362 645.576 410.031 645.576 407.297C645.576 404.563 646.509 402.168 648.396 399.794C650.283 397.42 652.912 396.233 656.304 396.233C659.697 396.233 662.622 397.632 664.891 400.451C665.379 399.963 666.015 398.777 666.778 396.911H668.58V409.183H666.778C666.121 406.237 664.87 403.715 663.025 401.595C661.159 399.476 658.976 398.416 656.453 398.416C654.502 398.416 652.933 399.01 651.746 400.218C650.559 401.426 649.944 402.803 649.944 404.393C649.944 406.131 650.601 407.636 651.937 408.908C653.23 410.2 655.711 411.663 659.357 413.316C664.849 415.796 668.22 418.233 669.449 420.586C670.679 422.981 671.294 425.27 671.294 427.474C671.294 430.929 670.149 433.748 667.88 435.909C665.591 438.071 662.729 439.152 659.273 439.152C655.626 439.152 652.361 437.647 649.52 434.638C648.65 435.613 647.93 436.99 647.378 438.813H645.491V438.834Z" fill="#2C766B"/>
<path d="M703.86 400.069H691.881V424.083C691.881 427.771 692.051 430.251 692.369 431.522C692.687 432.794 693.386 433.832 694.425 434.595C695.485 435.38 696.609 435.761 697.796 435.761C700.129 435.761 702.143 434.426 703.86 431.777L705.408 432.688C704.411 434.829 702.927 436.439 700.977 437.52C699.026 438.601 697.033 439.152 695.04 439.152C692.708 439.152 690.673 438.474 688.892 437.096C687.132 435.719 686.029 434.108 685.584 432.264C685.139 430.42 684.927 427.198 684.927 422.557V400.048H679.16V397.823C681.81 397.759 684.185 396.636 686.284 394.474C688.383 392.312 689.718 389.26 690.312 385.36H691.86V397.823H703.839V400.048L703.86 400.069Z" fill="#2C766B"/>
<path d="M727.055 396.254V423.956C727.055 428.195 727.119 430.865 727.246 431.967C727.373 433.069 727.839 433.917 728.645 434.489C729.451 435.062 730.893 435.358 732.97 435.358H733.988V437.584H712.595V435.358H714.249C716.539 435.358 718.044 435.019 718.744 434.362C719.443 433.705 719.846 432.9 719.952 431.988C720.058 431.077 720.122 428.385 720.122 423.956V411.917C720.122 407.254 719.91 404.414 719.465 403.376C719.019 402.337 718.447 401.701 717.726 401.426C717.005 401.171 715.733 401.044 713.91 401.044H712.595V398.819C718.362 398.225 722.815 397.378 725.995 396.254H727.055ZM717.684 375.971C717.684 374.572 718.171 373.385 719.168 372.389C720.143 371.393 721.352 370.884 722.73 370.884C724.108 370.884 725.295 371.393 726.27 372.389C727.246 373.385 727.733 374.593 727.733 375.971C727.733 377.349 727.246 378.599 726.27 379.617C725.295 380.634 724.129 381.121 722.73 381.121C721.33 381.121 720.143 380.613 719.168 379.617C718.171 378.62 717.684 377.412 717.684 375.971Z" fill="#2C766B"/>
<path d="M739.755 417.64C739.755 411.557 741.79 406.47 745.861 402.38C749.932 398.289 754.957 396.254 760.893 396.254C766.83 396.254 771.918 398.31 775.989 402.422C780.06 406.534 782.095 411.599 782.095 417.661C782.095 424.358 780.017 429.615 775.883 433.451C771.749 437.287 766.745 439.195 760.893 439.195C755.041 439.195 750.038 437.245 745.925 433.345C741.79 429.445 739.734 424.21 739.734 417.661L739.755 417.64ZM747.812 417.873C747.812 424.931 748.956 429.869 751.246 432.688C753.536 435.507 756.759 436.927 760.893 436.927C765.028 436.927 768.377 435.507 770.625 432.688C772.872 429.869 773.996 424.909 773.996 417.873C773.996 410.836 772.872 405.898 770.646 402.931C768.42 399.963 765.155 398.459 760.893 398.459C756.632 398.459 753.409 399.942 751.161 402.888C748.914 405.834 747.79 410.836 747.79 417.852L747.812 417.873Z" fill="#2C766B"/>
<path d="M799.438 396.254H800.753C801.495 398.268 801.919 401.002 802.004 404.457C804.336 401.701 806.774 399.645 809.339 398.289C811.905 396.933 814.555 396.254 817.354 396.254C820.534 396.254 823.121 396.911 825.135 398.247C827.149 399.582 828.464 401.193 829.036 403.121C829.608 405.05 829.905 407.848 829.905 411.536V423.956C829.905 428.555 829.99 431.353 830.139 432.349C830.287 433.345 830.817 434.108 831.665 434.595C832.513 435.083 834.103 435.337 836.393 435.337V437.563H816.06V435.337H816.972C819.304 435.337 820.831 434.998 821.531 434.32C822.23 433.642 822.654 432.857 822.739 431.946C822.845 431.035 822.887 428.364 822.887 423.935V411.133C822.887 407.996 822.739 405.75 822.421 404.414C822.124 403.079 821.297 401.892 819.94 400.854C818.583 399.815 816.887 399.306 814.831 399.306C812.477 399.306 810.209 400.006 808.067 401.426C805.926 402.825 803.891 404.944 801.982 407.763V423.956C801.982 428.555 802.067 431.353 802.258 432.349C802.449 433.345 802.958 434.108 803.806 434.595C804.654 435.083 806.265 435.337 808.576 435.337V437.563H788.498V435.337C790.724 435.337 792.293 435.104 793.162 434.659C794.032 434.214 794.583 433.514 794.795 432.603C795.007 431.692 795.113 428.788 795.113 423.935V412.108C795.113 407.487 795.028 404.69 794.837 403.694C794.668 402.719 794.138 401.956 793.29 401.468C792.442 400.981 790.83 400.726 788.519 400.726V398.501C792.081 398.119 795.707 397.378 799.438 396.276V396.254Z" fill="#2C766B"/>
<path d="M855.56 396.254V423.956C855.56 428.195 855.623 430.865 855.75 431.967C855.878 433.069 856.344 433.917 857.15 434.489C857.955 435.062 859.397 435.358 861.475 435.358H862.493V437.584H841.1V435.358H842.754C845.043 435.358 846.549 435.019 847.248 434.362C847.948 433.705 848.351 432.9 848.457 431.988C848.563 431.077 848.627 428.385 848.627 423.956V411.917C848.627 407.254 848.415 404.414 847.969 403.376C847.524 402.337 846.952 401.701 846.231 401.426C845.51 401.171 844.238 401.044 842.414 401.044H841.1V398.819C846.867 398.225 851.319 397.378 854.499 396.254H855.56ZM846.188 375.971C846.188 374.572 846.676 373.385 847.672 372.389C848.648 371.393 849.856 370.884 851.234 370.884C852.612 370.884 853.8 371.393 854.775 372.389C855.75 373.385 856.238 374.593 856.238 375.971C856.238 377.349 855.75 378.599 854.775 379.617C853.8 380.634 852.634 381.121 851.234 381.121C849.835 381.121 848.648 380.613 847.672 379.617C846.676 378.62 846.188 377.412 846.188 375.971Z" fill="#2C766B"/>
<path d="M878.564 396.254H879.878C880.62 398.268 881.044 401.002 881.129 404.457C883.461 401.701 885.899 399.645 888.465 398.289C891.03 396.933 893.681 396.254 896.479 396.254C899.659 396.254 902.246 396.911 904.26 398.247C906.274 399.582 907.589 401.193 908.161 403.121C908.734 405.05 909.031 407.848 909.031 411.536V423.956C909.031 428.555 909.115 431.353 909.264 432.349C909.412 433.345 909.942 434.108 910.79 434.595C911.638 435.083 913.229 435.337 915.518 435.337V437.563H895.186V435.337H896.098C898.43 435.337 899.956 434.998 900.656 434.32C901.356 433.642 901.78 432.857 901.864 431.946C901.97 431.035 902.013 428.364 902.013 423.935V411.133C902.013 407.996 901.865 405.75 901.546 404.414C901.25 403.079 900.423 401.892 899.066 400.854C897.709 399.815 896.013 399.306 893.956 399.306C891.603 399.306 889.334 400.006 887.193 401.426C885.051 402.825 883.016 404.944 881.108 407.763V423.956C881.108 428.555 881.193 431.353 881.383 432.349C881.574 433.345 882.083 434.108 882.931 434.595C883.779 435.083 885.391 435.337 887.702 435.337V437.563H867.623V435.337C869.85 435.337 871.419 435.104 872.288 434.659C873.157 434.214 873.708 433.514 873.92 432.603C874.132 431.692 874.238 428.788 874.238 423.935V412.108C874.238 407.487 874.154 404.69 873.963 403.694C873.793 402.719 873.263 401.956 872.415 401.468C871.567 400.981 869.956 400.726 867.645 400.726V398.501C871.207 398.119 874.832 397.378 878.564 396.276V396.254Z" fill="#2C766B"/>
<path d="M951.244 401.341C954 398.247 956.777 396.678 959.597 396.678C961.145 396.678 962.353 397.102 963.223 397.95C964.092 398.798 964.516 399.709 964.516 400.705C964.516 402.846 963.541 403.906 961.611 403.906C960.551 403.906 959.618 403.249 958.855 401.913C958.134 400.684 957.392 400.069 956.629 400.069C955.399 400.069 954.042 400.917 952.558 402.592C954.233 405.241 955.081 408.06 955.081 411.027C955.081 414.906 953.682 418.339 950.904 421.306C948.127 424.316 943.42 425.927 936.826 426.16C929.978 426.393 926.543 427.771 926.543 430.335C926.543 431.522 927.328 432.37 928.876 432.857C930.402 433.366 933.604 433.769 938.48 434.023C943.823 434.277 947.936 434.765 950.798 435.507C953.682 436.227 955.972 437.69 957.689 439.894C959.406 442.098 960.254 444.705 960.254 447.757C960.254 452.017 958.516 455.472 955.018 458.079C951.519 460.707 946.494 462 939.922 462C933.901 462 929.088 460.834 925.462 458.503C921.837 456.171 920.034 453.225 920.034 449.665C920.034 447.694 920.543 446.083 921.582 444.811C922.621 443.561 924.084 442.925 925.992 442.925C926.501 442.925 926.968 443.01 927.392 443.179C925.377 445.383 924.381 447.715 924.381 450.152C924.381 452.992 925.717 455.345 928.388 457.21C931.06 459.075 935.045 460.008 940.346 460.008C945.074 460.008 948.742 459.054 951.392 457.168C954.021 455.281 955.357 452.865 955.357 449.919C955.357 446.676 954.169 444.409 951.816 443.073C949.463 441.78 945.244 440.996 939.201 440.742C932.247 440.445 927.731 439.597 925.653 438.177C923.575 436.778 922.557 434.998 922.557 432.794C922.557 428.555 925.526 425.884 931.441 424.782C928.367 422.981 926.056 420.904 924.508 418.572C922.96 416.241 922.176 413.634 922.176 410.751C922.176 406.703 923.766 403.27 926.946 400.451C930.127 397.632 933.901 396.212 938.268 396.212C943.675 396.212 948 397.908 951.265 401.299L951.244 401.341ZM929.406 411.917C929.406 416.092 930.254 419.145 931.971 421.094C933.688 423.044 935.872 423.998 938.523 423.998C940.982 423.998 943.081 423.044 944.862 421.116C946.622 419.187 947.512 415.859 947.512 411.091C947.512 406.322 946.579 403.015 944.692 401.193C942.805 399.37 940.706 398.48 938.332 398.48C935.363 398.48 933.116 399.603 931.632 401.829C930.148 404.054 929.406 407.424 929.406 411.917Z" fill="#2C766B"/>
<path d="M1051.78 439.089L1005.24 377.434V423.087C1005.24 426.881 1005.44 429.36 1005.8 430.547C1006.16 431.734 1007.24 432.836 1008.98 433.854C1010.71 434.85 1013.34 435.358 1016.84 435.358V437.584H992.29V435.358C995.428 435.125 997.824 434.553 999.478 433.642C1001.13 432.73 1002.11 431.734 1002.4 430.653C1002.7 429.593 1002.87 427.071 1002.87 423.087V388.2C1002.87 383.156 1002.64 379.786 1002.17 378.069C1001.7 376.353 1000.96 375.251 999.944 374.763C998.927 374.276 996.658 374.042 993.139 374.042V371.817H1012.54L1051.51 423.277V383.94C1051.51 381.037 1051.21 379.002 1050.62 377.836C1050.02 376.671 1048.79 375.759 1046.95 375.081C1045.1 374.403 1042.88 374.064 1040.29 374.064V371.838H1064.16V374.064C1061.39 374.297 1059.18 374.827 1057.59 375.653C1056 376.501 1054.96 377.497 1054.54 378.684C1054.12 379.871 1053.88 381.863 1053.88 384.682V439.11H1051.8L1051.78 439.089Z" fill="#2C766B"/>
<path d="M1106.42 430.293H1108.22C1107.93 435.825 1105.21 438.58 1100.08 438.58C1097.88 438.58 1096.14 438.008 1094.87 436.842C1093.59 435.676 1092.74 433.938 1092.36 431.649C1089.12 433.938 1086.17 435.676 1083.5 436.842C1080.83 438.008 1078.45 438.58 1076.33 438.58C1073.64 438.58 1071.33 437.796 1069.4 436.249C1067.45 434.701 1066.5 432.645 1066.5 430.081C1066.5 426.753 1068.13 423.85 1071.37 421.349C1074.62 418.869 1079.11 416.432 1084.84 414.079L1092.36 411.027V409.077C1092.36 406.322 1092.19 404.329 1091.83 403.1C1091.47 401.871 1090.56 400.769 1089.08 399.794C1087.59 398.819 1085.64 398.331 1083.2 398.331C1078.35 398.331 1075.66 399.942 1075.1 403.185C1074.6 406.491 1073.22 408.123 1071.03 408.123C1069.06 408.123 1068.07 407.191 1068.07 405.304C1068.07 403.418 1069.38 401.489 1071.99 399.37C1074.62 397.25 1078.69 396.191 1084.22 396.191C1088.34 396.191 1091.52 396.827 1093.78 398.141C1096.05 399.434 1097.54 400.896 1098.28 402.549C1099 404.202 1099.38 406.724 1099.38 410.116V426.181C1099.38 429.933 1099.57 432.349 1099.95 433.409C1100.34 434.468 1101.18 434.998 1102.48 434.998C1104.62 434.998 1105.93 433.408 1106.46 430.25L1106.42 430.293ZM1092.34 413.316L1087.04 415.457C1078.69 418.848 1074.53 423.129 1074.53 428.258C1074.53 430.293 1075.06 431.946 1076.12 433.175C1077.18 434.426 1078.58 435.04 1080.3 435.04C1081.83 435.04 1083.59 434.532 1085.58 433.536C1087.57 432.54 1089.84 431.035 1092.32 429.021V413.295L1092.34 413.316Z" fill="#2C766B"/>
<path d="M1136.99 400.069H1125.01V424.083C1125.01 427.771 1125.18 430.251 1125.5 431.522C1125.82 432.794 1126.52 433.832 1127.56 434.595C1128.62 435.38 1129.74 435.761 1130.93 435.761C1133.26 435.761 1135.28 434.426 1136.99 431.777L1138.54 432.688C1137.54 434.829 1136.06 436.439 1134.11 437.52C1132.16 438.601 1130.17 439.152 1128.17 439.152C1125.84 439.152 1123.81 438.474 1122.02 437.096C1120.27 435.719 1119.16 434.108 1118.72 432.264C1118.27 430.42 1118.06 427.198 1118.06 422.557V400.048H1112.29V397.823C1114.94 397.759 1117.32 396.636 1119.42 394.474C1121.52 392.312 1122.85 389.26 1123.45 385.36H1124.99V397.823H1136.97V400.048L1136.99 400.069Z" fill="#2C766B"/>
<path d="M1186.35 423.892C1186.35 428.216 1186.42 430.95 1186.54 432.031C1186.67 433.133 1187.16 433.96 1187.96 434.511C1188.79 435.062 1190.27 435.337 1192.39 435.337V437.563C1187.48 437.626 1183.89 438.135 1181.62 439.11H1181.05C1180.01 437.329 1179.46 434.256 1179.4 429.89C1177.43 432.963 1175.16 435.274 1172.63 436.821C1170.09 438.368 1167.29 439.152 1164.22 439.152C1161.57 439.152 1159.21 438.538 1157.18 437.329C1155.14 436.121 1153.74 434.638 1152.98 432.9C1152.22 431.162 1151.83 428.513 1151.83 424.994V411.451C1151.83 406.852 1151.75 404.054 1151.6 403.037C1151.45 402.019 1150.92 401.277 1150.07 400.79C1149.21 400.303 1147.64 400.069 1145.35 400.069V397.844H1158.83V425.397C1158.83 428.11 1159 430.081 1159.32 431.31C1159.64 432.54 1160.46 433.62 1161.8 434.532C1163.14 435.464 1164.66 435.909 1166.4 435.909C1168.88 435.909 1171.28 435.104 1173.52 433.451C1175.79 431.819 1177.34 430.081 1178.17 428.258C1178.99 426.435 1179.4 423.829 1179.4 420.416V411.451C1179.4 407.127 1179.35 404.478 1179.25 403.545C1179.16 402.613 1178.74 401.786 1178.02 401.087C1177.3 400.387 1175.77 400.048 1173.48 400.048H1172.46V397.823H1186.35V423.892Z" fill="#2C766B"/>
<path d="M1212.49 406.385C1213.6 403.503 1215.38 401.087 1217.86 399.158C1220.34 397.208 1222.76 396.254 1225.11 396.254C1227.25 396.254 1228.92 396.911 1230.15 398.247C1231.38 399.582 1232 400.938 1232 402.316C1232 403.249 1231.68 404.054 1231.04 404.732C1230.41 405.41 1229.65 405.75 1228.73 405.75C1227.12 405.75 1225.89 404.563 1225.04 402.168C1224.45 400.557 1223.58 399.751 1222.42 399.751C1221.02 399.751 1219.36 400.705 1217.41 402.592C1215.46 404.478 1214.23 406.449 1213.68 408.484C1213.13 410.518 1212.85 413.316 1212.85 416.877V423.956C1212.85 428.195 1212.92 430.865 1213.02 431.967C1213.13 433.069 1213.6 433.917 1214.4 434.489C1215.21 435.062 1216.65 435.358 1218.73 435.358H1220.08V437.584H1198.97V435.358H1199.98C1201.93 435.358 1203.31 435.083 1204.14 434.553C1204.97 434.023 1205.45 433.26 1205.62 432.306C1205.79 431.331 1205.86 428.555 1205.86 423.956V412.744C1205.86 408.484 1205.79 405.792 1205.69 404.711C1205.58 403.63 1205.11 402.782 1204.31 402.189C1203.5 401.595 1202.06 401.299 1199.98 401.299H1198.97V399.116C1202 398.755 1205.98 397.802 1210.9 396.254C1211.84 398.819 1212.37 402.189 1212.45 406.385H1212.49Z" fill="#2C766B"/>
<path d="M1273.36 411.281H1245.65C1245.53 413.189 1245.46 414.609 1245.46 415.541C1245.46 422.536 1246.54 427.771 1248.73 431.289C1250.91 434.807 1254.18 436.545 1258.5 436.545C1264.4 436.545 1268.57 433.917 1271.03 428.64H1273.36C1272.32 431.946 1270.27 434.511 1267.19 436.376C1264.12 438.241 1260.77 439.173 1257.14 439.173C1253.77 439.173 1250.59 438.326 1247.6 436.63C1244.61 434.935 1242.15 432.54 1240.25 429.424C1238.34 426.308 1237.38 422.557 1237.38 418.127C1237.38 411.854 1239.23 406.64 1242.92 402.486C1246.61 398.331 1251.21 396.254 1256.74 396.254C1261.96 396.254 1265.99 397.844 1268.83 401.002C1271.67 404.181 1273.17 407.593 1273.34 411.281H1273.36ZM1264.88 409.353C1264.99 408.611 1265.03 407.954 1265.03 407.36C1265.03 404.52 1264.2 402.316 1262.53 400.748C1260.85 399.179 1258.82 398.395 1256.38 398.395C1250.49 398.395 1246.99 402.04 1245.84 409.353H1264.88Z" fill="#2C766B"/>
<path d="M281.964 318.915V315.058H289.915C304.565 315.058 314.615 313.129 320.636 309.166C326.806 305.118 330.813 298.802 332.53 290.409C334.12 282.651 334.884 265.378 334.884 237.613V30.0751L327.972 28.6127L199.722 318.915H193.107L63.9237 28.5915L57.0331 30.054V221.017C57.0331 247.595 57.8387 265.272 59.4925 275.021C61.231 285.301 66.6587 294.393 75.6271 302.044C83.8958 309.102 95.2601 313.383 109.487 314.782V318.915H0V314.803C13.124 313.553 24.0853 309.547 32.6509 302.871C42.0645 295.538 47.8951 286.36 49.9728 275.572C51.9658 265.314 52.9199 247.002 52.9199 219.576V77.6782C52.9199 51.2274 52.1566 34.5472 50.5665 26.7052C48.8279 18.1638 45.0328 12.1021 39.2447 8.68979C33.7322 5.42582 22.6224 3.85742 5.30047 3.85742H0V0H93.4155L215.348 275.17L336.537 0H430.674V3.85742H422.257C405.465 3.85742 394.588 5.29865 389.033 8.2447C383.118 11.3815 379.153 17.1676 377.224 25.3911C375.464 32.9576 374.595 50.0617 374.595 77.6782V237.613C374.595 263.724 375.231 280.383 376.567 288.565C377.987 297.424 381.761 304.164 387.719 308.572C393.613 312.938 404.108 315.058 419.818 315.058H430.653V318.915H281.964Z" fill="#2C766B"/>
<path d="M546.033 326.863C518.089 326.863 493.94 317.453 474.286 298.865C454.674 280.341 444.731 255.056 444.731 223.688C444.731 194.672 454.568 170.087 473.989 150.588C493.41 131.11 517.644 121.233 546.012 121.233C574.38 121.233 598.868 131.152 618.268 150.715C637.689 170.277 647.527 194.842 647.527 223.688C647.527 255.671 637.562 281.125 617.886 299.331C598.147 317.601 573.956 326.863 545.991 326.863H546.033ZM546.033 125.069C523.941 125.069 506.725 132.954 494.916 148.489C483.339 163.728 477.466 189.416 477.466 224.875C477.466 260.333 483.318 285.788 495.361 300.624C507.403 315.46 524.471 323.006 546.033 323.006C567.596 323.006 585.278 315.461 597.087 300.603C608.854 285.767 614.6 261.012 614.6 224.896C614.6 188.78 608.77 163.983 597.278 148.659C585.554 133.017 568.295 125.091 546.033 125.091V125.069Z" fill="#2C766B"/>
<path d="M821.615 318.915V315.058H822.569C835.206 315.058 843.411 313.087 847.672 309.017C851.828 305.054 854.203 300.349 854.775 295.008C855.284 290.345 855.517 277.225 855.517 254.95V191.451C855.517 175.491 854.733 164.322 853.143 157.328C851.425 149.867 846.867 143.233 839.552 137.595C832.28 131.979 822.993 129.139 811.969 129.139C799.608 129.139 787.65 132.848 776.434 140.181C765.409 147.387 754.914 158.281 745.225 172.566L744.61 173.478V254.908C744.61 278.116 745.055 291.935 745.988 297.148C747.048 303.189 750.229 307.788 755.423 310.819C759.791 313.362 766.978 314.74 777.325 314.994V318.894H684.927V314.994C694.764 314.761 701.698 313.532 706.086 311.264C711.366 308.53 714.715 304.27 716.009 298.653C717.111 293.778 717.662 279.472 717.662 254.929V196.241C717.662 172.906 717.217 159.044 716.284 153.873C715.203 147.917 712.044 143.36 706.85 140.329C702.482 137.765 695.294 136.408 684.927 136.154V131.873C701.549 129.859 718.701 126.277 735.981 121.191H739.394C742.426 130.516 744.186 142.979 744.61 158.324L744.865 167.734L750.949 160.549C762.144 147.324 774.017 137.341 786.208 130.855C798.293 124.434 811.078 121.17 824.223 121.17C839.149 121.17 851.468 124.285 860.86 130.432C870.104 136.493 876.125 143.975 878.754 152.622C881.532 161.778 882.931 175.47 882.931 193.316V254.886C882.931 278.073 883.334 291.871 884.182 297.064C885.157 303.125 888.295 307.746 893.511 310.777C897.857 313.32 904.981 314.698 915.179 314.952V318.852H821.594L821.615 318.915Z" fill="#2C766B"/>
<path d="M1038.11 326.863C1022.14 326.863 1006.84 322.773 992.609 314.698C978.382 306.622 966.551 295.029 957.456 280.235C948.381 265.484 943.802 247.277 943.802 226.083C943.802 196.029 952.728 170.744 970.325 150.906C987.817 131.195 1009.97 121.212 1036.2 121.212C1060.84 121.212 1080.09 128.736 1093.42 143.593C1105.91 157.497 1113.04 172.63 1114.6 188.568H977.725L977.492 191.938C976.856 201.434 976.516 208.64 976.516 213.345C976.516 248.507 982.156 275.403 993.308 293.291C1004.78 311.73 1022.12 321.098 1044.85 321.098C1074.64 321.098 1096.29 307.915 1109.2 281.888H1113.37C1108.14 295.114 1098.96 305.753 1086.05 313.553C1071.44 322.391 1055.32 326.863 1038.11 326.863ZM1034.27 124.582C1003.17 124.582 984.403 143.89 978.509 181.998L977.873 186.152H1079.56L1079.96 183.015C1080.47 179.179 1080.72 175.703 1080.72 172.694C1080.72 157.624 1076.17 145.692 1067.2 137.235C1058.27 128.842 1047.2 124.582 1034.29 124.582H1034.27Z" fill="#2C766B"/>
<path d="M1233.25 326.863C1222.59 326.863 1213.09 323.684 1205.03 317.41C1196.99 311.137 1191.93 303.782 1189.96 295.495C1187.86 286.678 1186.8 270.761 1186.8 248.231V133.039H1158.17V128.969C1170.85 127.803 1182.39 121.933 1192.52 111.484C1202.87 100.823 1209.74 85.9865 1212.98 67.3565H1214V129.16H1273.43V133.017H1214V255.671C1214 274.428 1214.83 286.805 1216.52 293.482C1218.32 300.603 1222.22 306.432 1228.1 310.777C1233.93 315.079 1240.27 317.262 1246.97 317.262C1258.86 317.262 1269.34 311.052 1278.11 298.759L1280 299.882C1275.44 308.297 1269.04 314.803 1260.98 319.276C1251.87 324.32 1242.54 326.884 1233.25 326.884V326.863Z" fill="#2C766B"/>
</g>
</svg>
