<svg width="92" height="27" viewBox="0 0 92 27" fill="none" xmlns="http://www.w3.org/2000/svg">
<path d="M26.8889 0.906916C24.8314 0.315538 22.6884 1.51737 22.1006 3.58719L19.2844 13.488L12.2962 2.54751C11.4713 1.25984 9.98261 0.573073 8.47498 0.801994C6.96735 1.02138 5.73469 2.11829 5.31749 3.58719L0.149818 21.7673C-0.438063 23.8371 0.756664 25.9928 2.81425 26.5842C3.17456 26.6891 3.5254 26.7368 3.87623 26.7368C5.56402 26.7368 7.10958 25.6208 7.60264 23.9134L10.4093 14.0126L17.3975 24.9531C18.2224 26.2408 19.7206 26.9275 21.2282 26.6986C22.7358 26.4792 23.9685 25.3823 24.3857 23.9134L29.5534 5.72379C30.1413 3.65396 28.9465 1.49829 26.8889 0.906916Z" fill="black"/>
<path d="M58.5302 0.906916C56.4726 0.315538 54.3297 1.51737 53.7418 3.58719L51.9023 10.0447H43.1695L44.3926 5.72379C44.9805 3.65396 43.7858 1.49829 41.7282 0.906916C39.6706 0.315538 37.5277 1.51737 36.9398 3.58719L31.7721 21.7824C31.1843 23.8467 32.379 26.0023 34.4366 26.5937C34.7969 26.6986 35.1477 26.7463 35.4986 26.7463C37.1863 26.7463 38.7319 25.6303 39.225 23.923L41.0645 17.4655H49.7974L48.5742 21.7864C47.9863 23.8562 49.181 26.0119 51.2386 26.6032C51.5989 26.7082 51.9498 26.7559 52.3006 26.7559C53.9884 26.7559 55.5339 25.6399 56.027 23.9325L61.1947 5.74286C61.7825 3.67304 60.5878 1.51737 58.5302 0.925993V0.906916Z" fill="black"/>
<path d="M91.224 2.29952C89.9345 0.582612 87.4976 0.248769 85.8003 1.54599L74.8677 9.87297L76.0434 5.72379C76.6313 3.65396 75.4366 1.49829 73.3885 0.906916C71.3309 0.315538 69.188 1.51737 68.6001 3.58719L63.4324 21.7768C62.8445 23.8467 64.0393 26.0023 66.0968 26.5937C66.4572 26.6986 66.808 26.7463 67.1588 26.7463C68.8466 26.7463 70.3922 25.6303 70.8852 23.923L73.104 16.1015C73.1419 16.1492 73.1799 16.1778 73.2178 16.216C73.2652 16.2732 73.3031 16.34 73.3505 16.3972L81.7421 25.4873C82.5006 26.3171 83.5436 26.7368 84.5772 26.7368C85.5254 26.7368 86.4641 26.3934 87.2132 25.6971C88.7777 24.2282 88.8725 21.7673 87.4123 20.1935L81.9317 14.2606L90.4655 7.76499C92.1722 6.46778 92.5041 4.02596 91.2145 2.30905L91.224 2.29952Z" fill="black"/>
</svg>
