<svg width="172" height="79" viewBox="0 0 172 79" fill="none" xmlns="http://www.w3.org/2000/svg">
<path d="M172 0.755859H0V78.7559H172V0.755859Z" fill="white"/>
<path d="M22.0194 20.2857C22.1022 20.2029 22.1866 20.1121 22.2694 20.023H22.2678C22.4239 19.8462 22.5768 19.679 22.7568 19.5245C22.8109 19.4752 22.8651 19.4322 22.916 19.3971C22.9304 19.3828 22.9304 19.3525 22.9463 19.3382C22.873 19.3685 22.8284 19.4258 22.7552 19.456C22.7408 19.456 22.7249 19.4417 22.7408 19.4258C22.7934 19.3876 22.846 19.3478 22.8969 19.308H22.8874C22.873 19.308 22.873 19.2936 22.873 19.2777C22.6819 19.2474 22.5354 19.3796 22.4032 19.4975C22.3729 19.5118 22.3443 19.4831 22.3299 19.4831C22.1102 19.5564 21.9493 19.7475 21.7279 19.8351V19.8048C21.6403 19.8351 21.5543 19.8876 21.4636 19.9083C21.3314 19.9386 21.2151 19.9226 21.0973 19.9226C20.9189 19.9402 20.7421 19.98 20.5637 20.0182C20.559 20.0182 20.5542 20.0214 20.5478 20.0214C20.4523 20.0468 20.3631 20.0835 20.2755 20.1312C20.2723 20.1328 20.2691 20.1344 20.2659 20.136C20.258 20.1456 20.2516 20.1535 20.2452 20.1615C20.2134 20.1965 20.1863 20.2284 20.1449 20.2491C20.0557 20.2953 19.9809 20.3749 19.9012 20.4402C19.8964 20.445 19.8869 20.4466 19.8773 20.4481C19.7993 20.5246 19.7213 20.5994 19.6416 20.6743C19.6368 20.6791 19.613 20.6822 19.597 20.6791C19.6002 20.6743 19.6018 20.6695 19.605 20.6647C19.6177 20.644 19.6305 20.6233 19.6432 20.6026C19.6576 20.5787 19.6719 20.558 19.6862 20.5341C19.7069 20.5039 19.7276 20.4736 19.7483 20.445C19.7531 20.437 19.7515 20.4306 19.7483 20.4259C19.7436 20.4211 19.7356 20.4179 19.7276 20.4179C19.8009 20.3462 19.8885 20.2857 19.9745 20.2332V20.23C19.9649 20.2332 19.9506 20.2252 19.9586 20.2156C19.9681 20.2029 19.9745 20.1886 19.984 20.1758C19.9856 20.1711 19.9872 20.1679 19.9888 20.1631C19.9856 20.1599 19.9809 20.1551 19.9777 20.1504C19.9538 20.1663 19.9283 20.1806 19.9092 20.1981C19.8741 20.23 19.8455 20.2937 19.7929 20.2937C19.7897 20.2937 19.7786 20.2937 19.7706 20.2905C19.7643 20.2905 19.7579 20.2873 19.7547 20.2857C19.7547 20.2857 19.7547 20.2841 19.7563 20.2825L19.7595 20.2762C19.7611 20.2714 19.7643 20.2682 19.7674 20.2634C19.7706 20.2586 19.7722 20.2555 19.7754 20.2507C19.777 20.2475 19.7786 20.2443 19.7802 20.2411C19.7834 20.2348 19.7866 20.2284 19.7897 20.222C19.7929 20.2172 19.7945 20.2125 19.7977 20.2093C19.8041 20.1981 19.8104 20.1886 19.8168 20.1774C19.82 20.1727 19.8232 20.1679 19.8264 20.1615C19.8311 20.152 19.8359 20.144 19.8423 20.1344C19.8503 20.1217 19.8423 20.1121 19.8311 20.109C19.8582 20.0739 19.8917 20.0437 19.9315 20.0214H19.9267C19.9824 19.9927 20.0382 19.9577 20.0955 19.9274C20.1035 19.9195 20.1114 19.9131 20.1194 19.9067C20.0366 19.9338 19.9601 19.972 19.8869 20.0214C19.8869 20.0214 19.8678 20.0293 19.8614 20.0341C19.8614 20.0341 19.8455 20.0405 19.8248 20.0214C19.8232 20.0182 19.8216 20.0166 19.8216 20.0102C19.8359 19.98 19.8805 19.9656 19.9092 19.937C19.9235 19.937 19.9394 19.937 19.9394 19.9513C20.4093 19.585 21.0543 19.6726 21.5973 19.4815C21.6419 19.4513 21.6849 19.4226 21.7295 19.3939C21.8028 19.3637 21.8617 19.292 21.9493 19.2474C22.0672 19.1599 22.1548 19.0563 22.1978 18.9098C22.1978 18.8955 22.1834 18.8796 22.1834 18.8796C21.9923 19.085 21.7725 19.2458 21.5384 19.3637C21.231 19.5245 20.8934 19.4959 20.5701 19.5389C20.5844 19.5086 20.6147 19.5086 20.6434 19.5086C20.6434 19.464 20.6736 19.4497 20.7023 19.421H20.7469C20.7612 19.421 20.7612 19.3908 20.7772 19.3908C20.8074 19.3908 20.8504 19.3764 20.8361 19.3764C20.7915 19.3175 20.7039 19.421 20.6306 19.3764C20.6609 19.3462 20.645 19.3032 20.6752 19.2888H20.7342C20.7342 19.2586 20.7644 19.2299 20.7644 19.2299C20.9842 19.0977 21.1896 18.9942 21.3951 18.878C21.3505 18.878 21.3218 18.9226 21.2772 18.8923C21.3075 18.8923 21.2772 18.8477 21.3075 18.8477C21.4683 18.8031 21.6005 18.7156 21.7614 18.6566C21.7025 18.6566 21.6595 18.7012 21.6005 18.6566C21.6308 18.6423 21.6451 18.612 21.6881 18.612V18.5675C21.6881 18.5531 21.7025 18.5531 21.7184 18.5531C21.7041 18.5531 21.6881 18.5388 21.6881 18.5388C21.7025 18.5085 21.7471 18.5245 21.7757 18.4942C21.7614 18.4942 21.7311 18.4942 21.7311 18.4799C21.7757 18.421 21.849 18.4066 21.9222 18.3923C21.9079 18.362 21.8633 18.3923 21.8633 18.362C21.8633 18.3477 21.8776 18.3477 21.8936 18.3477H21.8633C21.8331 18.3334 21.849 18.3031 21.849 18.2888C21.9366 18.1869 21.9366 18.0531 21.9812 17.9368C21.9668 17.9368 21.9509 17.9368 21.9509 17.9225C21.8044 18.0834 21.5703 18.1423 21.3489 18.2012H21.2756C21.2024 18.2315 21.1005 18.2315 21.0272 18.1869C20.9683 18.1566 20.9396 18.1136 20.8807 18.069C20.7628 17.9958 20.645 17.9368 20.5144 17.8939C20.1481 17.776 19.7659 17.7187 19.3852 17.733C19.5461 17.6454 19.7244 17.6375 19.898 17.5865C20.1465 17.5133 20.3822 17.4257 20.6466 17.44C20.602 17.4257 20.5446 17.44 20.5 17.44C20.2946 17.4257 20.0891 17.4846 19.8694 17.5276C19.7228 17.5578 19.5907 17.6152 19.4441 17.6454C19.3566 17.6757 19.312 17.7633 19.2084 17.7473V17.7028C19.355 17.5276 19.5317 17.3508 19.7659 17.3365C20.0302 17.2919 20.2787 17.3365 20.543 17.3667C20.7342 17.3811 20.9093 17.4257 21.1005 17.4687C21.1737 17.4687 21.188 17.5865 21.247 17.6008C21.3346 17.6311 21.4222 17.6008 21.5113 17.6598C21.5113 17.6295 21.497 17.6008 21.5113 17.5722C21.5703 17.5133 21.6435 17.5865 21.7025 17.5578C21.8203 17.4846 21.6005 17.3524 21.5416 17.2489C21.5416 17.2346 21.5559 17.2187 21.5559 17.2187C21.6738 17.3206 21.7614 17.4384 21.9079 17.5117C21.9812 17.5419 22.1564 17.5849 22.1277 17.4973C22.0544 17.3365 21.9079 17.2043 21.7901 17.0578V16.9989C21.7598 16.9989 21.7598 16.9846 21.7455 16.9686V16.9097C21.6865 16.8795 21.7009 16.8221 21.6722 16.7775C21.6276 16.7043 21.6579 16.6024 21.6276 16.5132C21.5973 16.4256 21.583 16.3524 21.5687 16.2648C21.5241 16.0163 21.4668 15.795 21.4365 15.5609C21.4062 15.2822 21.5973 15.0625 21.7295 14.8125C21.8315 14.6373 21.9493 14.4605 22.1404 14.3427C22.185 14.1675 22.3013 14.0194 22.4191 13.8729C22.537 13.7296 22.7313 13.642 22.8714 13.5799C23.0753 13.4875 23.2616 13.4302 23.2616 13.4302H13.1979V21.1902H20.3264C20.6052 20.9896 20.8839 20.894 21.274 20.7013C21.4588 20.6138 21.8792 20.4195 22.0226 20.2778L22.0194 20.2857ZM19.7643 19.2363C19.734 19.2363 19.6767 19.2506 19.691 19.222C19.7053 19.1487 19.8088 19.1487 19.8662 19.1184C19.8964 19.1041 19.9394 19.0739 19.9681 19.0882C19.9984 19.1328 20.0414 19.1184 20.07 19.1471C19.9824 19.2363 19.8646 19.1917 19.7627 19.2363H19.7643ZM17.5203 18.913C17.5203 18.913 17.5059 18.8987 17.5059 18.8828C17.6971 18.6343 17.8436 18.3987 17.9758 18.1343C18.1669 18.0308 18.3245 17.8827 18.4742 17.7235C18.7227 17.4591 18.9887 17.225 19.2944 17.0785C19.4123 17.0339 19.5588 17.0483 19.6751 17.0928C19.6305 17.1518 19.5572 17.1374 19.4999 17.1804C19.4855 17.1804 19.4696 17.1804 19.4553 17.1661C19.4696 17.1518 19.4696 17.1358 19.4696 17.1215C19.3231 17.2823 19.1177 17.3572 18.9998 17.5467C18.9122 17.6932 18.8533 17.8843 18.6622 17.9273C18.6032 17.9416 18.6765 17.8827 18.6478 17.897C18.1939 18.1757 17.8706 18.5133 17.5187 18.9098L17.5203 18.913ZM18.737 17.9448C18.7227 17.9751 18.7068 17.9767 18.6924 18.0037C18.6781 18.034 18.6622 18.0483 18.6335 18.0627C18.6192 18.0627 18.6032 18.0627 18.6032 18.0483C18.6176 17.9894 18.6622 17.9305 18.7211 17.9161C18.7354 17.9161 18.7354 17.9321 18.7354 17.9464L18.737 17.9448ZM19.4187 20.1424C19.4123 20.1583 19.398 20.1727 19.382 20.1854C19.4011 20.1886 19.4139 20.1981 19.4011 20.2093C19.3661 20.2411 19.3343 20.273 19.2897 20.2873C19.2865 20.2873 19.2769 20.2905 19.2674 20.2905C19.2498 20.308 19.2307 20.3255 19.2132 20.3415C19.1957 20.3574 19.1145 20.3462 19.14 20.3239C19.1766 20.2905 19.2116 20.2555 19.2483 20.2204C19.269 20.2013 19.2913 20.1838 19.3088 20.1615C19.3183 20.1488 19.3279 20.1376 19.3406 20.1297C19.3518 20.1217 19.4282 20.1153 19.4171 20.144L19.4187 20.1424ZM19.1559 20.0214L19.1527 20.0246C19.0985 20.0628 19.0428 20.1026 18.9855 20.136C18.9218 20.1727 18.8565 20.1997 18.7928 20.2316L18.7912 20.2284C18.7864 20.222 18.7768 20.2172 18.7657 20.2236C18.7099 20.2539 18.6638 20.2937 18.6176 20.3351C18.6112 20.3415 18.6032 20.3478 18.5969 20.3542V20.3558C18.5889 20.3622 18.5825 20.3701 18.5762 20.3765L18.573 20.3797C18.5634 20.3908 18.5523 20.402 18.5411 20.4147C18.5332 20.4227 18.5316 20.429 18.522 20.4354C18.5125 20.4418 18.4886 20.4402 18.4902 20.4243V20.4211C18.4822 20.4259 18.4727 20.4306 18.4647 20.4338C18.4567 20.437 18.4488 20.4418 18.4408 20.4466C18.4376 20.4466 18.4344 20.445 18.4312 20.445C18.4281 20.445 18.4233 20.445 18.4217 20.4481C18.4042 20.4625 18.3851 20.4768 18.3691 20.4927C18.3389 20.5198 18.3102 20.5517 18.2847 20.5835L18.2815 20.5867C18.2799 20.5883 18.2784 20.5899 18.2768 20.5915C18.2752 20.5931 18.2736 20.5947 18.272 20.5978C18.272 20.5978 18.272 20.5978 18.2704 20.5994C18.2672 20.6042 18.264 20.609 18.2608 20.6138C18.2577 20.6169 18.2545 20.6185 18.2481 20.6185C18.2465 20.6154 18.2449 20.6138 18.2433 20.6106C18.2417 20.609 18.2401 20.6058 18.2401 20.6026C18.2354 20.5947 18.2322 20.5867 18.2274 20.5787C18.2274 20.5787 18.2242 20.574 18.2242 20.5708C18.2401 20.5548 18.2561 20.5357 18.2704 20.5182L18.2736 20.515C18.2784 20.5087 18.2831 20.5023 18.2879 20.4959C18.2959 20.4864 18.3038 20.4752 18.3134 20.4641C18.3166 20.4609 18.3182 20.4561 18.3229 20.4513C18.3389 20.4306 18.3548 20.4099 18.3691 20.3892V20.3876C18.3707 20.3844 18.3739 20.3813 18.3755 20.3781C18.3835 20.3685 18.3898 20.3574 18.3962 20.3462C18.401 20.3367 18.4074 20.3271 18.4121 20.316V20.3144C18.4121 20.3144 18.4121 20.3128 18.4137 20.3112C18.4137 20.3112 18.4153 20.308 18.4169 20.3064C18.4217 20.2953 18.4265 20.2841 18.4312 20.2714V20.2682C18.4312 20.265 18.4328 20.2618 18.4344 20.2586C18.436 20.2539 18.4376 20.2475 18.4392 20.2427V20.2395C18.4408 20.2316 18.4424 20.2252 18.444 20.2188C18.444 20.2156 18.444 20.2109 18.4424 20.2093C18.4583 20.1822 18.4774 20.1551 18.5013 20.1297L18.4949 20.1328C18.4742 20.1472 18.4599 20.1647 18.4408 20.1806C18.4249 20.1934 18.3962 20.1727 18.4137 20.1583C18.4265 20.1488 18.436 20.1376 18.4472 20.1281C18.4472 20.1281 18.4472 20.1265 18.4488 20.1249C18.4727 20.101 18.4965 20.0707 18.5236 20.0516C18.5395 20.0389 18.5555 20.0293 18.5682 20.0166C18.5698 20.015 18.573 20.0134 18.5746 20.0118C18.5841 19.9975 18.5953 19.9863 18.6064 19.9752L18.608 19.9736C18.7482 19.8382 18.9839 19.8446 19.1702 19.7586C19.2435 19.7284 19.3311 19.7729 19.4059 19.7586C19.4505 19.7586 19.4935 19.7586 19.5381 19.7889C19.4043 19.8621 19.2817 19.9433 19.1623 20.0182L19.1559 20.0214ZM19.4553 19.0006C19.441 18.9863 19.4999 19.0006 19.5142 18.9704H19.3964C19.382 18.9704 19.382 18.956 19.382 18.9401C19.3088 18.9544 19.2212 18.9847 19.1463 18.999C19.0428 19.0293 18.9552 19.1025 18.8374 19.1312C18.6765 19.1901 18.5443 19.3223 18.3675 19.3796C18.3532 19.3796 18.3532 19.3653 18.3532 19.3494C18.3675 19.3048 18.4265 19.2904 18.4551 19.2458C18.4551 19.2315 18.4551 19.2156 18.4408 19.2156C18.5587 19.0548 18.7195 18.9672 18.866 18.835V18.7904C18.9106 18.7315 18.9839 18.7028 19.0125 18.6296C19.0269 18.585 19.0858 18.5276 19.1591 18.4974C19.1447 18.4831 19.1145 18.4831 19.1145 18.4528C19.0555 18.4528 18.9966 18.4831 18.9393 18.4385C18.9664 18.4114 18.9982 18.3955 19.0317 18.3859C19.0189 18.3827 19.0078 18.3764 18.9982 18.3652C18.9839 18.335 19.0269 18.3031 19.0715 18.292C19.1304 18.2776 19.2037 18.2776 19.2467 18.233C19.1447 18.2187 19.0269 18.2633 18.9234 18.2028C18.9966 18.0117 19.1145 17.8509 19.2897 17.7633C19.304 17.7633 19.3343 17.7633 19.3343 17.7776C19.3343 17.8509 19.2897 17.9098 19.2164 17.9241C19.3343 17.9544 19.4521 17.9544 19.5684 18.0117C19.554 18.0419 19.5238 18.026 19.5094 18.026C19.5827 18.0706 19.6703 18.0404 19.7451 18.0993C19.7006 18.1439 19.6576 18.0993 19.613 18.0993C20.0669 18.2315 20.551 18.335 20.9332 18.6264C20.6099 18.7872 20.2739 18.8621 19.9219 18.9353C19.8773 18.9353 19.8487 18.9353 19.8041 18.921C19.8041 18.9353 19.8041 18.9656 19.7897 18.9656C19.7308 18.9656 19.6878 18.9656 19.6432 18.9958C19.5875 19.0277 19.4999 19.0404 19.4553 18.9974V19.0006Z" fill="#263376"/>
<path d="M34.5389 13.4398H26.1904C26.1904 13.4398 26.2064 13.4429 26.2701 13.4764C26.3369 13.513 26.4261 13.5592 26.4803 13.5879C26.587 13.6436 26.6921 13.7153 26.759 13.8235C26.7892 13.8681 26.8322 13.9557 26.8036 14.0146C26.7733 14.0879 26.759 14.2057 26.6857 14.2344C26.5981 14.279 26.4803 14.279 26.3784 14.2646C26.3194 14.2646 26.2605 14.2503 26.2032 14.2344C26.4229 14.322 26.6284 14.4255 26.7749 14.6309C26.7892 14.6612 26.8482 14.6755 26.9071 14.6755C26.9214 14.6755 26.9214 14.7058 26.9214 14.7201C26.8912 14.7503 26.8625 14.7647 26.8768 14.8077H26.9214C26.9947 14.7774 26.9804 14.6325 27.0823 14.6755C27.1555 14.7201 27.1842 14.822 27.1412 14.8953C27.0823 14.9542 27.0234 14.9972 26.966 15.0418C26.9517 15.072 26.9517 15.115 26.966 15.1437C27.0106 15.2026 27.025 15.2615 27.0393 15.3189C27.0839 15.4224 27.0982 15.5386 27.1428 15.6421C27.2017 15.8619 27.2607 16.0816 27.2447 16.3014C27.2447 16.4192 27.1858 16.5212 27.2304 16.639C27.2607 16.7568 27.3339 16.8444 27.3913 16.9479C27.4502 17.0355 27.5091 17.0944 27.5521 17.1836C27.6397 17.3301 27.8006 17.4766 27.7273 17.6534C27.6827 17.7569 27.5218 17.741 27.4199 17.7999C27.3323 17.8731 27.4056 17.991 27.4502 18.0642C27.5234 18.1964 27.3626 18.284 27.2591 18.3286C27.2893 18.3732 27.3467 18.3588 27.361 18.3875C27.3753 18.4608 27.4486 18.5054 27.4056 18.5786C27.3467 18.6662 27.1699 18.7108 27.2591 18.843C27.318 18.9465 27.2798 19.0595 27.2447 19.1662C27.2001 19.2984 27.0839 19.3573 26.9804 19.386C26.8928 19.4162 26.7892 19.4162 26.7017 19.4003C26.6714 19.386 26.6427 19.3701 26.6141 19.3701C26.3656 19.3398 26.1156 19.2665 25.8655 19.2665C25.7923 19.2809 25.719 19.2968 25.6601 19.3255C25.5932 19.3748 25.5359 19.4274 25.4817 19.4831H25.4801C25.469 19.4975 25.4594 19.5086 25.4483 19.5197C25.4419 19.5277 25.4355 19.5341 25.4292 19.542C25.4244 19.5468 25.4212 19.5516 25.4164 19.5564C25.3734 19.6105 25.3352 19.6663 25.3002 19.7252C25.2986 19.7284 25.2954 19.7331 25.2938 19.7363C25.2906 19.7427 25.2858 19.7507 25.2826 19.757C25.2349 19.8462 25.1982 19.937 25.1712 20.0261C25.0708 20.3622 25.1154 20.6504 25.1855 20.7205C25.2046 20.7396 25.6696 20.8829 25.9929 21.0278C26.1442 21.0947 26.2509 21.1472 26.3385 21.203H34.5373V13.4429H34.5357L34.5389 13.4398Z" fill="#E30D16"/>
<path d="M26.6857 16.2727C26.7447 16.2871 26.8322 16.2871 26.8322 16.3173C26.802 16.4352 26.6268 16.4638 26.5392 16.5817H26.4946C26.45 16.6119 26.4644 16.6852 26.4214 16.6852C26.3768 16.6708 26.3338 16.6852 26.2892 16.6995C26.3481 16.7584 26.4214 16.8014 26.5089 16.7871C26.5233 16.7871 26.5535 16.8174 26.5535 16.846C26.5535 16.846 26.5679 16.846 26.5838 16.8317C26.5981 16.8317 26.6141 16.8317 26.6141 16.846V16.9049C26.5695 16.9639 26.4962 16.9352 26.4389 16.9495C26.5567 16.9798 26.6746 16.9798 26.7765 16.9495C26.8641 16.9193 26.7765 16.7744 26.8354 16.7011C26.8052 16.7011 26.8354 16.6565 26.8052 16.6565C26.8354 16.6263 26.8641 16.5833 26.8928 16.5689C26.923 16.5689 26.966 16.5546 26.9804 16.5243C26.9804 16.4941 26.9214 16.4813 26.9358 16.4511C27.0234 16.3922 27.0966 16.3046 27.068 16.2154C27.0536 16.1708 26.9358 16.1708 26.8625 16.1422C26.7892 16.1119 26.7017 16.1422 26.6141 16.1565C26.5408 16.1565 26.4675 16.2011 26.3943 16.2154C26.2924 16.2457 26.2032 16.303 26.1156 16.3619C26.2191 16.3173 26.321 16.303 26.4389 16.2743C26.5281 16.2743 26.6029 16.2536 26.6889 16.2743L26.6857 16.2727Z" fill="#9D9C9B"/>
<path d="M15.5263 25.2319H17.0759L19.2833 31.0603H18.0251L17.4677 29.5442H15.1361L14.5787 31.0603H13.3206L15.5279 25.2319H15.5263ZM17.0998 28.5394L16.3003 26.3498L15.5008 28.5394H17.0998Z" fill="black"/>
<path d="M21.7566 25.2319L23.1645 27.6301L24.5723 25.2319H26.063V31.0603H24.8797V26.9135L23.5801 29.0617H22.7472L21.4476 26.9135V31.0603H20.2643V25.2319H21.7566Z" fill="black"/>
<path d="M27.7703 25.2319H29.4282C30.6434 25.2319 31.3776 25.8322 31.3776 26.8148C31.3776 27.2814 31.161 27.689 30.7612 27.9645C31.3775 28.24 31.7184 28.7385 31.7184 29.3468C31.7184 30.4121 30.8934 31.0619 29.5524 31.0619H27.7703V25.2319ZM28.952 26.2399V27.5139H29.4521C29.9012 27.5139 30.1592 27.2893 30.1592 26.8721C30.1592 26.4804 29.9012 26.2399 29.4521 26.2399H28.952ZM28.952 28.5299V30.0538H29.6177C30.1672 30.0538 30.5 29.7624 30.5 29.2799C30.5 28.7974 30.1672 28.5299 29.6177 28.5299H28.952Z" fill="black"/>
<path d="M34.4083 25.2319H35.9579L38.1652 31.0603H36.9071L36.3497 29.5442H34.0181L33.4607 31.0603H32.2025L34.4099 25.2319H34.4083ZM35.9818 28.5394L35.1823 26.3498L34.3828 28.5394H35.9818Z" fill="black"/>
<path d="M39.4632 29.463C39.8136 29.9121 40.2786 30.1796 40.7548 30.1796C41.231 30.1796 41.5049 29.9296 41.5049 29.5044C41.5049 28.463 38.8405 28.6971 38.8405 26.7559C38.8405 25.8322 39.5986 25.0647 40.7054 25.0647C41.5798 25.0647 42.2551 25.4564 42.7456 26.0472L41.8792 26.8211C41.5384 26.38 41.1546 26.0966 40.7134 26.0966C40.3057 26.0966 40.0381 26.3625 40.0381 26.7049C40.0381 27.7464 42.7026 27.5043 42.7026 29.4774C42.6867 30.5602 41.8362 31.2259 40.7707 31.2259C39.7881 31.2259 39.1224 30.8676 38.6048 30.2513L39.4632 29.4598V29.463Z" fill="black"/>
<path d="M44.3032 29.463C44.6535 29.9121 45.1186 30.1796 45.5948 30.1796C46.0709 30.1796 46.3449 29.9296 46.3449 29.5044C46.3449 28.463 43.6804 28.6971 43.6804 26.7559C43.6804 25.8322 44.4385 25.0647 45.5454 25.0647C46.4197 25.0647 47.095 25.4564 47.5855 26.0472L46.7191 26.8211C46.3783 26.38 45.9945 26.0966 45.5533 26.0966C45.1456 26.0966 44.8781 26.3625 44.8781 26.7049C44.8781 27.7464 47.5425 27.5043 47.5425 29.4774C47.5266 30.5602 46.6761 31.2259 45.6107 31.2259C44.628 31.2259 43.9623 30.8676 43.4447 30.2513L44.3032 29.4598V29.463Z" fill="black"/>
<path d="M50.3073 25.2319H51.8569L54.0642 31.0603H52.8061L52.2487 29.5442H49.9171L49.3597 31.0603H48.1015L50.3089 25.2319H50.3073ZM51.8824 28.5394L51.0829 26.3498L50.2834 28.5394H51.8824Z" fill="black"/>
<path d="M55.0469 25.2319H57.337C59.1861 25.2319 60.4347 26.5727 60.4347 28.1461C60.4347 29.7194 59.1861 31.0603 57.337 31.0603H55.0469V25.2319ZM56.2302 29.9869H57.3546C58.4375 29.9869 59.2195 29.1796 59.2195 28.1461C59.2195 27.1126 58.4359 26.3052 57.3546 26.3052H56.2302V29.9869Z" fill="black"/>
<path d="M61.661 25.2319H65.058V26.2399H62.8427V27.5887H64.7252V28.5967H62.8427V30.0538H65.058V31.0619H61.661V25.2319Z" fill="black"/>
<path d="M13.2553 33.7451H15.5454C17.3945 33.7451 18.6431 35.086 18.6431 36.6593C18.6431 38.2327 17.3945 39.5735 15.5454 39.5735H13.2553V33.7451ZM14.4386 38.5002H15.563C16.6459 38.5002 17.4279 37.6928 17.4279 36.6593C17.4279 35.6258 16.6443 34.8185 15.563 34.8185H14.4386V38.5002Z" fill="black"/>
<path d="M19.8694 33.7451H23.2664V34.7532H21.0511V36.102H22.9335V37.11H21.0511V38.5671H23.2664V39.5751H19.8694V33.7451Z" fill="black"/>
<path d="M26.974 33.7451H30.371V34.7532H28.1557V36.102H30.0382V37.11H28.1557V39.5751H26.9724V33.7467L26.974 33.7451Z" fill="black"/>
<path d="M33.2775 33.7451C34.5596 33.7451 35.3511 34.4028 35.3511 35.4857C35.3511 36.1848 35.0103 36.7103 34.4178 36.9922L36.2493 39.5735H34.8335L33.2839 37.2167H32.6755V39.5735H31.4922V33.7451H33.2775ZM32.6787 34.7532V36.2103H33.3444C33.8445 36.2103 34.1359 35.9443 34.1359 35.4698C34.1359 35.0287 33.8445 34.7532 33.3444 34.7532H32.6787Z" fill="black"/>
<path d="M38.7911 33.7451H40.3407L42.5481 39.5735H41.2899L40.7325 38.0575H38.4009L37.8435 39.5735H36.5854L38.7927 33.7451H38.7911ZM40.3662 37.0511L39.5667 34.8615L38.7672 37.0511H40.3662Z" fill="black"/>
<path d="M43.5307 33.7451H45.0469L47.654 37.9174V33.7451H48.8373V39.5735H47.3211L44.714 35.3854V39.5735H43.5307V33.7451Z" fill="black"/>
<path d="M54.6742 37.8346L55.6075 38.5512C55.074 39.2757 54.2076 39.7423 53.1501 39.7423C51.309 39.7423 50.0525 38.3266 50.0525 36.6609C50.0525 34.9952 51.3106 33.5795 53.1501 33.5795C54.2076 33.5795 55.074 34.0541 55.6075 34.7627L54.6742 35.4873C54.3414 35.0127 53.8158 34.6879 53.1501 34.6879C52.0512 34.6879 51.2676 35.5462 51.2676 36.6609C51.2676 37.7756 52.0512 38.634 53.1501 38.634C53.8158 38.634 54.3414 38.3091 54.6742 37.8346Z" fill="black"/>
<path d="M56.7159 33.7451H60.113V34.7532H57.8976V36.102H59.7801V37.11H57.8976V38.5671H60.113V39.5751H56.7159V33.7451Z" fill="black"/>
<path d="M15.5263 42.26H17.0759L19.2833 48.0884H18.0251L17.4677 46.5724H15.1361L14.5787 48.0884H13.3206L15.5279 42.26H15.5263ZM17.0998 45.5659L16.3003 43.3763L15.5008 45.5659H17.0998Z" fill="black"/>
<path d="M23.4718 42.26H24.6552V45.808C24.6552 47.3399 23.7553 48.2556 22.2901 48.2556C20.8249 48.2556 19.9331 47.3399 19.9331 45.808V42.26H21.1164V45.9067C21.1164 46.6886 21.5575 47.1472 22.2997 47.1472C23.0418 47.1472 23.4734 46.6886 23.4734 45.9067V42.26H23.4718Z" fill="black"/>
<path d="M27.912 49.5375C27.7209 49.5375 27.5617 49.5375 27.4454 49.5041V48.4626C27.5282 48.4785 27.6286 48.4881 27.7448 48.4881C28.2688 48.4881 28.5443 48.2635 28.5443 47.6632V42.2584H29.7276V47.6043C29.7276 48.8957 29.1272 49.5359 27.912 49.5359V49.5375Z" fill="black"/>
<path d="M32.916 42.26H34.4656L36.673 48.0884H35.4148L34.8574 46.5724H32.5258L31.9684 48.0884H30.7102L32.9176 42.26H32.916ZM34.4911 45.5659L33.6916 43.3763L32.8921 45.5659H34.4911Z" fill="black"/>
<path d="M37.6556 42.26H39.5795C40.8615 42.26 41.6451 42.9177 41.6451 44.0005C41.6451 45.0834 40.8615 45.7331 39.5795 45.7331H38.8389V48.09H37.6556V42.26ZM38.8389 43.2664V44.7235H39.6304C40.1305 44.7235 40.4299 44.4576 40.4299 43.983C40.4299 43.5419 40.1305 43.2664 39.6304 43.2664H38.8389Z" fill="black"/>
<path d="M48.5156 45.1742C48.5156 46.8399 47.2574 48.2556 45.4259 48.2556C43.5944 48.2556 42.3283 46.8399 42.3283 45.1742C42.3283 43.5085 43.5865 42.0928 45.4259 42.0928C47.2654 42.0928 48.5156 43.5085 48.5156 45.1742ZM47.3004 45.1742C47.3004 44.0579 46.5169 43.2011 45.4259 43.2011C44.335 43.2011 43.5435 44.0595 43.5435 45.1742C43.5435 46.2889 44.327 47.1472 45.4259 47.1472C46.5248 47.1472 47.3004 46.2889 47.3004 45.1742Z" fill="black"/>
<path d="M49.7323 42.26H51.2485L53.8556 46.4322V42.26H55.0389V48.0884H53.5228L50.9157 43.9002V48.0884H49.7323V42.26Z" fill="black"/>
<path d="M32.349 64.075C32.5067 64.075 32.6453 64.196 32.572 64.4986L31.8346 64.669C31.962 64.3266 32.177 64.0734 32.3475 64.0734M32.7567 65.2614H32.6118C32.4271 65.4796 32.2312 65.6516 32.0337 65.6516C31.8362 65.6516 31.7295 65.5305 31.7295 65.2614C31.7295 65.1499 31.7423 65.0385 31.763 64.9349L32.951 64.5448C33.182 63.9954 32.9033 63.7565 32.5784 63.7565C32.0162 63.7565 31.3776 64.6945 31.3776 65.5178C31.3776 65.8856 31.5527 66.0879 31.8267 66.0879C32.1484 66.0879 32.4812 65.7758 32.7567 65.2614ZM32.521 63.5384L33.3572 62.7581V62.6689H32.908L32.3936 63.5384H32.5226H32.521ZM29.9585 64.0862H30.3535L29.7276 65.7965C29.6719 65.9414 29.7483 66.0879 29.8996 66.0879C30.2548 66.0879 30.8297 65.736 31.032 65.2566H30.9205C30.7628 65.4238 30.457 65.6468 30.1958 65.693L30.7708 64.0862H31.3568L31.4301 63.8425H30.86L31.0781 63.2247H30.852L30.4443 63.8425L29.9601 63.911V64.0862H29.9585ZM29.4266 64.005C29.4744 63.8473 29.3661 63.7565 29.2849 63.7565C28.9425 63.7565 28.5347 64.0655 28.3723 64.497H28.4838C28.5953 64.3394 28.7832 64.1626 28.96 64.1324L28.3054 65.8379C28.2449 65.9955 28.3659 66.0863 28.4472 66.0863C28.7736 66.0863 29.1543 65.7742 29.3167 65.3458H29.2052C29.0938 65.5035 28.9058 65.6802 28.729 65.7105L29.4266 64.005ZM29.5461 63.1482C29.7005 63.1482 29.8295 63.024 29.8295 62.8648C29.8295 62.7055 29.7005 62.5813 29.5461 62.5813C29.3916 62.5813 29.2626 62.7103 29.2626 62.8648C29.2626 63.024 29.3868 63.1482 29.5461 63.1482ZM25.7716 65.771C25.6856 65.9637 25.7764 66.0879 25.9643 66.0879C26.0805 66.0879 26.1315 66.0576 26.1793 65.9334L26.6332 64.7295C26.8434 64.4715 27.2766 64.1976 27.447 64.1976C27.5712 64.1976 27.5537 64.3012 27.4725 64.4556L26.7733 65.7965C26.7048 65.9302 26.794 66.0879 26.9437 66.0879C27.2861 66.0879 27.6938 65.7789 27.8563 65.3474H27.7448C27.6333 65.505 27.4454 65.6818 27.2686 65.7121L27.869 64.5002C27.9455 64.3457 27.9853 64.2008 27.9853 64.0846C27.9853 63.8871 27.8738 63.7581 27.6684 63.7581C27.3721 63.7581 27.0727 64.0925 26.7176 64.5034V64.1865C26.7176 63.9604 26.6443 63.7581 26.4389 63.7581C26.3099 63.7581 26.1856 63.8696 26.071 64.0288V64.0718C26.2939 64.0591 26.3927 64.3935 26.2334 64.7439L25.77 65.771H25.7716ZM25.7636 64.2804C25.8448 64.0018 25.8018 63.7581 25.5884 63.7581C25.3352 63.7581 25.2715 63.9508 25.0135 64.5034V64.1865C25.0135 63.9604 24.9402 63.7581 24.7348 63.7581C24.4959 63.7581 24.2761 64.1308 24.1089 64.4986H24.2204C24.3366 64.3314 24.4433 64.2327 24.5277 64.2327C24.6297 64.2327 24.6854 64.3903 24.5277 64.7423L24.0643 65.771C23.9783 65.9637 24.0691 66.0879 24.257 66.0879C24.3733 66.0879 24.4242 66.0576 24.472 65.9334L24.9259 64.7295C25.0549 64.5719 25.1696 64.4333 25.3161 64.2804H25.7636ZM23.131 64.075C23.2887 64.075 23.4273 64.196 23.354 64.4986L22.6166 64.669C22.7456 64.3266 22.959 64.0734 23.1294 64.0734M23.5387 65.2614H23.3938C23.2091 65.4796 23.0132 65.6516 22.8157 65.6516C22.6182 65.6516 22.5115 65.5305 22.5115 65.2614C22.5115 65.1499 22.5242 65.0385 22.5449 64.9349L23.733 64.5448C23.964 63.9954 23.6853 63.7565 23.3604 63.7565C22.7982 63.7565 22.1595 64.6945 22.1595 65.5178C22.1595 65.8856 22.3347 66.0879 22.6087 66.0879C22.9304 66.0879 23.2648 65.7758 23.5387 65.2614ZM20.7405 64.0862H21.1355L20.5096 65.7965C20.4539 65.9414 20.5303 66.0879 20.68 66.0879C21.0352 66.0879 21.6101 65.736 21.8124 65.2566H21.7009C21.5432 65.4238 21.2374 65.6468 20.9762 65.693L21.5512 64.0862H22.1372L22.2105 63.8425H21.6403L21.8585 63.2247H21.6324L21.2247 63.8425L20.7405 63.911V64.0862ZM18.5762 65.4206C18.5762 64.8935 19.1623 64.1785 19.4935 64.1785C19.5668 64.1785 19.6353 64.1865 19.6958 64.204L19.3534 65.1165C19.1559 65.3554 18.8517 65.6484 18.71 65.6484C18.6287 65.6484 18.5762 65.5799 18.5762 65.4222M20.3806 63.6578L20.2006 63.6451L19.9984 63.8425H19.9554C18.9775 63.8425 18.1334 64.9397 18.1334 65.7359C18.1334 65.9589 18.2704 66.0879 18.4854 66.0879C18.7386 66.0879 18.9871 65.728 19.2658 65.3426L19.253 65.4796C19.2196 65.8745 19.339 66.0879 19.5445 66.0879C19.7834 66.0879 20.0031 65.7152 20.1704 65.3474H20.0589C19.9426 65.5146 19.8359 65.6133 19.7499 65.6133C19.6607 65.6133 19.5954 65.4509 19.7499 65.1037L20.379 63.6594L20.3806 63.6578ZM18.2975 64.2804C18.3787 64.0018 18.3357 63.7581 18.1223 63.7581C17.8691 63.7581 17.8053 63.9508 17.5473 64.5034V64.1865C17.5473 63.9604 17.4741 63.7581 17.2686 63.7581C17.0297 63.7581 16.81 64.1308 16.6427 64.4986H16.7542C16.8705 64.3314 16.9772 64.2327 17.0632 64.2327C17.1651 64.2327 17.2209 64.3903 17.0632 64.7423L16.5997 65.771C16.5137 65.9637 16.6045 66.0879 16.7925 66.0879C16.9087 66.0879 16.9597 66.0576 17.0075 65.9334L17.4613 64.7295C17.5903 64.5719 17.705 64.4333 17.8515 64.2804H18.2991H18.2975ZM15.0151 66.0019L15.0581 65.8681C14.4879 65.7614 14.4147 65.7614 14.6424 65.1404L14.8734 64.5018H15.504C15.7875 64.5018 15.7907 64.618 15.7477 64.9254H15.9101L16.2876 63.8935H16.1251C15.9834 64.1371 15.8719 64.3171 15.563 64.3171H14.9418L15.2715 63.4126C15.3734 63.1259 15.434 63.0654 15.821 63.0654H16.0949C16.493 63.0654 16.5408 63.1721 16.5408 63.575H16.6985L16.8323 62.8727H14.4657L14.4227 63.0065C14.8813 63.1004 14.9243 63.1434 14.7093 63.7342L14.1949 65.1404C13.9799 65.7264 13.8907 65.7742 13.3636 65.8681L13.3253 66.0019H15.0151Z" fill="black"/>
<path d="M26.6125 58.718C26.7701 58.718 26.9087 58.839 26.8354 59.1416L26.0981 59.312C26.2255 58.9696 26.4389 58.7164 26.6125 58.7164M27.0186 59.9044H26.8737C26.6889 60.1226 26.493 60.2945 26.2955 60.2945C26.0981 60.2945 25.9914 60.1735 25.9914 59.9044C25.9914 59.7929 26.0041 59.6814 26.0248 59.5779L27.2129 59.1878C27.4438 58.6384 27.1651 58.3995 26.8402 58.3995C26.278 58.3995 25.6394 59.3375 25.6394 60.1608C25.6394 60.5286 25.8146 60.7309 26.0885 60.7309C26.4102 60.7309 26.7447 60.4187 27.0186 59.9044ZM26.7829 58.1813L27.619 57.401V57.3119H27.1699L26.6555 58.1813H26.7845H26.7829ZM24.2204 58.7307H24.6153L23.9894 60.441C23.9337 60.586 24.0101 60.7325 24.1599 60.7325C24.515 60.7325 25.0899 60.3805 25.2922 59.9012H25.1807C25.023 60.0684 24.7173 60.2914 24.4561 60.3375L25.031 58.7307H25.6171L25.6903 58.4871H25.1202L25.3384 57.8692H25.1122L24.7045 58.4871L24.2204 58.5556V58.7307ZM23.6884 58.6495C23.7362 58.4919 23.6279 58.4011 23.5467 58.4011C23.2043 58.4011 22.7966 58.7085 22.6341 59.1416H22.7456C22.8571 58.9839 23.045 58.8072 23.2218 58.7769L22.5672 60.4824C22.5067 60.6401 22.6278 60.7309 22.709 60.7309C23.0355 60.7309 23.4161 60.4187 23.5786 59.9904H23.4671C23.3556 60.148 23.1677 60.3248 22.9909 60.355L23.6884 58.6495ZM23.8095 57.7928C23.964 57.7928 24.093 57.6686 24.093 57.5093C24.093 57.3501 23.964 57.2259 23.8095 57.2259C23.655 57.2259 23.526 57.3549 23.526 57.5093C23.526 57.6686 23.6502 57.7928 23.8095 57.7928ZM21.5289 60.355L22.7249 57.2227L22.6867 57.1749L21.9366 57.2609V57.3501L22.0815 57.4616C22.2153 57.5651 22.1707 57.6638 22.0512 57.9791L21.118 60.4394C21.0495 60.5732 21.1387 60.7309 21.2884 60.7309C21.6308 60.7309 21.9955 60.4235 22.1579 59.9904H22.0465C21.935 60.1496 21.7025 60.3248 21.5273 60.355M19.2578 60.0636C19.2578 59.5365 19.8439 58.8215 20.1751 58.8215C20.2484 58.8215 20.3169 58.8295 20.3774 58.847L20.035 59.7595C19.8375 59.9983 19.5333 60.2913 19.3916 60.2913C19.3104 60.2913 19.2578 60.2245 19.2578 60.0652M21.0622 58.3024L20.8823 58.2896L20.68 58.4871H20.637C19.6591 58.4871 18.8151 59.5843 18.8151 60.3805C18.8151 60.6035 18.952 60.7325 19.167 60.7325C19.4203 60.7325 19.6687 60.3726 19.9474 59.9872L19.9347 60.1241C19.9012 60.5191 20.0207 60.7325 20.2261 60.7325C20.4666 60.7325 20.6848 60.3598 20.852 59.992H20.7405C20.6243 60.1592 20.5176 60.2579 20.4316 60.2579C20.3424 60.2579 20.2771 60.0955 20.4316 59.7483L21.0606 58.304L21.0622 58.3024ZM16.7001 61.1481C16.7001 60.922 16.9183 60.7802 17.232 60.6544C17.3339 60.707 17.49 60.7611 17.6955 60.8296C18.0219 60.9363 18.1446 60.9793 18.1446 61.078C18.1446 61.2882 17.7894 61.4459 17.3037 61.4459C16.8976 61.4459 16.7001 61.3599 16.7001 61.1465M17.5856 59.7627C17.4438 59.7627 17.3881 59.6416 17.3881 59.5047C17.3881 59.1241 17.5935 58.5619 17.9152 58.5619C18.057 58.5619 18.1127 58.683 18.1127 58.8199C18.1127 59.2005 17.9073 59.7627 17.5856 59.7627ZM18.5157 60.9379C18.5157 60.664 18.272 60.5653 17.8722 60.4442C17.5298 60.3423 17.3753 60.3105 17.3753 60.2006C17.3753 60.1114 17.4486 60.0031 17.5935 59.9267C18.1557 59.8964 18.5188 59.3916 18.5188 58.9664C18.5188 58.8773 18.5013 58.7992 18.4711 58.7307H18.9472L19.0205 58.4871H18.2656C18.1764 58.4314 18.0681 58.4011 17.9614 58.4011C17.3658 58.4011 16.9804 58.9234 16.9804 59.347C16.9804 59.6687 17.1858 59.8694 17.4343 59.9171C17.1556 60.0413 17.0011 60.1878 17.0011 60.3582C17.0011 60.457 17.0345 60.5254 17.1173 60.5891C16.4739 60.7786 16.2223 60.992 16.2223 61.2962C16.2223 61.6003 16.6125 61.7166 17.0759 61.7166C17.8611 61.7166 18.5157 61.293 18.5157 60.9379ZM15.52 59.1034C15.8034 59.1034 15.8066 59.2196 15.7636 59.527H15.9261L16.3035 58.4951H16.1411C15.9993 58.7387 15.8879 58.9187 15.5789 58.9187H14.9578L15.2699 58.0571C15.3718 57.7705 15.4324 57.7148 15.8194 57.7148H16.0933C16.4914 57.7148 16.5392 57.8215 16.5392 58.2196H16.6969L16.8307 57.5173H14.4641L14.4211 57.6511C14.8797 57.745 14.9227 57.788 14.7077 58.3788L14.1933 59.785C13.9783 60.371 13.8891 60.4187 13.362 60.5127L13.3238 60.6465H15.9547L16.4262 59.9012H16.2462C15.9468 60.1847 15.5693 60.4538 15.0422 60.4538C14.343 60.4538 14.4083 60.4235 14.6392 59.785L14.8877 59.1034H15.52ZM15.864 57.3087L16.7001 56.7338V56.6446H16.1952L15.7318 57.3087H15.864Z" fill="black"/>
<path d="M26.3322 53.361C26.4898 53.361 26.6284 53.482 26.5551 53.7846L25.8178 53.955C25.9468 53.6126 26.1602 53.3594 26.3306 53.3594M26.7399 54.5474H26.5949C26.4102 54.7655 26.2143 54.9375 26.0168 54.9375C25.8193 54.9375 25.7126 54.8165 25.7126 54.5474C25.7126 54.4359 25.7254 54.3244 25.7477 54.2209L26.9358 53.8308C27.1667 53.2814 26.888 53.0425 26.5631 53.0425C26.0009 53.0425 25.3623 53.9805 25.3623 54.8038C25.3623 55.1716 25.5375 55.3739 25.8114 55.3739C26.1331 55.3739 26.4675 55.0617 26.7415 54.5458M26.5042 52.8259L27.3403 52.0456V51.9564H26.8912L26.3768 52.8259H26.5058H26.5042ZM24.3605 53.3753L23.7346 55.0856C23.6789 55.2305 23.7553 55.377 23.905 55.377C24.2602 55.377 24.8351 55.0251 25.0374 54.5458H24.9259C24.7682 54.713 24.4625 54.9359 24.2013 54.9821L24.7762 53.3753H25.3623L25.4355 53.1317H24.8654L25.0836 52.5138H24.8574L24.4497 53.1317L24.0468 53.2001V53.3753H24.3605ZM23.741 53.5664C23.8222 53.2877 23.7792 53.0441 23.5658 53.0441C23.3126 53.0441 23.2489 53.2368 22.9909 53.7894V53.4725C22.9909 53.2463 22.9176 53.0441 22.7122 53.0441C22.4733 53.0441 22.2535 53.4167 22.0863 53.7846H22.1978C22.314 53.6174 22.4207 53.5186 22.5067 53.5186C22.6087 53.5186 22.6644 53.6763 22.5067 54.0282L22.0433 55.057C21.9573 55.2496 22.0481 55.3739 22.236 55.3739C22.3522 55.3739 22.4032 55.3436 22.451 55.2194L22.9049 54.0155C23.0339 53.8578 23.1485 53.7193 23.2951 53.5664H23.7426H23.741ZM21.11 53.361C21.2677 53.361 21.4062 53.482 21.333 53.7846L20.5956 53.955C20.723 53.6126 20.938 53.3594 21.11 53.3594M21.5161 54.5474H21.3712C21.1865 54.7655 20.9906 54.9375 20.7931 54.9375C20.5956 54.9375 20.4889 54.8165 20.4889 54.5474C20.4889 54.4359 20.5016 54.3244 20.5223 54.2209L21.7104 53.8308C21.9414 53.2814 21.6626 53.0425 21.3378 53.0425C20.7756 53.0425 20.1369 53.9805 20.1369 54.8038C20.1369 55.1716 20.3121 55.3739 20.586 55.3739C20.9077 55.3739 21.2406 55.0617 21.5161 54.5458M18.6064 55.0283C18.4902 55.0283 18.3229 54.9216 18.3229 54.826C18.3229 54.7958 18.3755 54.6636 18.4392 54.4964L18.6319 53.9868C18.8374 53.7432 19.1495 53.482 19.3263 53.482C19.433 53.482 19.5158 53.5505 19.5158 53.7081C19.5158 54.1763 19.0794 55.0283 18.608 55.0283M19.957 53.5202C19.957 53.1731 19.828 53.0441 19.5891 53.0441C19.2897 53.0441 19.0062 53.361 18.7243 53.7464L19.4394 51.8657L19.4011 51.8179L18.651 51.9039V51.9931L18.796 52.1045C18.9297 52.2081 18.8851 52.3148 18.7657 52.6221L17.9933 54.6111C17.9375 54.756 17.8691 54.928 17.8691 54.9757C17.8691 55.1812 18.1478 55.3739 18.401 55.3739C18.9839 55.3739 19.957 54.3244 19.957 53.5186M17.6254 53.2925C17.6732 53.1349 17.5649 53.0441 17.4836 53.0441C17.1412 53.0441 16.7335 53.3514 16.5711 53.7846H16.6826C16.794 53.6269 16.982 53.4502 17.1588 53.4199L16.5042 55.1254C16.4437 55.2831 16.5647 55.3739 16.6459 55.3739C16.9724 55.3739 17.3531 55.0617 17.5155 54.6334H17.404C17.2925 54.791 17.1046 54.9678 16.9278 54.998L17.627 53.2925H17.6254ZM17.7448 52.4358C17.8993 52.4358 18.0283 52.3116 18.0283 52.1523C18.0283 51.9931 17.8993 51.8689 17.7448 51.8689C17.5903 51.8689 17.4613 51.9978 17.4613 52.1523C17.4613 52.3068 17.5856 52.4358 17.7448 52.4358ZM16.0184 52.1619H14.4577L14.4147 52.2956C14.8734 52.3896 14.9164 52.4326 14.7014 53.0234L14.1965 54.4295C13.9815 55.0155 13.8923 55.0633 13.3652 55.1573L13.3269 55.291H15.6999L16.2143 54.3738H16.0344C15.7429 54.6955 15.4005 55.0984 14.8734 55.0984C14.4752 55.0984 14.4274 55.0299 14.6424 54.4295L15.1473 53.0234C15.3575 52.4374 15.4515 52.3896 15.9786 52.2956L16.0169 52.1619H16.0184Z" fill="black"/>
<path d="M100.479 25.13H99.0427V32.1989H100.479V25.13Z" fill="#3558A2"/>
<path d="M120.804 26.6332V25.13H115.716V26.6332H117.542V35.1147H118.979V26.6332H120.804Z" fill="#3558A2"/>
<path d="M123.706 25.13H122.269V32.1989H123.706V25.13Z" fill="#3558A2"/>
<path d="M137.632 32.5858V25.1284H136.209V32.6304C136.209 33.1543 136.076 34.3726 134.833 34.3726C133.591 34.3726 133.47 33.0285 133.47 32.6161V25.1284H132.034V32.675C132.034 34.586 133.185 35.9204 134.833 35.9204C134.934 35.9204 135.031 35.9141 135.126 35.9077L132.862 45.7395H134.386L134.953 42.9447H137.065L137.644 45.7395H139.211L136.783 35.129C137.327 34.5509 137.633 33.6783 137.633 32.5842M135.246 41.4892L135.609 39.7375C135.722 39.1738 135.878 38.298 135.974 37.7629H136.045C136.139 38.3012 136.299 39.185 136.41 39.7375L136.772 41.4892H135.246Z" fill="#3558A2"/>
<path d="M143.835 25.13H138.746V26.6301H140.573V35.8328H142.008V26.6301H143.835V25.13Z" fill="#3558A2"/>
<path d="M109.183 40.8539C110.189 40.4032 110.702 39.4684 110.702 38.0718C110.702 36.2803 109.726 35.1895 108.082 35.1194V25.1284H106.674V29.807C106.674 30.2035 106.682 31.0459 106.694 31.5794L106.622 31.5953L106.506 31.2975C106.354 30.9042 106.173 30.444 106.055 30.1733L103.935 25.1284H102.484V35.1147H99.0427V45.7411H100.479V40.9223H102.616V39.4509H100.479V36.602H103.891V30.4408C103.891 30.0459 103.884 29.2019 103.871 28.6684L103.942 28.6525L104.058 28.9534C104.211 29.3452 104.391 29.8054 104.508 30.0761L106.616 35.1162H105.103V45.7427H106.537V41.1341L107.651 41.1612L109.118 45.7427H110.739L109.149 40.8666L109.181 40.8554L109.183 40.8539ZM107.804 39.6611H106.539V36.602H107.804C108.718 36.602 109.224 37.1387 109.224 38.1164C109.224 39.142 108.745 39.6611 107.804 39.6611Z" fill="#3558A2"/>
<path d="M114.11 35.1147C114.641 34.5748 114.983 33.8184 114.983 32.9824C114.983 31.2768 113.781 30.3787 112.567 29.5442C111.443 28.7751 111.127 28.4662 111.127 27.7018C111.127 27.0473 111.624 26.4963 112.257 26.4963C112.78 26.4963 113.225 26.8148 113.548 27.326L114.626 26.4055C114.136 25.4978 113.277 24.9643 112.26 24.9643C110.729 24.9643 109.638 26.302 109.638 27.7575C109.638 29.4519 110.565 30.1016 111.664 30.8708C112.972 31.7928 113.459 32.2052 113.459 33.0317C113.459 33.7165 112.927 34.3885 112.186 34.3885C111.645 34.3885 111.269 34.0509 110.646 33.2387L109.519 34.2277C110.17 35.3647 111.072 35.9507 112.204 35.9507C112.827 35.9507 113.418 35.7118 113.895 35.3137L111.495 45.7411H113.018L113.583 42.9463H115.695L116.275 45.7411H117.84L115.408 35.1147H114.11ZM113.876 41.4892L114.238 39.7375C114.351 39.1738 114.507 38.298 114.602 37.7629H114.676C114.771 38.3012 114.927 39.185 115.04 39.7375L115.402 41.4892H113.876Z" fill="#3558A2"/>
<path d="M123.171 39.7917C123.171 40.1898 123.179 41.0322 123.19 41.5657L123.118 41.5832L123.002 41.2838C122.849 40.8921 122.669 40.4303 122.55 40.158L120.43 35.1115H118.979V45.7379H120.387V40.4255C120.387 40.029 120.379 39.185 120.368 38.6531L120.439 38.6356L120.556 38.9334C120.708 39.3251 120.888 39.7869 121.006 40.0592L123.381 45.7395H124.577V35.1131H123.169V39.7901L123.171 39.7917Z" fill="#3558A2"/>
<path d="M142.01 38.5942H140.573V45.7411H142.01V38.5942Z" fill="#3558A2"/>
<path d="M146.529 39.5289C145.407 38.7582 145.09 38.4524 145.09 37.6849C145.09 37.032 145.587 36.4794 146.219 36.4794C146.743 36.4794 147.187 36.7963 147.51 37.3091L148.587 36.3886C148.097 35.4809 147.24 34.9474 146.22 34.9474C144.69 34.9474 143.599 36.2883 143.599 37.7438C143.599 39.4366 144.528 40.0847 145.625 40.8554C146.932 41.7791 147.291 42.1628 147.291 42.9893C147.291 43.6741 146.759 44.3445 146.018 44.3445C145.477 44.3445 145.101 44.0085 144.478 43.1948L143.351 44.1837C144.002 45.3191 144.905 45.9051 146.037 45.9051C147.514 45.9051 148.818 44.577 148.818 42.94C148.818 41.3029 147.745 40.3634 146.529 39.5289Z" fill="#3558A2"/>
<path d="M130.425 42.7616C130.145 43.94 129.825 44.3588 129.202 44.3588C127.754 44.3588 127.641 41.338 127.641 40.4112C127.641 38.9493 127.831 36.4937 129.103 36.4937C129.868 36.4937 130.119 37.024 130.298 37.9381L130.302 37.9667L131.752 37.575L131.747 37.5543C131.468 35.801 130.618 34.949 129.145 34.949C128.958 34.949 128.78 34.9697 128.609 35.008V26.6316H130.436V25.13H125.348V26.6316H127.174V36.0192C126.518 36.946 126.163 38.4524 126.163 40.4446C126.163 43.3556 126.893 45.2188 128.222 45.7522L127.773 47.9594H129.186L129.573 45.878C130.748 45.7013 131.446 44.8461 131.761 43.2155L131.766 43.1916L130.431 42.7393L130.425 42.7648V42.7616Z" fill="#3558A2"/>
<path d="M158.864 66.0337H87.6921V13.7789H158.864V66.0337ZM89.1414 64.5846H157.415V15.2281H89.1414V64.5846Z" fill="#3558A2"/>
<path d="M100.747 50.2095C101.172 50.2095 101.494 50.2048 102.123 50.1888C102.347 50.1777 102.425 50.1729 102.497 50.1522C102.548 50.1363 102.564 50.1363 102.585 50.1363C102.682 50.1363 102.774 50.2127 102.922 50.4134C103.05 50.5822 103.102 50.6857 103.102 50.7621C103.102 50.8178 103.077 50.8545 103.021 50.8895C102.94 50.9405 102.924 50.9564 102.822 51.0933C102.637 51.3497 102.413 51.5902 102.085 51.8912C101.951 52.0138 101.905 52.044 101.854 52.044C101.819 52.044 101.793 52.0329 101.768 52.0026C101.645 51.8593 101.532 51.7733 101.347 51.6746C101.741 51.4341 102.008 51.1777 102.32 50.7334C100.563 50.7472 99.5836 50.7711 99.3819 50.8051C99.3405 50.8162 99.3261 50.8162 99.315 50.8162C99.2385 50.8162 99.1924 50.7701 99.1669 50.6681C99.1318 50.5296 99.1111 50.3656 99.1 50.1458C99.3564 50.192 99.7912 50.2079 100.748 50.2079L100.747 50.2095ZM101.161 51.1873C101.263 51.2128 101.304 51.243 101.304 51.294C101.304 51.3078 101.294 51.337 101.274 51.3816C101.248 51.4485 101.223 51.5615 101.197 51.7351C101.096 52.431 100.936 52.8912 100.67 53.2654C100.455 53.5616 100.118 53.8546 99.8214 53.9964C99.7864 54.0171 99.745 54.0266 99.7243 54.0266C99.6781 54.0266 99.6479 54.0107 99.6112 53.9645C99.5093 53.8419 99.3867 53.7495 99.2115 53.6476C99.5029 53.5091 99.667 53.4072 99.8453 53.2543C100.337 52.8291 100.583 52.2049 100.583 51.3816C100.583 51.2637 100.583 51.1921 100.573 51.1013C100.818 51.1156 100.994 51.1411 101.162 51.1889L101.161 51.1873Z" fill="#3558A2"/>
<path d="M107.515 51.243C107.541 51.294 107.552 51.3306 107.552 51.3609C107.552 51.4118 107.531 51.4469 107.464 51.5392C107.182 51.9071 106.881 52.2049 106.426 52.5568C105.915 52.9565 105.478 53.2224 104.865 53.5139C104.472 53.6986 104.451 53.7081 104.389 53.7655C104.348 53.8069 104.327 53.8164 104.297 53.8164C104.25 53.8164 104.209 53.775 104.133 53.6636C104.031 53.5107 103.934 53.3005 103.876 53.1205C104.394 53.0027 105.012 52.7272 105.611 52.3482C106.399 51.8513 106.896 51.3609 107.28 50.6904C107.335 50.8799 107.382 50.9819 107.515 51.243ZM104.107 50.3831C104.195 50.286 104.23 50.2605 104.276 50.2605C104.373 50.2653 104.757 50.5121 105.074 50.7669C105.268 50.9261 105.33 50.993 105.33 51.044C105.33 51.0806 105.238 51.2175 105.115 51.3561C105.002 51.4835 104.946 51.5297 104.905 51.5297C104.882 51.5297 104.8 51.4633 104.66 51.3306C104.526 51.2032 104.26 50.9882 104.128 50.9054C104.009 50.8269 103.937 50.7807 103.913 50.7669C103.892 50.7525 103.883 50.7366 103.883 50.7207C103.883 50.6745 103.98 50.5312 104.107 50.3831Z" fill="#3558A2"/>
<path d="M111.274 52.9215C111.602 53.2193 111.801 53.4327 111.801 53.49C111.801 53.5362 111.734 53.6174 111.576 53.7718C111.459 53.8849 111.408 53.9199 111.371 53.9199C111.35 53.9199 111.325 53.9088 111.295 53.8833C111.257 53.8387 111.16 53.7278 111.003 53.5505C110.721 53.2336 110.337 52.896 109.893 52.5775C109.555 52.931 109.1 53.3148 108.732 53.5648C108.441 53.7639 108.164 53.9184 108.103 53.9184C108.052 53.9184 108.047 53.9136 107.925 53.775C107.853 53.6938 107.735 53.5903 107.608 53.4979C108.197 53.2272 108.632 52.9358 109.118 52.4899C109.645 52.009 109.992 51.5631 110.403 50.8577C109.25 50.864 108.579 50.8773 108.391 50.8975C108.329 50.9022 108.32 50.9022 108.31 50.9022C108.254 50.9022 108.222 50.8768 108.213 50.821C108.187 50.657 108.178 50.5041 108.178 50.2318C108.527 50.278 109.068 50.2987 109.81 50.2987C110.113 50.2987 110.43 50.2892 110.599 50.2684C110.666 50.2637 110.675 50.2573 110.783 50.2223C110.804 50.2127 110.814 50.2127 110.845 50.2127C110.933 50.2127 111.025 50.2844 111.148 50.4484C111.245 50.5869 111.301 50.6936 111.301 50.751C111.301 50.8115 111.285 50.8322 111.153 50.9548C111.072 51.036 111.035 51.0774 110.877 51.3386C110.724 51.5934 110.489 51.9166 110.294 52.1523C110.694 52.4183 110.965 52.6221 111.282 52.9199L111.274 52.9215Z" fill="#3558A2"/>
<path d="M112.413 51.837C112.357 51.8418 112.32 51.8418 112.3 51.8418C112.279 51.8418 112.263 51.8418 112.253 51.8466H112.207C112.156 51.8466 112.12 51.8211 112.11 51.759C112.085 51.6364 112.069 51.4676 112.069 51.2319C112.293 51.2574 112.339 51.2574 112.857 51.2669C113.527 51.2781 113.932 51.2828 114.07 51.2828C114.926 51.2828 115.923 51.2669 116.082 51.2526H116.128C116.2 51.2526 116.2 51.2574 116.2 51.595C116.2 51.8211 116.19 51.8466 116.119 51.8466H116.084C115.848 51.8354 115.751 51.8354 114.548 51.8211C114.528 52.2096 114.507 52.3737 114.442 52.6094C114.282 53.1874 113.981 53.5919 113.468 53.9088C113.325 54.0012 113.212 54.0521 113.167 54.0521C113.142 54.0521 113.121 54.041 113.08 54.0012C112.895 53.8164 112.835 53.7655 112.65 53.6731C113.556 53.2479 113.889 52.7622 113.919 51.8147C113.089 51.8195 112.809 51.8259 112.414 51.8354L112.413 51.837ZM114.2 50.106C114.692 50.106 115.228 50.0901 115.443 50.0646H115.469C115.54 50.0646 115.556 50.1012 115.556 50.2589V50.3672C115.556 50.3974 115.556 50.4484 115.552 50.5105C115.552 50.649 115.542 50.6634 115.443 50.6634H115.383C115.244 50.6586 114.308 50.6427 114.077 50.6427C113.462 50.6427 113.018 50.6522 112.854 50.6729C112.838 50.6777 112.823 50.6777 112.812 50.6777C112.761 50.6777 112.736 50.657 112.725 50.6108C112.704 50.5025 112.683 50.2573 112.683 50.0582C112.903 50.0837 113.569 50.1044 114.198 50.1044L114.2 50.106Z" fill="#3558A2"/>
<path d="M118.009 52.431C117.604 52.6858 117.073 52.9677 116.98 52.9677C116.946 52.9677 116.897 52.9316 116.832 52.8594C116.744 52.7622 116.643 52.6699 116.515 52.5775C117.19 52.3577 117.861 51.9628 118.465 51.4309C118.71 51.216 118.823 51.0822 118.961 50.8736C119.232 51.0519 119.438 51.2478 119.438 51.3242C119.438 51.3545 119.422 51.3704 119.377 51.3911C119.305 51.4214 119.259 51.4628 119.106 51.595C118.998 51.6921 118.794 51.8609 118.563 52.0345V52.853C118.563 53.2973 118.573 53.7543 118.589 53.9693V54.025C118.589 54.1063 118.538 54.1174 118.214 54.1174C118.011 54.1174 117.99 54.1126 117.99 54.0553V54.0187C117.99 54.0043 117.99 53.9677 117.995 53.9168C118.004 53.7894 118.011 53.3387 118.011 52.8514V52.4262L118.009 52.431Z" fill="#3558A2"/>
<path d="M122.271 51.5966C122.276 51.4787 122.276 51.4071 122.276 51.2175C122.276 51.1714 122.276 51.0328 122.271 50.7987C121.903 50.8752 121.263 50.9723 121.14 50.9723C121.089 50.9723 121.052 50.9468 121.027 50.8847C120.997 50.8083 120.919 50.6745 120.868 50.5981C120.868 50.5933 120.826 50.5471 120.745 50.45C121.425 50.4452 122.086 50.3417 122.726 50.1426C123.018 50.0503 123.191 49.9691 123.433 49.8257C123.658 50.0248 123.843 50.2605 123.843 50.3481C123.843 50.3942 123.812 50.4149 123.746 50.4245C123.648 50.4341 123.586 50.45 123.459 50.4914C123.193 50.579 123.147 50.5933 122.886 50.6602C122.89 50.8608 122.89 50.8911 122.89 51.1618V51.5918C123.653 51.5822 124.215 51.5663 124.379 51.5504C124.4 51.5456 124.414 51.5456 124.43 51.5456C124.497 51.5456 124.512 51.5966 124.512 51.8163C124.512 52.1444 124.507 52.1539 124.43 52.1539C124.421 52.1539 124.257 52.1428 124.199 52.138C123.984 52.1221 123.682 52.1173 122.854 52.1173C122.792 52.6301 122.644 53.0584 122.408 53.4167C122.26 53.6413 122.008 53.9184 121.814 54.0712C121.783 54.0919 121.763 54.1015 121.737 54.1015C121.707 54.1015 121.635 54.0675 121.522 53.9996C121.42 53.9327 121.291 53.8817 121.103 53.8148C121.478 53.5951 121.723 53.3594 121.922 53.0218C122.07 52.7654 122.188 52.4326 122.229 52.1268C121.277 52.1364 120.888 52.1523 120.648 52.1937C120.592 52.1985 120.572 52.2033 120.556 52.2033C120.509 52.2033 120.489 52.1874 120.479 52.1523C120.444 52.0345 120.419 51.8099 120.407 51.5631C120.627 51.5886 120.955 51.5997 121.615 51.5997H121.758L122.269 51.595L122.271 51.5966Z" fill="#3558A2"/>
<path d="M126.219 51.9342C126.034 51.9342 125.912 51.9437 125.8 51.9596C125.784 51.9644 125.775 51.9644 125.765 51.9644C125.719 51.9644 125.689 51.9389 125.677 51.8832C125.652 51.7701 125.636 51.6077 125.636 51.3816C125.81 51.4182 126.122 51.4325 126.686 51.4325C127.151 51.4325 127.197 51.4278 127.289 51.3863C127.31 51.3816 127.331 51.3752 127.345 51.3752C127.431 51.3752 127.514 51.4214 127.636 51.5281C127.745 51.6252 127.815 51.7271 127.815 51.7797C127.815 51.8004 127.805 51.8259 127.773 51.8673C127.733 51.9214 127.685 52.1109 127.63 52.4358C127.568 52.8403 127.538 53.0043 127.503 53.1731C127.499 53.1837 127.498 53.1938 127.498 53.2033C127.953 53.2033 128.041 53.1986 128.261 53.1826H128.291C128.363 53.1826 128.378 53.2336 128.378 53.4995C128.378 53.7097 128.369 53.74 128.302 53.74C128.277 53.74 128.265 53.74 128.057 53.7288C127.888 53.7193 127.342 53.7129 126.854 53.7129C126.061 53.7129 125.467 53.7288 125.252 53.7543H125.206C125.134 53.7543 125.104 53.74 125.083 53.6986C125.063 53.6365 125.042 53.4884 125.023 53.1715C125.381 53.2017 125.525 53.2081 126.928 53.2081C126.937 53.1667 126.937 53.1619 126.942 53.1205C127.009 52.7973 127.069 52.3689 127.116 51.9342H126.219Z" fill="#3558A2"/>
<path d="M130.775 51.9596C130.775 52.2972 130.505 52.5679 130.167 52.5679C129.829 52.5679 129.559 52.2956 129.559 51.9596C129.559 51.6236 129.831 51.3513 130.167 51.3513C130.503 51.3513 130.775 51.622 130.775 51.9596Z" fill="#3558A2"/>
<path d="M133.72 50.8338C132.804 50.8338 132.159 50.864 131.995 50.9102C131.991 50.915 131.984 50.915 131.979 50.915C131.882 50.915 131.852 50.7462 131.836 50.2191C132.088 50.2605 132.414 50.27 133.172 50.27C133.857 50.27 134.661 50.2541 134.789 50.2398C134.881 50.2302 134.911 50.2239 135.004 50.1888C135.029 50.1777 135.04 50.1777 135.059 50.1777C135.147 50.1777 135.254 50.2589 135.418 50.4548C135.515 50.5774 135.536 50.6076 135.536 50.665C135.536 50.7 135.52 50.7318 135.485 50.778C135.434 50.8401 135.429 50.8545 135.316 51.2128C135.029 52.1141 134.461 52.9215 133.693 53.5155C133.386 53.7511 133.094 53.9295 133.018 53.9295C132.962 53.9295 132.951 53.9247 132.833 53.8069C132.694 53.6683 132.588 53.5919 132.449 53.5155C133.201 53.1412 133.61 52.8243 134.005 52.3291C134.359 51.8784 134.579 51.3975 134.696 50.8242C134.43 50.8274 134.104 50.8306 133.718 50.8338H133.72Z" fill="#3558A2"/>
<path d="M136.455 51.8211C136.445 51.8211 136.42 51.8259 136.413 51.8259C136.3 51.8259 136.254 51.6523 136.219 51.1252C136.471 51.1666 136.822 51.1809 137.775 51.1809C138.799 51.1809 139.074 51.1809 139.172 51.1714C139.248 51.1666 139.264 51.1602 139.366 51.13C139.401 51.114 139.433 51.1093 139.463 51.1093C139.539 51.1093 139.602 51.1459 139.683 51.2319C139.821 51.3911 139.914 51.5329 139.914 51.595C139.914 51.6507 139.888 51.6921 139.826 51.759C139.785 51.794 139.759 51.8402 139.662 52.0615C139.32 52.8132 138.936 53.2734 138.331 53.6588C138.055 53.8371 137.609 54.0426 137.507 54.0426C137.436 54.0426 137.394 54.0123 137.308 53.9088C137.174 53.7495 137.114 53.6938 136.971 53.6222C137.553 53.4486 138.087 53.1572 138.464 52.7925C138.751 52.5154 138.966 52.1587 139.114 51.7128C137.174 51.7383 136.816 51.7542 136.453 51.8211H136.455ZM138.128 50.0041C138.483 50.0041 138.857 49.9908 139.25 49.9643H139.312C139.379 49.9643 139.404 50.0152 139.409 50.1681C139.409 50.2302 139.409 50.286 139.414 50.3369V50.3576C139.414 50.5423 139.393 50.5933 139.326 50.5933C139.305 50.5933 139.264 50.5885 139.218 50.5885C139.121 50.579 138.737 50.5678 138.578 50.5678C137.81 50.5678 137.262 50.579 136.961 50.6045H136.921C136.787 50.6045 136.767 50.528 136.736 49.9547C137.069 49.9961 137.391 50.0057 138.128 50.0057V50.0041Z" fill="#3558A2"/>
<path d="M144.134 51.243C144.16 51.294 144.169 51.3306 144.169 51.3609C144.169 51.4118 144.148 51.4469 144.082 51.5392C143.8 51.9071 143.499 52.2049 143.043 52.5568C142.53 52.9565 142.096 53.2224 141.482 53.5139C141.089 53.6986 141.068 53.7081 141.006 53.7655C140.965 53.8069 140.944 53.8164 140.914 53.8164C140.868 53.8164 140.826 53.775 140.75 53.6636C140.648 53.5107 140.551 53.3005 140.493 53.1205C141.011 53.0027 141.629 52.7272 142.229 52.3482C143.018 51.8513 143.513 51.3609 143.898 50.6904C143.954 50.8799 144 50.9819 144.134 51.243ZM140.726 50.3831C140.814 50.286 140.849 50.2605 140.895 50.2605C140.992 50.2653 141.376 50.5121 141.693 50.7669C141.887 50.9261 141.949 50.993 141.949 51.044C141.949 51.0806 141.857 51.2175 141.734 51.3561C141.621 51.4835 141.565 51.5297 141.524 51.5297C141.501 51.5297 141.419 51.4633 141.279 51.3306C141.145 51.2032 140.879 50.9882 140.747 50.9054C140.627 50.8269 140.555 50.7807 140.532 50.7669C140.511 50.7525 140.501 50.7366 140.501 50.7207C140.501 50.6745 140.599 50.5312 140.728 50.3831H140.726Z" fill="#3558A2"/>
<path d="M146.47 51.2128C147.904 50.8592 148.036 50.8194 148.154 50.7159C148.2 50.6793 148.235 50.665 148.277 50.665C148.353 50.665 148.476 50.7573 148.605 50.9102C148.743 51.0695 148.815 51.1873 148.815 51.2383C148.815 51.3099 148.804 51.3258 148.681 51.4118C148.625 51.458 148.609 51.4739 148.364 51.8211C148.211 52.0361 147.867 52.4039 147.673 52.5584C147.612 52.6093 147.581 52.6253 147.546 52.6253C147.515 52.6253 147.495 52.6157 147.458 52.5791C147.345 52.4613 147.243 52.3896 147.044 52.2925C147.479 51.9851 147.842 51.6125 147.976 51.3354L147.772 51.3975C147.751 51.4023 147.321 51.5201 146.472 51.7558V52.6826C146.472 52.9533 146.534 53.0871 146.678 53.1476C146.826 53.2033 147.041 53.2288 147.348 53.2288C147.604 53.2288 147.977 53.2033 148.264 53.1667C148.372 53.1572 148.398 53.1524 148.412 53.1524C148.52 53.1524 148.546 53.2336 148.56 53.6222V53.6636C148.56 53.7257 148.539 53.7655 148.498 53.7814C148.436 53.8069 148.068 53.8228 147.557 53.8228C146.916 53.8228 146.585 53.7814 146.329 53.6636C146.026 53.525 145.868 53.2384 145.868 52.8339V51.923C145.265 52.0966 145.198 52.1221 145.029 52.2096C144.994 52.2256 144.973 52.2351 144.953 52.2351C144.86 52.2351 144.754 51.9994 144.645 51.5902C144.983 51.5536 145.367 51.4819 145.868 51.3609V50.8736C145.868 50.4436 145.857 50.2079 145.822 49.9882C146.063 49.9882 146.338 50.0184 146.482 50.0551C146.528 50.0694 146.558 50.0965 146.558 50.1267C146.558 50.157 146.558 50.157 146.517 50.2446C146.486 50.3114 146.47 50.4898 146.47 50.751V51.2128Z" fill="#3558A2"/>
</svg>
