<?xml version="1.0" encoding="UTF-8"?>
<svg id="_レイヤー_1" xmlns="http://www.w3.org/2000/svg" version="1.1" viewBox="0 0 410.9104786 113.5872116">
  <!-- Generator: Adobe Illustrator 30.0.0, SVG Export Plug-In . SVG Version: 2.1.1 Build 123)  -->
  <defs>
    <style>
      .st0 {
        fill: #ababab;
      }
    </style>
  </defs>
  <path d="M108.2674809,49.2983017c-1.1980057,3.7315979-2.2509995,7.4790993-3.0500031,10.4133987h-.0950012c-.6069946-2.1847-1.8040009-6.6338997-3.0499954-10.4133987l-6.3380051-18.8811016h-7.9340973v34.8758984h5.1881027v-18.0359993c0-4.0823975-.2070007-9.1215973-.3510056-12.3588982h.1440048c.7979965,3.1415977,2.1389999,8.1170006,3.1930008,11.2106972l6.4339981,19.1842003h5.1399994l6.2900009-19.0247002c1.1500015-3.4445,2.651001-8.372097,3.4489975-11.4019966h.1429977c-.0949936,3.2849998-.3509979,8.1168976-.3509979,12.1036987v18.3389969h5.2370071V30.4330997h-7.9350052l-6.1299973,18.8812008.0159988-.0159988Z"/>
  <path d="M145.225481,54.3694992c0,4.0824013-2.2510071,7.3195992-6.2259979,7.3195992-3.1450043,0-5.4920044-1.5946999-5.4920044-6.2831001v-15.7874985h-5.1889954v16.792202c.3040009,7.0165977,3.8959961,9.520298,9.019989,9.520298,4.2950134,0,6.6260071-1.8498993,7.9830017-3.8432007h.0480042v3.1893997h4.9810028v-25.658699h-5.1410065v14.7509995h.0160065Z"/>
  <path d="M168.4704762,50.2869987l-2.7460022-.6537971c-3.3849945-.7973022-5.2369995-1.6425018-5.2369995-3.7793999,0-2.1369019,2.0440063-3.1416016,5.0930023-3.1416016,3.447998,0,5.5400085,1.4511986,5.779007,4.4333h4.8860016c-.4480133-6.3308983-5.029007-8.2126999-10.5210114-8.2126999-5.4919891,0-10.3289948,2.4398994-10.3289948,7.4790993,0,5.039299,3.8950043,6.3787994,8.0780029,7.3675003l2.4420013.5900993c3.7359924.9407997,5.8909912,1.5468025,5.8909912,3.8432007,0,2.6949997-2.5859985,3.986702-5.8430023,3.986702-3.2569885,0-6.2899933-1.5469017-6.4339905-5.0392036h-4.9810028c.2559967,6.5223007,5.3329926,8.7708015,11.3670044,8.7708015,6.3860016,0,11.0800018-2.7429008,11.0800018-8.2765007,0-4.9276009-4.3430023-6.3787994-8.5250092-7.3675003Z"/>
  <path d="M192.3054829,38.9328003c-7.727005,0-12.7720032,5.581398-12.7720032,13.4432983,0,7.8618011,4.8849945,13.5549011,12.9160004,13.5549011,6.1779938,0,10.4729919-3.3807983,12.0209961-8.5634995h-5.2839966c-.7510071,1.9933014-2.6499939,4.4332008-6.6419983,4.4332008-4.3419952,0-7.5830078-3.0937004-7.7259979-8.1648026h19.8439941c0-8.6112976-4.0390015-14.7030983-12.3730011-14.7030983h.0160065ZM184.8344746,49.888401c.303009-3.9389,3.0490112-7.1282997,7.375-7.1282997,4.3270111,0,6.9290009,3.1893997,7.0890045,7.1282997h-14.4640045Z"/>
  <path d="M200.0484791,30.4172001h-6.5460052l-3.4319916,6.4265995h4.2789917l5.6990051-6.4265995Z"/>
  <path d="M220.1954823,38.9328003c-7.727005,0-12.7709961,5.581398-12.7709961,13.4432983,0,7.8618011,4.8849945,13.5549011,12.9149933,13.5549011,6.1779938,0,10.4729919-3.3807983,12.0220032-8.5634995h-5.2850037c-.75,1.9933014-2.6499939,4.4332008-6.625,4.4332008-4.3430023,0-7.5830078-3.0937004-7.727005-8.1648026h19.8440094c0-8.6112976-4.0390015-14.7030983-12.3730011-14.7030983ZM212.7084827,49.888401c.3029938-3.9389,3.048996-7.1282997,7.3759918-7.1282997,4.326004,0,6.928009,3.1893997,7.0879974,7.1282997h-14.4639893Z"/>
  <path d="M264.9764881,42.1699982h-.0469971c-1.3410034-1.5945969-3.6880188-3.2849998-7.6790161-3.2849998-6.5780029,0-11.7189941,5.5335999-11.7189941,13.5549011s4.9339905,13.507,11.5750122,13.507c3.7359924,0,6.4339905-1.594696,7.8859863-3.7793999h.0960083v3.1415977h5.0929871V30.4330997h-5.1889954v11.7529011l-.0159912-.0160027ZM258.2554798,61.8007011c-4.6289978,0-7.2799988-3.7316017-7.2799988-9.3129997,0-5.5814018,2.5870056-9.5203018,7.1849976-9.5203018,4.5969849,0,7.0880127,3.4445,7.0880127,9.408699,0,5.9640999-2.4910278,9.4087029-6.9770203,9.4087029l-.0159912.0158997Z"/>
  <path d="M278.8024769,36.7958984v.3030014c0,1.9934006-1.0539856,4.1302986-3.0969849,4.5768013v2.8386002c3.9909973-.7974014,6.0339966-3.9868011,6.0339966-8.0692024v-6.0278988h-5.9380188v6.3786983h3.0010071Z"/>
  <path d="M301.6474781,29.8111992c-10.519989,0-16.5549927,7.925602-16.5549927,18.1315994,0,10.2061005,5.7789917,18.0359993,16.5549927,18.0359993,10.7770081,0,16.5559998-7.766098,16.5559998-18.0359993,0-10.2697983-6.0350037-18.1315994-16.5559998-18.1315994ZM301.6474781,61.7528992c-7.631012,0-11.0150146-6.5223007-11.0150146-13.7940979,0-7.271801,3.3840027-13.7941017,11.0150146-13.7941017,7.6319885,0,11.0159912,6.5700989,11.0159912,13.7941017,0,7.223999-3.3840027,13.7940979-11.0159912,13.7940979Z"/>
  <path d="M327.9894886,43.5096016h-.0960083v-3.8911018h-4.9330139v25.658699h5.1410217v-13.8419991c0-5.3740997,2.6499939-7.8139992,6.4819946-7.8139992.5899963,0,1.196991.0479012,1.6919861.1435013v-4.7840004c-.446991-.0479012-.7980042-.0479012-1.1499939-.0479012-3.7349854,0-6.4329834,2.0890999-7.1359863,4.5768013Z"/>
  <path d="M351.0264759,50.2869987l-2.7460022-.6537971c-3.3840027-.7973022-5.2359924-1.6425018-5.2359924-3.7793999,0-2.1369019,2.0429993-3.1416016,5.0929871-3.1416016,3.447998,0,5.5390015,1.4511986,5.7790222,4.4333h4.8849792c-.446991-6.3308983-5.0449829-8.2126999-10.5209961-8.2126999-5.4750061,0-10.32901,2.4398994-10.32901,7.4790993,0,5.039299,3.8960266,6.3787994,8.0780029,7.3675003l2.4430237.5900993c3.7359924.9407997,5.8909912,1.5468025,5.8909912,3.8432007,0,2.6949997-2.5859985,3.986702-5.8430176,3.986702-3.2569885,0-6.289978-1.5469017-6.4339905-5.0392036h-4.9809875c.2559814,6.5223007,5.3320007,8.7708015,11.3670044,8.7708015,6.3859863,0,11.0639954-2.7429008,11.0639954-8.2765007,0-4.9276009-4.3430176-6.3787994-8.526001-7.3675003h.0159912Z"/>
  <path d="M384.3454762,59.6478996v-11.8007011c0-.7495003,0-1.4990997-.1440125-2.3920975-.7019958-5.2784004-5.2359924-6.5223007-10.0259705-6.5223007-6.178009,0-10.8240051,2.6950989-10.8240051,9.1217003h4.9809875c0-3.4445992,1.6920166-5.2784996,5.6360168-5.2784996,3.9429932,0,5.2839966,1.4990005,5.2839966,4.0345993,0,1.8977013-.6549988,2.3919983-3.7360229,2.8386002l-1.8999939.3030014c-5.6349792.8450966-11.3659973,2.248497-11.3659973,8.2763977,0,4.9276009,3.9429932,7.6225967,9.2269897,7.6225967,4.0390015,0,6.9290161-1.5945969,8.3340149-3.4444962h.0960083c.3029785,2.248497,1.3410034,2.9821014,4.3899841,2.9821014.9900208,0,1.7400208,0,2.7460022-.0957031v-3.4923973c-.3039856.0478973-.5910034.0478973-.8939819.0478973-1.4530029,0-1.7880249-.5421982-1.7880249-2.1847992l-.0159912-.0158997ZM379.4124928,55.8205986c0,4.7840996-3.5920105,6.2831001-6.6260071,6.2831001-3.03302,0-5.2359924-1.4990005-5.2359924-4.1301994,0-2.6312981,1.7399902-3.4445992,6.625-4.4333l2.7459717-.5421982c1.5010071-.3030014,2.0920105-.5900002,2.4910278-.9409027v3.7795029-.0160027Z"/>
  <path d="M405.7374744,39.6344986l-3.3840027,10.2698021c-1.196991,3.5401993-2.4909973,7.9255981-3.0969849,9.9668007h-.0960083c-.4949951-1.5946007-1.8519897-5.7249031-3.1929932-9.7116013l-3.5440063-10.5091019h-5.4440002l9.57901,25.6108017-.3040161.9409027c-.75,2.4398956-1.5480042,3.8432007-4.9329834,3.8432007-.7019958,0-1.5-.0478058-1.9950256-.0957031v3.9388962c.4470215.0478058,1.5960083.1435013,2.7460022.1435013,4.1350098,0,6.4810181-1.0046005,8.2210083-5.6771011,3.5930176-9.6159973,7.0249939-19.0246964,10.6170044-28.6884956h-5.1889954l.0159912-.0319023Z"/>
  <g>
    <path class="st0" d="M19.3805847,106.5002365H5.465723v-5.7906265l13.4394264-17.9339142h5.8772087v19.1437988h4.3645973v4.5807495h-4.3645973v6.5252457h-5.4017715v-6.5252457l-.0000019-.0000076ZM19.3805847,94.6162415c0-2.4632416.0432091-4.0620117.0864353-5.4449463h-.0864353c-.6914635,1.2100983-1.642107,2.6360474-3.0681458,4.5807419l-3.4571705,4.6671677-2.7657051,3.5434875v.0431976l3.7596569-.0864029h5.5313644v-7.3032455h0s0,.0000076,0,0Z"/>
    <path class="st0" d="M30.7879124,97.7708359c0-11.3220444,5.4017372-15.5568771,11.6245079-15.5568771,6.3091583,0,11.6244926,4.2348251,11.6244926,15.5568771,0,11.5383301-5.3153343,15.8163757-11.6244888,15.8163757-6.3091736,0-11.6245079-4.2780457-11.6245079-15.8163757h-.0000038ZM36.621767,97.7708359c0,5.8340912,1.2962914,11.1494064,5.7906532,11.1494064,4.4943314,0,5.7042122-5.27211,5.7042122-11.1494141,0-5.6610489-1.2098808-10.8464813-5.7042084-10.8464813-4.4943619,0-5.7906532,5.1854401-5.7906532,10.8464813,0,0-.0000038,0-.0000038.0000076Z"/>
    <polygon points="11.6214943 0 23.9190311 0 31.5040913 25.2145481 39.2401333 0 51.2879734 0 51.2879734 .5085545 46.8189449 .5085545 46.8189449 36.9850655 51.2879734 36.981987 51.2879734 37.4936218 35.0762043 37.4936218 35.0762043 36.9850655 39.5452328 36.9850655 39.5452328 .6780621 28.1723194 37.9096985 27.8486843 37.9096985 16.5713387 .6780621 16.5713387 36.9850655 20.9602299 36.9850655 20.9602299 37.4966774 11.6214943 37.4966774 11.6214943 36.9850655 16.0597095 36.9850655 16.0597095 .5085545 11.6214943 .5085545 11.6214943 0 11.6214943 0"/>
    <polygon points=".0000029 44.7365227 60.1335773 44.7365227 60.1335773 45.2450523 .0020123 45.2450523 .0000029 44.7365227 .0000029 44.7365227"/>
    <path d="M8.2466087,48.3394699c1.6643353,0,3.4365444,1.3129768,3.4365444,4.5954056,0,4.1916237-2.8355331,6.3490906-5.748106,6.3490906v-.2773819c3.1129284-.2928123,4.5306721-1.880085,4.4382153-5.1624985-.0010338-.0359917-.0851879-.0352669-.0924854,0-.2157135,1.047905-1.2019329,1.5410461-2.2807331,1.5410461-2.126627,0-2.958807-1.7413979-2.958807-3.4673424,0-2.0187798,1.3281822-3.5783195,3.2053699-3.5783195h.0000019Z"/>
    <path d="M50.9757442,75.0523453c-.1704712-13.8590546-11.3585281-22.5744247-20.861702-22.5808716v-.0002289c-9.507225,0-20.6913166,8.7194557-20.861702,22.5811005H0l.0020094.5085297h60.131568v-.5085297h-9.1578331ZM30.1111393,52.876339c4.8131676-.0023689,11.0470963,1.8186874,11.1122971,22.1760063h-22.2065296c.0620556-20.3573151,6.2777004-22.1783752,11.0942326-22.1760025v-.0000038Z"/>
  </g>
</svg>