<svg width="46" height="46" viewBox="0 0 46 46" fill="none" xmlns="http://www.w3.org/2000/svg">
<mask id="mask0_21036_81" style="mask-type:alpha" maskUnits="userSpaceOnUse" x="0" y="0" width="46" height="46">
<rect x="0.000244141" width="45.3174" height="45.3174" fill="#D9D9D9"/>
</mask>
<g mask="url(#mask0_21036_81)">
<path d="M26.2172 17.8947V16.5729C27.2318 16.0596 28.3182 15.6748 29.4763 15.4183C30.6347 15.1615 31.824 15.0331 33.0441 15.0331C33.7411 15.0331 34.4105 15.0779 35.0522 15.1676C35.6936 15.257 36.3557 15.384 37.0386 15.5486V16.8269C36.3799 16.6164 35.7378 16.4705 35.1122 16.3893C34.4862 16.3084 33.7969 16.268 33.0441 16.268C31.824 16.268 30.633 16.4053 29.4711 16.6801C28.3089 16.9548 27.2243 17.3597 26.2172 17.8947ZM26.2172 28.2072V26.8019C27.1833 26.2924 28.2637 25.9102 29.4583 25.6553C30.653 25.4004 31.8482 25.2729 33.0441 25.2729C33.7411 25.2729 34.4105 25.3178 35.0522 25.4075C35.6936 25.4971 36.3557 25.6243 37.0386 25.7889V27.0667C36.3799 26.8562 35.7378 26.7105 35.1122 26.6296C34.4862 26.5484 33.7969 26.5078 33.0441 26.5078C31.824 26.5078 30.633 26.6554 29.4711 26.9506C28.3089 27.2461 27.2243 27.665 26.2172 28.2072ZM26.2172 23.0873V21.6928C27.2318 21.1796 28.3182 20.7947 29.4763 20.5382C30.6347 20.2814 31.824 20.153 33.0441 20.153C33.7411 20.153 34.4105 20.1978 35.0522 20.2875C35.6936 20.3772 36.3557 20.5044 37.0386 20.669V21.9468C36.3799 21.7363 35.7378 21.5904 35.1122 21.5092C34.4862 21.4283 33.7969 21.3879 33.0441 21.3879C31.824 21.3879 30.633 21.5374 29.4711 21.8363C28.3089 22.1353 27.2243 22.5523 26.2172 23.0873ZM11.9975 30.72C13.7441 30.72 15.4425 30.9288 17.0928 31.3464C18.7435 31.764 20.3761 32.4145 21.9909 33.2979V14.0493C20.5747 12.984 18.9938 12.1797 17.2481 11.6362C15.5028 11.0927 13.7526 10.8209 11.9975 10.8209C10.8261 10.8209 9.81137 10.9038 8.95318 11.0697C8.09466 11.2355 7.11955 11.5024 6.02785 11.8703C5.73737 11.9672 5.53172 12.1065 5.41087 12.2881C5.28971 12.4697 5.22913 12.6693 5.22913 12.8871V30.7601C5.22913 31.0748 5.35013 31.3108 5.59214 31.4682C5.83415 31.6255 6.10039 31.6557 6.39086 31.5588C7.02782 31.2875 7.82858 31.08 8.79315 30.9362C9.75772 30.792 10.8258 30.72 11.9975 30.72ZM23.4434 33.2979C25.0408 32.4145 26.6433 31.764 28.2508 31.3464C29.8583 30.9288 31.5481 30.72 33.3202 30.72C34.4919 30.72 35.5697 30.7901 36.5538 30.9305C37.5379 31.0709 38.3289 31.238 38.9268 31.4318C39.2173 31.5527 39.4836 31.5344 39.7256 31.3771C39.9676 31.2197 40.0886 30.9716 40.0886 30.6326V12.8871C40.0886 12.6693 40.028 12.4756 39.9068 12.306C39.786 12.1367 39.5803 11.9915 39.2899 11.8703C38.2441 11.4807 37.2833 11.2083 36.4075 11.0532C35.532 10.8983 34.5029 10.8209 33.3202 10.8209C31.5481 10.8209 29.8069 11.0927 28.0965 11.6362C26.3864 12.1797 24.8353 12.984 23.4434 14.0493V33.2979ZM22.699 35.4405C21.1059 34.3897 19.4017 33.5842 17.5861 33.0241C15.7706 32.4636 13.9077 32.1833 11.9975 32.1833C11.104 32.1833 10.2265 32.2523 9.36481 32.3901C8.50315 32.5283 7.63048 32.7292 6.74679 32.9929C6.01982 33.2906 5.34305 33.2014 4.71647 32.7253C4.0899 32.2488 3.77661 31.601 3.77661 30.7818V12.956C3.77661 12.4355 3.91099 11.9556 4.17975 11.5163C4.4485 11.0769 4.82741 10.7569 5.31646 10.5561C6.37166 10.1445 7.46179 9.84361 8.58686 9.65353C9.71193 9.46345 10.8488 9.36841 11.9975 9.36841C13.9297 9.36841 15.8024 9.64802 17.6154 10.2072C19.4284 10.7665 21.1289 11.5968 22.7169 12.6983C24.2734 11.5968 25.9541 10.7665 27.7589 10.2072C29.5635 9.64802 31.4172 9.36841 33.3202 9.36841C34.4664 9.36841 35.6007 9.46345 36.7233 9.65353C37.8461 9.84361 38.9352 10.1445 39.9904 10.5561C40.4794 10.7522 40.8602 11.071 41.1328 11.5125C41.405 11.9543 41.5411 12.4355 41.5411 12.956V30.7818C41.5411 31.611 41.193 32.2548 40.4969 32.713C39.8011 33.1709 39.0828 33.24 38.342 32.9202C37.514 32.6735 36.6788 32.4889 35.8363 32.3665C34.9938 32.2444 34.1551 32.1833 33.3202 32.1833C31.404 32.1833 29.5529 32.4653 27.767 33.0293C25.981 33.5935 24.2917 34.3973 22.699 35.4405Z" fill="#4F94A9"/>
</g>
</svg>
