<svg width="46" height="46" viewBox="0 0 46 46" fill="none" xmlns="http://www.w3.org/2000/svg">
<mask id="mask0_21036_159" style="mask-type:alpha" maskUnits="userSpaceOnUse" x="0" y="0" width="46" height="46">
<rect width="45.3174" height="45.3174" fill="#D9D9D9"/>
</mask>
<g mask="url(#mask0_21036_159)">
<path d="M17.2918 37.7646V36.312H21.206V32.0999H8.2788C7.5534 32.0999 6.93627 31.8456 6.42739 31.337C5.91883 30.8282 5.66455 30.211 5.66455 29.4856V10.1672C5.66455 9.44183 5.91883 8.8247 6.42739 8.31582C6.93627 7.80726 7.5534 7.55298 8.2788 7.55298H37.0383C37.7637 7.55298 38.3809 7.80726 38.8897 8.31582C39.3983 8.8247 39.6526 9.44183 39.6526 10.1672V29.4856C39.6526 30.211 39.3983 30.8282 38.8897 31.337C38.3809 31.8456 37.7637 32.0999 37.0383 32.0999H24.1111V36.312H28.0254V37.7646H17.2918ZM8.2788 30.6474H37.0383C37.3288 30.6474 37.595 30.5264 37.837 30.2844C38.0791 30.0424 38.2001 29.7761 38.2001 29.4856V10.1672C38.2001 9.87675 38.0791 9.61051 37.837 9.36851C37.595 9.1265 37.3288 9.0055 37.0383 9.0055H8.2788C7.98832 9.0055 7.72209 9.1265 7.48008 9.36851C7.23807 9.61051 7.11707 9.87675 7.11707 10.1672V29.4856C7.11707 29.7761 7.23807 30.0424 7.48008 30.2844C7.72209 30.5264 7.98832 30.6474 8.2788 30.6474Z" fill="#4F94A9"/>
</g>
</svg>
