<svg width="48" height="48" viewBox="0 0 48 48" fill="none" xmlns="http://www.w3.org/2000/svg">
<mask id="mask0_21036_75" style="mask-type:alpha" maskUnits="userSpaceOnUse" x="0" y="0" width="48" height="48">
<rect width="48" height="48" fill="#D9D9D9"/>
</mask>
<g mask="url(#mask0_21036_75)">
<path d="M8.769 10L11.623 15.831H17.854L15 10H19.219L22.073 15.831H28.304L25.45 10H29.631L32.523 15.831H38.754L35.8615 10H39.231C39.9993 10 40.653 10.2693 41.192 10.808C41.7307 11.347 42 12.0007 42 12.769V35.231C42 35.9993 41.7307 36.653 41.192 37.192C40.653 37.7307 39.9993 38 39.231 38H8.769C8.00067 38 7.347 37.7307 6.808 37.192C6.26933 36.653 6 35.9993 6 35.231V12.769C6 12.0007 6.26933 11.347 6.808 10.808C7.347 10.2693 8.00067 10 8.769 10ZM7.5385 17.369V35.231C7.5385 35.5897 7.65383 35.8845 7.8845 36.1155C8.1155 36.3462 8.41033 36.4615 8.769 36.4615H39.231C39.5897 36.4615 39.8845 36.3462 40.1155 36.1155C40.3462 35.8845 40.4615 35.5897 40.4615 35.231V17.369H7.5385Z" fill="#4F94A9"/>
</g>
</svg>
